<svg width="562" height="270" viewBox="0 0 562 270" fill="none" xmlns="http://www.w3.org/2000/svg">
<path d="M523 268L523 218" stroke="#2A12FB"/>
<path d="M518 268L518 218" stroke="#2A12FB"/>
<rect width="3" height="3" transform="matrix(4.37114e-08 -1 -1 -4.37114e-08 525 270)" fill="#07F0FF"/>
<rect width="3" height="3" transform="matrix(4.37114e-08 -1 -1 -4.37114e-08 520 270)" fill="#07F0FF"/>
<path d="M538 268L538 218" stroke="#2A12FB"/>
<path d="M533 268L533 218" stroke="#2A12FB"/>
<path d="M528 268L528 218" stroke="#2A12FB"/>
<rect width="3" height="3" transform="matrix(4.37114e-08 -1 -1 -4.37114e-08 540 270)" fill="#07F0FF"/>
<rect width="3" height="3" transform="matrix(4.37114e-08 -1 -1 -4.37114e-08 562 250)" fill="#07F0FF"/>
<rect width="3" height="3" transform="matrix(4.37114e-08 -1 -1 -4.37114e-08 535 270)" fill="#07F0FF"/>
<rect width="3" height="3" transform="matrix(4.37114e-08 -1 -1 -4.37114e-08 530 270)" fill="#07F0FF"/>
<path d="M0.5 98.5V234L35 268.5H512.5V189" stroke="#2A12FB"/>
<path d="M561 247L561 54.0938L526.5 19.9996L126 19.9996" stroke="#2A12FB"/>
<rect x="10" y="28" width="545" height="233" fill="#14143B"/>
<path d="M51.2111 13.658H49.4891V11.922H51.2111V13.658ZM51.2111 16.808H49.4891V15.044H51.2111V16.808ZM46.2691 15.044H47.8651V16.808H46.2691V15.044ZM46.2691 11.922H47.8651V13.658H46.2691V11.922ZM52.7511 10.424H49.4891V8.31H47.8651V10.424H44.8131V18.306H52.7511V10.424ZM44.1411 10.606C43.6791 9.948 42.6711 9.066 41.8591 8.464L40.6131 9.458C41.4251 10.088 42.4051 11.04 42.8111 11.698L44.1411 10.606ZM43.7771 13.574H40.6131V15.1H42.1531V18.054C41.5511 18.53 40.8651 19.006 40.3051 19.342L41.1171 21.078C41.8591 20.49 42.4611 19.944 43.0631 19.398C43.9731 20.49 45.1351 20.882 46.8711 20.952C48.5511 21.022 51.3651 20.994 53.0591 20.91C53.1291 20.434 53.3811 19.622 53.5771 19.23C51.7151 19.37 48.5371 19.412 46.8991 19.342C45.4291 19.286 44.3651 18.908 43.7771 17.97V13.574ZM59.4991 8.184C58.7431 10.158 57.4551 12.146 56.1111 13.406C56.3911 13.812 56.8391 14.708 56.9931 15.1C57.3851 14.722 57.7771 14.26 58.1551 13.784V21.19H59.7371V11.39C60.2411 10.494 60.6751 9.584 61.0391 8.674L59.4991 8.184ZM66.9471 15.38H64.9311C64.9591 14.988 64.9731 14.624 64.9731 14.246V13.742H66.9471V15.38ZM64.9731 10.578H66.9471V12.202H64.9731V10.578ZM69.4111 12.202H68.5571V9.038H61.1231V10.578H63.3211V12.202H60.2831V13.742H63.3211V14.232C63.3211 14.61 63.3071 14.988 63.2791 15.38H60.9971V16.92H62.9991C62.6071 18.124 61.8231 19.258 60.1291 20.014C60.5211 20.336 61.0391 20.924 61.2631 21.274C63.3491 20.196 64.2871 18.6 64.6931 16.92H66.9471V17.592H68.5571V13.742H69.4111V12.202ZM75.6551 12.706H77.3071V11.138H80.3871V12.706H82.0531V11.138H85.0491V9.528H82.0531V8.156H80.3871V9.528H77.3071V8.156H75.6551V9.528H72.7151V11.138H75.6551V12.706ZM81.5351 12.944C81.0031 14.722 80.1071 16.08 78.8611 17.116C77.6151 16.052 76.7331 14.694 76.1731 13.014L74.6611 13.42C75.3331 15.324 76.2291 16.864 77.4331 18.054C76.0611 18.782 74.3531 19.286 72.3371 19.594C72.6451 20 73.0931 20.77 73.2611 21.19C75.4311 20.742 77.2791 20.112 78.8051 19.16C80.2331 20.112 82.0251 20.742 84.2651 21.106C84.4891 20.644 84.9371 19.93 85.2871 19.552C83.2711 19.286 81.6191 18.796 80.2891 18.068C81.6051 16.892 82.5991 15.366 83.2851 13.364L81.5351 12.944ZM94.1071 15.464C94.1351 15.058 94.1491 14.638 94.1491 14.204H95.5771V15.464H94.1071ZM91.0271 15.464C91.1251 15.058 91.2091 14.624 91.2931 14.204H92.5391C92.5391 14.638 92.5251 15.058 92.4831 15.464H91.0271ZM94.1491 11.418H95.5771V12.65H94.1491V11.418ZM98.5591 11.418V12.65H97.2151V11.418H98.5591ZM97.2151 15.464V14.204H100.225V9.864H97.2151V8.156H95.5771V9.864H94.1491V8.156H92.5391V9.864H89.2491V11.418H92.5391V12.65H91.0271L89.9491 12.538C89.6831 14.092 89.2491 16.108 88.8711 17.354L90.5231 17.592L90.6771 17.018H92.1331C91.6851 18.194 90.7751 19.188 88.9831 19.874C89.2911 20.196 89.7671 20.854 89.9491 21.26C92.3991 20.28 93.4491 18.796 93.8691 17.018H95.5771V21.218H97.2151V17.018H99.1751C99.1191 17.928 99.0351 18.32 98.9091 18.46C98.7971 18.586 98.6851 18.614 98.4891 18.6C98.2931 18.6 97.8871 18.6 97.4251 18.558C97.6631 18.978 97.8451 19.636 97.8591 20.126C98.4891 20.154 99.0631 20.126 99.3991 20.07C99.7631 20.014 100.043 19.888 100.309 19.58C100.645 19.202 100.771 18.194 100.883 16.066C100.897 15.87 100.911 15.464 100.911 15.464H97.2151ZM106.161 14.484H107.197V15.576H106.161V14.484ZM109.619 15.576H108.597V14.484H109.619V15.576ZM108.625 10.62V11.362H107.155V10.62H108.625ZM114.099 11.278C114.127 10.312 114.127 9.29 114.127 8.212H112.559C112.559 9.304 112.559 10.326 112.545 11.278H110.963V12.818H112.503C112.419 15.128 112.125 16.99 111.285 18.432V17.578H108.667V16.836H111.019V13.238H108.667V12.622H110.053V10.62H111.285V9.36H110.053V8.17H108.625V9.36H107.155V8.17H105.769V9.36H104.439V10.62H105.769V12.622H107.127V13.238H104.831V16.836H107.127V17.578H104.285V18.978H107.127V21.218H108.667V18.978H110.921C110.641 19.342 110.319 19.678 109.941 19.986C110.319 20.252 110.851 20.84 111.075 21.246C113.287 19.412 113.889 16.57 114.057 12.818H115.359C115.275 17.326 115.149 19.034 114.855 19.412C114.729 19.608 114.617 19.65 114.393 19.65C114.113 19.65 113.567 19.65 112.965 19.594C113.231 20.028 113.399 20.7 113.427 21.148C114.099 21.176 114.743 21.176 115.177 21.092C115.653 21.022 115.961 20.868 116.269 20.406C116.703 19.776 116.815 17.746 116.941 12.006C116.941 11.81 116.955 11.278 116.955 11.278H114.099Z" fill="#2A12FB"/>
<path d="M126.5 27.5L126.5 10L117.5 1L0.999886 1L0.999884 29L18.4999 46.5L18.4999 63" stroke="#2A12FB"/>
<g filter="url(#filter0_d)">
<rect x="17" y="60" width="3" height="18" fill="#07F0FF"/>
</g>
<path d="M177 10H127" stroke="#2A12FB"/>
<path d="M177 15H127" stroke="#2A12FB"/>
<path d="M177 20H127" stroke="#2A12FB"/>
<g filter="url(#filter1_d)">
<rect width="3" height="3" transform="matrix(-1 0 0 1 179 8)" fill="#07F0FF"/>
</g>
<g filter="url(#filter2_d)">
<rect width="3" height="3" transform="matrix(-1 0 0 1 179 13)" fill="#07F0FF"/>
</g>
<path d="M0.5 98.5V86.5L10 77" stroke="#2A12FB"/>
<defs>
<filter id="filter0_d" x="9" y="52" width="19" height="34" filterUnits="userSpaceOnUse" color-interpolation-filters="sRGB">
<feFlood flood-opacity="0" result="BackgroundImageFix"/>
<feColorMatrix in="SourceAlpha" type="matrix" values="0 0 0 0 0 0 0 0 0 0 0 0 0 0 0 0 0 0 127 0"/>
<feOffset/>
<feGaussianBlur stdDeviation="4"/>
<feColorMatrix type="matrix" values="0 0 0 0 0.027451 0 0 0 0 0.941176 0 0 0 0 1 0 0 0 1 0"/>
<feBlend mode="normal" in2="BackgroundImageFix" result="effect1_dropShadow"/>
<feBlend mode="normal" in="SourceGraphic" in2="effect1_dropShadow" result="shape"/>
</filter>
<filter id="filter1_d" x="168" y="0" width="19" height="19" filterUnits="userSpaceOnUse" color-interpolation-filters="sRGB">
<feFlood flood-opacity="0" result="BackgroundImageFix"/>
<feColorMatrix in="SourceAlpha" type="matrix" values="0 0 0 0 0 0 0 0 0 0 0 0 0 0 0 0 0 0 127 0"/>
<feOffset/>
<feGaussianBlur stdDeviation="4"/>
<feColorMatrix type="matrix" values="0 0 0 0 0.027451 0 0 0 0 0.941176 0 0 0 0 1 0 0 0 1 0"/>
<feBlend mode="normal" in2="BackgroundImageFix" result="effect1_dropShadow"/>
<feBlend mode="normal" in="SourceGraphic" in2="effect1_dropShadow" result="shape"/>
</filter>
<filter id="filter2_d" x="168" y="5" width="19" height="19" filterUnits="userSpaceOnUse" color-interpolation-filters="sRGB">
<feFlood flood-opacity="0" result="BackgroundImageFix"/>
<feColorMatrix in="SourceAlpha" type="matrix" values="0 0 0 0 0 0 0 0 0 0 0 0 0 0 0 0 0 0 127 0"/>
<feOffset/>
<feGaussianBlur stdDeviation="4"/>
<feColorMatrix type="matrix" values="0 0 0 0 0.027451 0 0 0 0 0.941176 0 0 0 0 1 0 0 0 1 0"/>
<feBlend mode="normal" in2="BackgroundImageFix" result="effect1_dropShadow"/>
<feBlend mode="normal" in="SourceGraphic" in2="effect1_dropShadow" result="shape"/>
</filter>
</defs>
</svg>
