<svg width="177" height="205" viewBox="0 0 177 205" fill="none" xmlns="http://www.w3.org/2000/svg">
<g opacity="0.5" clip-path="url(#clip0)">
<g filter="url(#filter0_d)">
<path opacity="0.6" d="M96.9067 199.191C79.8291 199.191 63.7906 197.629 51.6826 194.779C39.5295 191.93 32.843 188.125 32.843 184.099C32.843 180.11 39.4391 176.36 51.3664 173.548C63.2936 170.754 79.1966 169.21 96.0935 169.21C113.171 169.21 129.21 170.772 141.318 173.621C153.471 176.471 160.157 180.257 160.157 184.301C160.157 188.29 153.561 192.04 141.589 194.853C129.707 197.647 113.804 199.191 96.9067 199.191ZM96.0935 169.357C79.2417 169.357 63.4291 170.901 51.5471 173.676C39.7554 176.471 33.2496 180.165 33.2496 184.099C33.2496 188.07 39.8457 191.801 51.8633 194.632C63.9261 197.463 79.9194 199.026 96.9067 199.026C113.758 199.026 129.571 197.482 141.453 194.706C153.29 191.93 159.796 188.235 159.796 184.301C159.796 180.331 153.2 176.599 141.182 173.768C129.119 170.919 113.081 169.357 96.0935 169.357Z" fill="url(#paint0_radial)"/>
<path opacity="0.3" d="M96.9067 198.658C80.5068 198.658 65.0556 197.151 53.4446 194.412C41.7433 191.654 35.2827 187.996 35.2827 184.099C35.2827 180.239 41.6529 176.618 53.1736 173.915C64.649 171.213 79.9195 169.743 96.1387 169.743C112.539 169.743 127.99 171.25 139.601 173.989C151.302 176.746 157.763 180.404 157.763 184.301C157.763 188.162 151.392 191.783 139.872 194.485C128.396 197.169 113.126 198.658 96.9067 198.658ZM96.1387 170.055C80.0098 170.055 64.9201 171.526 53.5802 174.191C42.2854 176.838 36.0959 180.368 36.0959 184.099C36.0959 187.868 42.421 191.434 53.8512 194.118C65.3719 196.82 80.6875 198.309 96.9067 198.309C113.036 198.309 128.125 196.838 139.465 194.173C150.76 191.526 156.95 187.996 156.95 184.265C156.95 180.496 150.624 176.93 139.194 174.246C127.674 171.562 112.358 170.055 96.1387 170.055Z" fill="url(#paint1_radial)"/>
<path opacity="0.8" d="M73.3684 189.632C60.4925 186.618 60.4473 181.728 73.2329 178.732C74.4979 178.437 75.8081 178.162 77.2086 177.941L75.9888 177.537C74.4979 177.794 73.0522 178.07 71.6968 178.382C58.098 181.581 58.1883 186.783 71.8324 190C74.6786 190.68 77.9315 191.195 81.3651 191.599L82.2687 191.14C79.061 190.754 76.034 190.257 73.3684 189.632Z" fill="url(#paint2_radial)"/>
<path opacity="0.6" d="M129.164 183.437L131.288 183.401C130.52 181.618 127.222 179.871 121.484 178.493L119.993 178.842C125.324 180.129 128.396 181.765 129.164 183.437Z" fill="url(#paint3_radial)"/>
<path opacity="0.8" d="M119.27 178.676L120.761 178.327C108.653 175.57 90.175 175.239 76.7117 177.39L77.9315 177.794C90.6268 175.79 107.93 176.085 119.27 178.676Z" fill="url(#paint4_radial)"/>
<path opacity="0.4" d="M131.333 183.603L129.21 183.64C129.932 185.79 126.77 188.015 119.767 189.651C115.656 190.607 110.731 191.268 105.536 191.599L106.078 192.077C111.635 191.71 116.921 191.029 121.258 190C128.758 188.272 132.101 185.919 131.333 183.603Z" fill="url(#paint5_radial)"/>
<path opacity="0.6" d="M83.127 191.213L82.2234 191.673C89.452 192.445 97.5842 192.61 105.174 192.169L104.632 191.691C97.539 192.096 89.949 191.93 83.127 191.213Z" fill="url(#paint6_radial)"/>
<path opacity="0.4" d="M95.9128 174.724C76.4406 174.761 60.3118 178.07 56.8782 182.408L60.5828 182.555C63.7002 178.621 78.293 175.625 95.9579 175.588L95.9128 174.724ZM60.2666 182.39L57.3751 182.261C61.0798 178.033 76.9376 174.963 95.461 174.871V175.423C78.3833 175.533 63.655 178.419 60.2666 182.39Z" fill="url(#paint7_radial)"/>
<path opacity="0.6" d="M96.8162 174.724V175.607C105.4 175.643 113.306 176.36 119.541 177.555L121.936 176.875C115.068 175.551 106.349 174.743 96.8162 174.724ZM119.496 177.371C113.081 176.158 105.4 175.496 97.2228 175.441V174.89C105.897 174.945 114.3 175.662 121.122 176.912L119.496 177.371Z" fill="url(#paint8_radial)"/>
<path opacity="0.8" d="M122.659 177.022L120.264 177.702C128.08 179.283 133.05 181.618 133.095 184.228C133.095 185.754 131.423 187.188 128.487 188.419L131.74 188.86C135.038 187.482 136.89 185.901 136.845 184.228C136.8 181.36 131.288 178.768 122.659 177.022ZM131.604 188.676L129.21 188.346C132.056 187.077 133.547 185.662 133.502 184.228C133.456 181.728 128.939 179.357 121.032 177.684L122.704 177.224C131.423 179.007 136.393 181.563 136.438 184.228C136.483 185.772 134.812 187.316 131.604 188.676Z" fill="url(#paint9_radial)"/>
<path d="M108.653 192.316C104.903 192.629 100.882 192.794 96.7259 192.794C96.6807 192.794 96.6355 192.794 96.5904 192.794C76.4406 192.776 59.9503 188.915 59.9051 184.173C59.9051 183.695 60.0406 183.235 60.3569 182.794L56.6522 182.647C56.2908 183.143 56.1101 183.658 56.1553 184.191C56.2456 189.412 74.3624 193.676 96.6355 193.695C96.6807 193.695 96.7259 193.695 96.7711 193.695C101.379 193.695 105.852 193.511 109.963 193.162L108.653 192.316ZM96.6355 193.511C74.6334 193.493 56.6522 189.301 56.5619 184.154C56.5619 183.713 56.6974 183.254 56.9685 182.794L59.8599 182.923C59.634 183.346 59.4985 183.75 59.4985 184.173C59.5437 189.007 76.2147 192.941 96.5904 192.96H96.7259C100.747 192.96 104.677 192.812 108.472 192.5L109.286 193.033C105.22 193.346 101.018 193.511 96.7259 193.511H96.6355Z" fill="url(#paint10_radial)"/>
<path opacity="0.6" d="M127.99 188.603C123.788 190.257 117.282 191.544 109.557 192.243L110.867 193.07C119.451 192.316 126.634 190.882 131.288 189.044L127.99 188.603ZM110.189 192.353C117.598 191.673 123.924 190.404 128.08 188.805L130.474 189.136C125.911 190.846 119.044 192.169 111.002 192.904L110.189 192.353Z" fill="url(#paint11_radial)"/>
<path opacity="0.2" d="M112.358 173.732L115.791 171.158C114.933 171.085 114.075 171.011 113.216 170.937L109.647 173.511C110.551 173.566 111.454 173.64 112.358 173.732ZM69.7089 174.963L62.8417 172.794C62.0736 172.923 61.3508 173.051 60.6279 173.18L67.3596 175.368C68.1276 175.221 68.8956 175.092 69.7089 174.963ZM116.966 174.173L121.529 171.71C120.716 171.618 119.903 171.526 119.044 171.434L114.346 173.897C115.249 173.971 116.108 174.081 116.966 174.173ZM133.908 177.408C134.495 177.592 135.083 177.776 135.625 177.96L144.841 176.36C144.299 176.176 143.757 176.011 143.215 175.846L133.908 177.408ZM130.655 176.526C131.333 176.691 131.965 176.857 132.598 177.022L141.046 175.221C140.459 175.055 139.826 174.89 139.194 174.743L130.655 176.526ZM134.721 173.732L126.996 175.717C127.719 175.864 128.441 176.011 129.119 176.176L136.754 174.173C136.122 174.007 135.444 173.879 134.721 173.732ZM83.0818 173.493L79.4223 170.919C78.5639 170.974 77.7055 171.066 76.8471 171.121L80.3711 173.695C81.2747 173.621 82.1782 173.548 83.0818 173.493ZM148.094 177.592C147.642 177.408 147.191 177.224 146.694 177.04L136.754 178.364C137.251 178.548 137.748 178.75 138.245 178.952L148.094 177.592ZM78.3832 173.86L73.6394 171.397C72.781 171.471 71.9678 171.581 71.1546 171.673L75.808 174.154C76.6664 174.044 77.5248 173.952 78.3832 173.86ZM107.614 173.382L109.918 170.735C109.014 170.68 108.156 170.625 107.253 170.588L104.813 173.235C105.762 173.272 106.665 173.327 107.614 173.382ZM73.9105 174.357L68.0824 172.022C67.2692 172.132 66.5012 172.243 65.7331 172.353L71.4708 174.706C72.284 174.596 73.0973 174.467 73.9105 174.357ZM102.735 173.162L103.819 170.478C102.915 170.441 102.012 170.423 101.108 170.404L99.8883 173.088C100.837 173.107 101.786 173.143 102.735 173.162ZM92.8405 173.088L91.5303 170.404C90.6267 170.423 89.7231 170.441 88.8195 170.478L89.9942 173.162C90.9429 173.125 91.8917 173.107 92.8405 173.088ZM87.9159 173.235L85.4311 170.588C84.5275 170.625 83.6691 170.68 82.7656 170.735L85.1149 173.382C86.0184 173.327 86.9672 173.272 87.9159 173.235ZM129.842 172.831L123.065 175C123.833 175.129 124.646 175.257 125.369 175.404L132.056 173.217C131.333 173.088 130.61 172.96 129.842 172.831ZM143.893 184.559H155.368C155.368 184.338 155.368 184.136 155.368 183.915L143.893 183.897C143.893 184.118 143.893 184.338 143.893 184.559ZM139.284 189.062L149.811 190.147C150.218 189.945 150.624 189.761 150.94 189.559L140.459 188.437C140.098 188.658 139.691 188.86 139.284 189.062ZM136.89 190.074L146.874 191.415C147.371 191.232 147.823 191.048 148.275 190.864L138.336 189.485C137.884 189.706 137.387 189.89 136.89 190.074ZM134.089 191.029L143.441 192.61C143.983 192.445 144.525 192.261 145.067 192.096L135.806 190.496C135.263 190.68 134.676 190.864 134.089 191.029ZM95.2349 195.312L95.3253 198.015C96.2289 198.015 97.1324 198.015 98.0812 198.015L98.1264 195.312C97.1324 195.331 96.1837 195.331 95.2349 195.312ZM49.1525 183.824H37.6318C37.6318 184.044 37.6318 184.246 37.6318 184.467L49.1525 184.485C49.1073 184.265 49.1073 184.044 49.1525 183.824ZM97.8101 173.07L97.6746 170.368C96.771 170.368 95.8674 170.368 94.9187 170.368L94.8735 173.07C95.8674 173.051 96.8162 173.051 97.8101 173.07ZM143.125 182.243L154.374 181.673C154.193 181.471 153.967 181.25 153.742 181.048L142.492 181.581C142.718 181.801 142.989 182.022 143.125 182.243ZM143.757 183.401L155.187 183.107C155.097 182.886 155.007 182.684 154.871 182.463L143.441 182.721C143.576 182.96 143.712 183.18 143.757 183.401ZM140.369 180L150.805 178.897C150.444 178.695 150.037 178.511 149.63 178.309L139.104 179.375C139.555 179.596 140.007 179.798 140.369 180ZM141.995 181.103L152.928 180.257C152.657 180.055 152.341 179.853 152.025 179.651L141.092 180.46C141.408 180.68 141.724 180.882 141.995 181.103ZM142.582 186.875L153.832 187.426C154.058 187.224 154.284 187.004 154.464 186.801L143.215 186.213C143.034 186.434 142.808 186.654 142.582 186.875ZM143.486 185.735L154.916 186.011C155.052 185.79 155.142 185.588 155.232 185.368L143.802 185.055C143.712 185.276 143.622 185.496 143.486 185.735ZM141.182 187.978L152.16 188.805C152.477 188.603 152.793 188.401 153.064 188.199L142.131 187.335C141.814 187.555 141.498 187.776 141.182 187.978ZM124.601 172.077L118.818 174.393C119.677 174.504 120.49 174.614 121.303 174.743L126.951 172.408C126.182 172.298 125.414 172.169 124.601 172.077ZM63.8356 192.206L56.2455 194.21C56.9232 194.357 57.6009 194.504 58.2786 194.651L66.0042 192.665C65.2361 192.518 64.5585 192.371 63.8356 192.206ZM100.159 195.294L101.47 197.978C102.373 197.96 103.277 197.941 104.18 197.904L103.006 195.221C102.102 195.257 101.153 195.294 100.159 195.294ZM80.6421 194.669L77.2085 197.243C78.0669 197.316 78.9254 197.39 79.7837 197.463L83.3529 194.908C82.4493 194.816 81.5457 194.743 80.6421 194.669ZM90.2653 195.221L89.181 197.904C90.0845 197.941 90.9881 197.96 91.8917 197.978L93.1115 195.294C92.1628 195.276 91.214 195.257 90.2653 195.221ZM67.6306 192.978L60.9441 195.165C61.667 195.294 62.3899 195.423 63.1579 195.551L69.9347 193.382C69.1667 193.254 68.3535 193.125 67.6306 192.978ZM71.6967 193.64L66.0494 195.974C66.8174 196.085 67.6306 196.195 68.3987 196.305L74.1816 193.989C73.3232 193.879 72.5099 193.768 71.6967 193.64ZM76.0339 194.21L71.4708 196.673C72.284 196.765 73.0973 196.857 73.9557 196.949L78.6543 194.485C77.7959 194.412 76.9375 194.301 76.0339 194.21ZM85.3859 195L83.0818 197.647C83.9854 197.702 84.8438 197.757 85.7474 197.794L88.187 195.147C87.2834 195.11 86.3347 195.055 85.3859 195ZM127.267 192.721L135.038 194.724C135.715 194.577 136.393 194.449 137.071 194.301L129.39 192.279C128.667 192.426 127.99 192.574 127.267 192.721ZM123.336 193.419L130.158 195.588C130.926 195.46 131.649 195.331 132.372 195.202L125.64 193.015C124.872 193.162 124.104 193.29 123.336 193.419ZM105.084 195.165L107.569 197.812C108.472 197.776 109.331 197.721 110.234 197.665L107.885 195.018C106.981 195.074 106.033 195.129 105.084 195.165ZM130.836 191.912L139.42 193.713C140.052 193.548 140.64 193.401 141.272 193.235L132.779 191.415C132.146 191.581 131.514 191.746 130.836 191.912ZM119.089 194.026L124.917 196.36C125.731 196.25 126.499 196.14 127.267 196.029L121.574 193.676C120.761 193.805 119.948 193.915 119.089 194.026ZM109.918 194.908L113.578 197.482C114.436 197.426 115.294 197.335 116.153 197.279L112.629 194.706C111.77 194.761 110.867 194.835 109.918 194.908ZM114.617 194.522L119.36 196.985C120.219 196.912 121.032 196.801 121.845 196.71L117.192 194.228C116.379 194.338 115.52 194.43 114.617 194.522ZM49.8753 186.14L38.6258 186.71C38.8065 186.912 39.0324 187.132 39.2583 187.335L50.5078 186.801C50.2819 186.581 50.056 186.36 49.8753 186.14ZM51.8632 180.404L40.8847 179.577C40.5685 179.779 40.2522 179.982 39.9811 180.184L50.9144 181.048C51.1855 180.827 51.5469 180.607 51.8632 180.404ZM50.4175 181.507L39.1679 180.956C38.942 181.158 38.7161 181.379 38.5806 181.581L49.8301 182.169C49.9657 181.949 50.1916 181.728 50.4175 181.507ZM53.7607 179.32L43.234 178.235C42.8274 178.437 42.4208 178.621 42.1045 178.824L52.5861 179.945C52.9023 179.724 53.3089 179.522 53.7607 179.32ZM58.9111 177.353L49.5591 175.772C49.0169 175.937 48.4748 176.121 47.9326 176.287L57.2395 177.886C57.7816 177.702 58.3238 177.537 58.9111 177.353ZM56.11 178.309L46.1255 176.967C45.6285 177.151 45.1767 177.335 44.7249 177.518L54.6643 178.897C55.1161 178.695 55.613 178.493 56.11 178.309ZM51.9535 193.18C52.5409 193.346 53.1734 193.511 53.8059 193.658L62.3447 191.875C61.667 191.71 61.0345 191.544 60.402 191.379L51.9535 193.18ZM49.5139 182.665L38.0836 182.39C37.9481 182.61 37.8577 182.812 37.7674 183.033L49.1976 183.346C49.288 183.107 49.4235 182.886 49.5139 182.665ZM62.164 176.471L53.58 174.669C52.9475 174.835 52.3602 174.982 51.7277 175.147L60.2213 176.967C60.8538 176.801 61.4863 176.636 62.164 176.471ZM49.2428 184.982L37.8126 185.276C37.9029 185.496 37.9933 185.699 38.1288 185.919L49.5591 185.662C49.4235 185.441 49.3332 185.202 49.2428 184.982ZM44.9056 190.79C45.3574 190.974 45.8092 191.158 46.3062 191.342L56.2907 190.018C55.7938 189.835 55.2968 189.632 54.7998 189.43L44.9056 190.79ZM48.1585 192.022C48.7007 192.206 49.2428 192.371 49.785 192.537L59.0918 190.974C58.5045 190.79 57.9172 190.607 57.375 190.423L48.1585 192.022ZM52.6764 188.382L42.2401 189.485C42.6015 189.687 43.0081 189.871 43.4147 190.074L53.9414 188.989C53.4444 188.787 53.0378 188.585 52.6764 188.382ZM51.0048 187.279L40.0715 188.125C40.3426 188.327 40.6588 188.529 40.9751 188.732L51.9084 187.923C51.6373 187.702 51.2759 187.5 51.0048 187.279ZM65.7783 175.68L58.0075 173.676C57.3298 173.824 56.6522 173.952 55.9745 174.099L63.6549 176.121C64.3326 175.974 65.0554 175.809 65.7783 175.68Z" fill="url(#paint12_radial)"/>
<path opacity="0.5" d="M133.908 177.408C134.495 177.592 135.083 177.776 135.625 177.96L144.841 176.36C144.299 176.176 143.757 176.011 143.215 175.846L133.908 177.408ZM73.9105 174.357L68.0824 172.022C67.2692 172.132 66.5012 172.243 65.7331 172.353L71.4708 174.706C72.2841 174.596 73.0973 174.467 73.9105 174.357ZM102.735 173.162L103.819 170.478C102.915 170.441 102.012 170.423 101.108 170.404L99.8884 173.088C100.837 173.107 101.786 173.143 102.735 173.162ZM92.8405 173.088L91.5303 170.404C90.6267 170.423 89.7231 170.441 88.8195 170.478L89.9942 173.162C90.9429 173.125 91.8917 173.107 92.8405 173.088ZM129.842 172.831L123.065 175C123.833 175.129 124.646 175.257 125.369 175.404L132.056 173.217C131.333 173.088 130.61 172.96 129.842 172.831ZM134.089 191.029L143.441 192.61C143.983 192.445 144.525 192.261 145.067 192.096L135.806 190.496C135.263 190.68 134.676 190.864 134.089 191.029ZM95.2349 195.313L95.3253 198.015C96.2289 198.015 97.1324 198.015 98.0812 198.015L98.1264 195.313C97.1324 195.331 96.1837 195.331 95.2349 195.313ZM49.1525 183.824H37.6318C37.6318 184.044 37.6318 184.246 37.6318 184.467L49.1525 184.485C49.1073 184.265 49.1073 184.044 49.1525 183.824ZM143.125 182.243L154.374 181.673C154.193 181.471 153.968 181.25 153.742 181.048L142.492 181.581C142.718 181.801 142.989 182.022 143.125 182.243ZM142.582 186.875L153.832 187.426C154.058 187.224 154.284 187.004 154.464 186.801L143.215 186.213C143.034 186.434 142.808 186.654 142.582 186.875ZM76.0339 194.21L71.4708 196.673C72.2841 196.765 73.0973 196.857 73.9557 196.949L78.6543 194.485C77.7959 194.412 76.9375 194.301 76.0339 194.21ZM119.089 194.026L124.917 196.36C125.731 196.25 126.499 196.14 127.267 196.029L121.574 193.676C120.761 193.805 119.948 193.915 119.089 194.026ZM49.8753 186.14L38.6258 186.71C38.8065 186.912 39.0324 187.132 39.2583 187.335L50.5078 186.801C50.2819 186.581 50.056 186.36 49.8753 186.14ZM58.9111 177.353L49.5591 175.772C49.0169 175.938 48.4748 176.121 47.9326 176.287L57.2395 177.886C57.7816 177.702 58.3238 177.537 58.9111 177.353ZM48.1585 192.022C48.7007 192.206 49.2428 192.371 49.785 192.537L59.0918 190.974C58.5045 190.79 57.9172 190.607 57.375 190.423L48.1585 192.022Z" fill="url(#paint13_radial)"/>
<path opacity="0.3" d="M69.7088 174.963L62.8416 172.794C62.0736 172.923 61.3507 173.051 60.6279 173.18L67.3595 175.368C68.1276 175.221 68.8956 175.092 69.7088 174.963ZM116.966 174.173L121.529 171.71C120.716 171.618 119.903 171.526 119.044 171.434L114.346 173.897C115.249 173.971 116.108 174.081 116.966 174.173ZM134.721 173.732L126.996 175.717C127.719 175.864 128.441 176.011 129.119 176.176L136.754 174.173C136.122 174.007 135.444 173.879 134.721 173.732ZM78.3832 173.86L73.6394 171.397C72.781 171.471 71.9678 171.581 71.1546 171.673L75.808 174.154C76.6664 174.044 77.5248 173.952 78.3832 173.86ZM107.614 173.382L109.918 170.735C109.014 170.68 108.156 170.625 107.252 170.588L104.813 173.235C105.762 173.272 106.665 173.327 107.614 173.382ZM136.89 190.074L146.874 191.415C147.371 191.232 147.823 191.048 148.275 190.864L138.336 189.485C137.884 189.706 137.387 189.89 136.89 190.074ZM143.757 183.401L155.187 183.107C155.097 182.886 155.007 182.684 154.871 182.463L143.441 182.721C143.576 182.96 143.712 183.18 143.757 183.401ZM140.369 180L150.805 178.897C150.444 178.695 150.037 178.511 149.63 178.309L139.104 179.375C139.555 179.596 140.007 179.798 140.369 180ZM141.995 181.103L152.928 180.257C152.657 180.055 152.341 179.853 152.025 179.651L141.091 180.46C141.408 180.68 141.724 180.882 141.995 181.103ZM141.182 187.978L152.16 188.805C152.477 188.603 152.793 188.401 153.064 188.199L142.131 187.335C141.814 187.555 141.498 187.776 141.182 187.978ZM90.2652 195.221L89.1809 197.904C90.0845 197.941 90.9881 197.96 91.8917 197.978L93.1115 195.294C92.1627 195.276 91.214 195.257 90.2652 195.221ZM67.6306 192.978L60.9441 195.165C61.667 195.294 62.3898 195.423 63.1579 195.551L69.9347 193.382C69.1667 193.254 68.3535 193.125 67.6306 192.978ZM85.3859 195L83.0818 197.647C83.9854 197.702 84.8438 197.757 85.7473 197.794L88.187 195.147C87.2834 195.11 86.3347 195.055 85.3859 195ZM123.336 193.419L130.158 195.588C130.926 195.46 131.649 195.331 132.372 195.202L125.64 193.015C124.872 193.162 124.104 193.29 123.336 193.419ZM109.918 194.908L113.578 197.482C114.436 197.426 115.294 197.335 116.153 197.279L112.629 194.706C111.77 194.761 110.867 194.835 109.918 194.908ZM49.8753 186.14L38.6257 186.71C38.8065 186.912 39.0324 187.132 39.2582 187.335L50.5078 186.801C50.2819 186.581 50.056 186.36 49.8753 186.14ZM50.4174 181.507L39.1679 180.956C38.942 181.158 38.7161 181.379 38.5806 181.581L49.8301 182.169C49.9656 181.949 50.1915 181.728 50.4174 181.507ZM58.9111 177.353L49.559 175.772C49.0169 175.937 48.4747 176.121 47.9326 176.287L57.2395 177.886C57.7816 177.702 58.3237 177.537 58.9111 177.353ZM52.6764 188.382L42.2401 189.485C42.6015 189.687 43.0081 189.871 43.4147 190.074L53.9414 188.989C53.4444 188.787 53.0378 188.585 52.6764 188.382Z" fill="url(#paint14_radial)"/>
<path opacity="0.2" d="M112.945 167.151C112.177 167.114 111.409 167.059 110.596 167.022L108.879 168.915C109.692 168.952 110.505 168.989 111.319 169.044L112.945 167.151ZM109.421 168.768L110.867 167.187C111.228 167.206 111.59 167.224 111.906 167.243C112.087 167.261 112.222 167.261 112.403 167.279L111.048 168.842C110.46 168.824 109.918 168.805 109.421 168.768ZM120.445 167.665C119.677 167.61 118.954 167.537 118.186 167.482L115.611 169.32C116.424 169.375 117.192 169.43 118.005 169.504L120.445 167.665ZM116.243 169.191L118.367 167.665C118.728 167.702 119.135 167.721 119.496 167.757C119.632 167.776 119.722 167.776 119.857 167.794L117.779 169.32C117.282 169.265 116.74 169.228 116.243 169.191ZM136.303 171.801L141.046 170.239C140.414 170.129 139.781 170.018 139.104 169.908L134.27 171.452C134.992 171.562 135.625 171.673 136.303 171.801ZM139.194 170.092C139.555 170.147 139.962 170.221 140.324 170.276L136.303 171.599C135.896 171.526 135.489 171.452 135.128 171.397L139.194 170.092ZM105.265 166.82C104.451 166.801 103.683 166.765 102.87 166.746L101.967 168.676C102.78 168.695 103.638 168.713 104.451 168.732L105.265 166.82ZM102.464 168.529L103.186 166.93C103.593 166.949 104 166.949 104.406 166.967C104.542 166.967 104.677 166.967 104.813 166.985L104.18 168.585C103.593 168.548 103.051 168.548 102.464 168.529ZM134.586 169.21C133.908 169.118 133.23 169.007 132.508 168.915L128.396 170.57C129.119 170.662 129.842 170.772 130.565 170.864L134.586 169.21ZM129.119 170.515L132.598 169.118C133.005 169.173 133.411 169.228 133.818 169.283L130.429 170.699C129.978 170.625 129.571 170.57 129.119 170.515ZM127.673 168.346C126.951 168.272 126.228 168.18 125.505 168.107L122.162 169.871C122.93 169.945 123.698 170.018 124.466 170.11L127.673 168.346ZM122.839 169.761L125.64 168.29C126.047 168.327 126.454 168.382 126.815 168.419C126.86 168.419 126.905 168.437 126.996 168.437L124.24 169.908C123.788 169.871 123.336 169.816 122.839 169.761ZM90.6267 168.676L89.678 166.746C88.8648 166.765 88.0967 166.783 87.2835 166.82L88.0967 168.732C88.9551 168.713 89.7683 168.695 90.6267 168.676ZM88.1419 166.949C88.5485 166.93 88.9551 166.93 89.3617 166.912L90.1298 168.511C89.5425 168.529 89.0003 168.529 88.4582 168.548L87.7805 166.949C87.8708 166.967 88.0064 166.967 88.1419 166.949ZM64.2423 170.533L60.0858 168.86C59.4081 168.952 58.6853 169.044 58.0076 169.154L62.0737 170.827C62.7965 170.735 63.5194 170.625 64.2423 170.533ZM59.9955 169.062L63.5194 170.478C63.1128 170.533 62.661 170.588 62.2092 170.662L58.7756 169.246C59.1822 169.173 59.5888 169.118 59.9955 169.062ZM70.477 169.835L67.0885 168.07C66.3657 168.143 65.6428 168.235 64.92 168.309L68.218 170.074C68.9861 169.982 69.7089 169.908 70.477 169.835ZM65.688 168.382C66.0946 168.346 66.5012 168.29 66.9078 168.254L69.7541 169.724C69.2571 169.779 68.8053 169.816 68.3084 169.871L65.5073 168.382C65.6428 168.401 65.688 168.382 65.688 168.382ZM58.369 171.397L53.4897 169.853C52.8572 169.963 52.1795 170.074 51.547 170.184L56.336 171.746C57.0136 171.618 57.6913 171.507 58.369 171.397ZM53.4445 170.037L57.601 171.36C57.2395 171.415 56.8329 171.489 56.4263 171.562L52.3602 170.221C52.7216 170.147 53.0831 170.092 53.4445 170.037ZM77.0279 169.283L74.4075 167.445C73.6395 167.5 72.9166 167.574 72.1486 167.629L74.6786 169.467C75.4466 169.393 76.2147 169.338 77.0279 169.283ZM73.0973 167.702C73.4588 167.665 73.8202 167.647 74.1816 167.61L76.3502 169.154C75.8532 169.191 75.3111 169.228 74.8141 169.265L72.7359 167.739C72.8714 167.739 73.007 167.721 73.0973 167.702ZM141.634 172.849L147.055 171.415C146.468 171.287 145.881 171.158 145.248 171.029L139.736 172.445C140.414 172.592 141.001 172.721 141.634 172.849ZM145.293 171.232C145.609 171.305 145.926 171.36 146.287 171.434L141.634 172.665C141.272 172.592 140.956 172.518 140.595 172.445L145.293 171.232ZM83.7596 168.897L81.9524 167.004C81.1844 167.04 80.4163 167.096 79.6031 167.132L81.2747 169.026C82.1331 168.971 82.9463 168.934 83.7596 168.897ZM80.6422 167.224C81.0036 167.206 81.3199 167.187 81.6813 167.169L83.1722 168.75C82.6753 168.768 82.1331 168.805 81.5458 168.824L80.1452 167.243C80.326 167.261 80.4615 167.243 80.6422 167.224ZM97.5391 168.621L97.4939 166.691C96.997 166.691 96.5452 166.691 96.0482 166.691C95.732 166.691 95.4157 166.691 95.0995 166.691L95.0543 168.621C95.4157 168.621 95.732 168.621 96.0934 168.621C96.5904 168.621 97.0422 168.621 97.5391 168.621ZM95.4609 166.857C95.6416 166.857 95.8223 166.857 96.003 166.857C96.3645 166.857 96.7259 166.857 97.0422 166.857L97.0873 168.456C96.7259 168.456 96.4096 168.456 96.0482 168.456C95.8223 168.456 95.6416 168.456 95.4157 168.456L95.4609 166.857ZM52.9475 172.39L47.4357 170.956C46.8484 171.085 46.2611 171.213 45.6737 171.342L51.1404 172.776C51.6825 172.647 52.315 172.518 52.9475 172.39ZM47.3905 171.158L52.1343 172.371C51.7729 172.445 51.4566 172.518 51.0952 172.592L46.3966 171.36C46.758 171.287 47.0743 171.213 47.3905 171.158ZM156.633 190.846L164.133 191.618C164.449 191.452 164.811 191.287 165.127 191.103L157.627 190.294C157.356 190.478 156.995 190.662 156.633 190.846ZM164.449 191.195C164.359 191.25 164.268 191.287 164.133 191.342C164.088 191.379 164.042 191.397 163.952 191.434L157.311 190.754C157.446 190.68 157.627 190.588 157.763 190.496L164.449 191.195ZM159.253 189.338L167.069 189.926C167.341 189.743 167.612 189.577 167.837 189.393L160.022 188.787C159.75 188.952 159.525 189.154 159.253 189.338ZM167.205 189.504C167.16 189.54 167.069 189.577 167.024 189.632C166.979 189.669 166.889 189.706 166.844 189.743L159.886 189.21C160.022 189.118 160.112 189.044 160.247 188.952L167.205 189.504ZM161.151 187.757L169.193 188.143C169.374 187.96 169.599 187.776 169.735 187.592L161.648 187.169C161.467 187.39 161.332 187.574 161.151 187.757ZM161.919 187.371L169.148 187.757C169.103 187.794 169.057 187.831 169.012 187.886C168.967 187.923 168.922 187.96 168.877 187.996L161.648 187.647C161.784 187.537 161.829 187.463 161.919 187.371ZM153.38 192.279L160.519 193.235C160.925 193.07 161.332 192.923 161.738 192.757L154.645 191.783C154.239 191.93 153.832 192.114 153.38 192.279ZM161.015 192.812C160.835 192.886 160.654 192.941 160.519 193.015L160.473 193.033L154.193 192.187C154.419 192.096 154.6 192.022 154.781 191.93L161.015 192.812ZM162.326 186.158L170.503 186.36C170.593 186.176 170.729 185.993 170.774 185.79L162.597 185.57C162.506 185.772 162.416 185.974 162.326 186.158ZM162.913 185.754L170.277 185.956C170.232 186.011 170.232 186.085 170.187 186.14C170.187 186.158 170.187 186.176 170.142 186.195L162.777 186.011C162.823 185.919 162.868 185.846 162.913 185.754ZM145.067 194.871L151.212 196.158C151.754 196.011 152.296 195.882 152.838 195.735L146.784 194.43C146.197 194.577 145.655 194.724 145.067 194.871ZM152.025 195.735C151.754 195.809 151.483 195.882 151.212 195.956L145.926 194.853C146.242 194.779 146.513 194.706 146.784 194.614L152.025 195.735ZM149.54 193.621L156.181 194.743C156.678 194.596 157.13 194.449 157.582 194.283L150.986 193.143C150.534 193.309 150.037 193.474 149.54 193.621ZM156.814 194.338C156.588 194.412 156.362 194.485 156.091 194.559L150.263 193.585C150.534 193.493 150.76 193.419 150.986 193.346L156.814 194.338ZM146.468 174.026L152.477 172.739C151.935 172.592 151.392 172.463 150.85 172.316L144.751 173.585C145.338 173.732 145.926 173.879 146.468 174.026ZM151.709 172.721L146.513 173.842C146.242 173.768 145.926 173.695 145.609 173.603L150.85 172.5C151.166 172.592 151.438 172.647 151.709 172.721ZM162.777 184.54H171C171 184.357 171 184.173 171 183.971L162.777 183.952C162.777 184.136 162.823 184.338 162.777 184.54ZM170.593 184.136C170.593 184.21 170.593 184.301 170.593 184.375H163.184C163.184 184.283 163.184 184.21 163.184 184.118L170.593 184.136ZM154.465 176.71L161.512 175.735C161.106 175.57 160.699 175.404 160.293 175.239L153.2 176.176C153.606 176.36 154.058 176.526 154.465 176.71ZM160.157 175.441L160.247 175.478C160.428 175.533 160.564 175.607 160.744 175.68L154.555 176.526C154.374 176.452 154.148 176.36 153.922 176.268L160.157 175.441ZM150.76 175.312L157.356 174.173C156.904 174.026 156.407 173.86 155.91 173.713L149.269 174.835C149.766 175 150.263 175.165 150.76 175.312ZM156.543 174.136L150.805 175.129C150.579 175.055 150.308 174.963 150.037 174.89L155.82 173.915C156.091 173.989 156.317 174.062 156.543 174.136ZM157.492 178.18L164.991 177.39C164.675 177.224 164.314 177.04 163.952 176.875L156.452 177.647C156.814 177.812 157.175 177.996 157.492 178.18ZM163.997 177.132C164.088 177.187 164.223 177.224 164.314 177.279L157.672 177.978C157.492 177.886 157.356 177.812 157.175 177.721L163.817 177.04C163.862 177.077 163.907 177.114 163.997 177.132ZM162.552 182.904L170.729 182.702C170.639 182.518 170.548 182.335 170.413 182.132L162.235 182.316C162.371 182.518 162.461 182.721 162.552 182.904ZM170.096 182.316L170.142 182.371C170.187 182.426 170.232 182.5 170.232 182.555L162.868 182.739C162.823 182.647 162.777 182.555 162.732 182.482L170.096 182.316ZM159.886 179.706L167.702 179.099C167.476 178.915 167.16 178.75 166.889 178.566L159.118 179.136C159.389 179.338 159.615 179.522 159.886 179.706ZM166.844 178.86C166.889 178.897 166.979 178.952 167.024 178.989L160.067 179.522C159.931 179.43 159.841 179.357 159.705 179.265L166.663 178.75C166.753 178.787 166.798 178.824 166.844 178.86ZM161.558 181.287L169.645 180.882C169.509 180.699 169.238 180.515 169.057 180.331L161.061 180.717C161.241 180.901 161.422 181.103 161.558 181.287ZM168.786 180.515C168.831 180.551 168.877 180.588 168.922 180.643C168.967 180.68 169.012 180.717 169.057 180.754L161.829 181.121C161.738 181.029 161.693 180.956 161.603 180.864L168.786 180.515ZM80.0549 201.232C80.8229 201.268 81.591 201.324 82.4042 201.36L84.121 199.467C83.3078 199.43 82.4945 199.393 81.6813 199.338L80.0549 201.232ZM83.5788 199.614L82.1331 201.195C81.7717 201.176 81.4103 201.158 81.094 201.14C80.9133 201.121 80.7777 201.121 80.597 201.103L81.9524 199.54C82.5397 199.559 83.0819 199.596 83.5788 199.614ZM95.4609 199.761L95.5512 201.691C96.0482 201.691 96.5 201.691 96.997 201.691C97.3132 201.691 97.6295 201.691 97.9457 201.691V199.761C97.5843 199.761 97.2681 199.761 96.9066 199.761C96.4548 199.761 95.9579 199.761 95.4609 199.761ZM97.5391 201.526C97.3584 201.526 97.1777 201.526 96.997 201.526C96.6355 201.526 96.3193 201.526 95.9579 201.526L95.9127 199.926C96.2741 199.926 96.5904 199.926 96.9518 199.926C97.1777 199.926 97.3584 199.926 97.5843 199.926L97.5391 201.526ZM87.7353 201.562C88.5485 201.581 89.3166 201.618 90.1298 201.636L91.0334 199.706C90.2201 199.687 89.3617 199.669 88.5485 199.651L87.7353 201.562ZM90.5364 199.853L89.8135 201.452C89.4069 201.434 89.0003 201.434 88.5937 201.415C88.4582 201.415 88.3678 201.415 88.2323 201.397L88.8648 199.798C89.4069 199.835 89.9491 199.853 90.5364 199.853ZM72.5552 200.735C73.3232 200.79 74.0461 200.864 74.8141 200.919L77.3893 199.081C76.5761 199.026 75.8081 198.971 74.9949 198.897L72.5552 200.735ZM76.802 199.21L74.6786 200.735C74.3172 200.699 73.9106 200.68 73.5491 200.643C73.4588 200.625 73.3232 200.625 73.2329 200.607L75.3111 199.081C75.7629 199.118 76.2599 199.154 76.802 199.21ZM56.6974 196.581L51.9536 198.143C52.5861 198.254 53.2186 198.364 53.8963 198.474L58.7304 196.93C58.0528 196.82 57.3751 196.71 56.6974 196.581ZM53.8511 198.29C53.4897 198.235 53.0831 198.162 52.7217 198.107L56.7426 196.783C57.1492 196.857 57.5558 196.93 57.9172 196.985L53.8511 198.29ZM58.4142 199.173C59.0919 199.265 59.7696 199.375 60.4924 199.467L64.6037 197.812C63.8808 197.721 63.158 197.61 62.4351 197.518L58.4142 199.173ZM63.8808 197.868L60.4021 199.265C59.9955 199.21 59.5888 199.154 59.1822 199.099L62.5707 197.684C63.0224 197.757 63.4291 197.812 63.8808 197.868ZM65.3266 200.037C66.0494 200.11 66.7723 200.202 67.4952 200.276L70.8384 198.511C70.0703 198.437 69.3023 198.364 68.5343 198.272L65.3266 200.037ZM70.1607 198.621L67.3596 200.092C66.953 200.055 66.5464 200 66.1398 199.963C66.0946 199.963 66.0494 199.945 66.0042 199.945L68.7602 198.474C69.2119 198.511 69.6637 198.566 70.1607 198.621ZM122.523 198.566L125.911 200.331C126.634 200.257 127.357 200.165 128.08 200.092L124.782 198.327C124.059 198.401 123.291 198.474 122.523 198.566ZM127.312 200C126.905 200.037 126.499 200.092 126.092 200.129L123.246 198.658C123.743 198.603 124.195 198.566 124.692 198.511L127.493 200C127.402 200 127.357 200 127.312 200ZM128.758 197.849L132.914 199.522C133.592 199.43 134.315 199.338 134.992 199.228L130.926 197.555C130.203 197.665 129.481 197.757 128.758 197.849ZM133.005 199.338L129.481 197.923C129.887 197.868 130.339 197.812 130.791 197.739L134.224 199.154C133.863 199.21 133.456 199.283 133.005 199.338ZM134.631 196.985L139.51 198.529C140.143 198.419 140.821 198.309 141.453 198.199L136.664 196.636C135.986 196.765 135.309 196.875 134.631 196.985ZM139.556 198.364L135.399 197.04C135.76 196.985 136.167 196.912 136.574 196.838L140.64 198.18C140.278 198.235 139.917 198.29 139.556 198.364ZM140.098 195.993L145.609 197.426C146.197 197.298 146.784 197.169 147.371 197.04L141.905 195.607C141.317 195.735 140.73 195.864 140.098 195.993ZM145.655 197.224L140.911 196.011C141.272 195.937 141.589 195.864 141.95 195.79L146.649 197.022C146.287 197.096 145.926 197.169 145.655 197.224ZM51.3663 195.533L45.9448 196.967C46.5321 197.096 47.1195 197.224 47.752 197.353L53.2638 195.937C52.6313 195.809 51.9988 195.662 51.3663 195.533ZM47.7068 197.151C47.3905 197.077 47.0743 197.022 46.7129 196.949L51.3663 195.717C51.7277 195.79 52.044 195.864 52.4054 195.937L47.7068 197.151ZM109.286 199.504L111.093 201.397C111.861 201.36 112.629 201.305 113.442 201.268L111.77 199.375C110.912 199.412 110.099 199.467 109.286 199.504ZM112.358 201.158C111.996 201.176 111.68 201.195 111.319 201.213L109.828 199.632C110.325 199.614 110.867 199.577 111.454 199.559L112.855 201.14C112.674 201.14 112.539 201.14 112.358 201.158ZM47.9327 173.529L41.7884 172.243C41.2462 172.39 40.7041 172.518 40.1619 172.665L46.2159 173.971C46.8032 173.805 47.3905 173.658 47.9327 173.529ZM41.0203 172.647C41.2914 172.574 41.5625 172.5 41.8335 172.426L47.1195 173.529C46.8032 173.603 46.5321 173.676 46.2611 173.768L41.0203 172.647ZM102.418 199.706L103.367 201.636C104.18 201.618 104.948 201.599 105.762 201.562L104.948 199.651C104.045 199.669 103.232 199.687 102.418 199.706ZM104.858 201.434C104.451 201.452 104.045 201.452 103.638 201.471L102.87 199.871C103.458 199.853 104 199.853 104.542 199.835L105.22 201.434C105.129 201.434 104.994 201.434 104.858 201.434ZM116.017 199.118L118.638 200.956C119.406 200.901 120.129 200.827 120.897 200.772L118.367 198.934C117.599 198.989 116.785 199.044 116.017 199.118ZM119.948 200.68C119.586 200.717 119.225 200.735 118.818 200.772L116.65 199.228C117.192 199.191 117.689 199.154 118.186 199.118L120.264 200.643C120.174 200.662 120.038 200.662 119.948 200.68ZM31.8942 180.625L23.8523 180.221C23.6716 180.404 23.4457 180.588 23.3102 180.772L31.3972 181.195C31.5327 181.011 31.7135 180.809 31.8942 180.625ZM31.081 181.011L23.8523 180.625C23.8975 180.588 23.9427 180.551 23.9879 180.515C24.0331 180.478 24.0782 180.441 24.1234 180.404L31.352 180.754C31.2617 180.846 31.1713 180.937 31.081 181.011ZM33.7917 179.062L25.9757 178.474C25.7047 178.64 25.4336 178.824 25.2077 179.007L33.0237 179.614C33.2495 179.43 33.5206 179.246 33.7917 179.062ZM25.795 178.879C25.8402 178.842 25.9306 178.805 25.9757 178.75C26.0661 178.732 26.1113 178.695 26.1565 178.64L33.114 179.173C32.9785 179.265 32.8881 179.338 32.7526 179.43L25.795 178.879ZM30.6743 182.224L22.5421 182.022C22.4518 182.206 22.3163 182.39 22.2711 182.592L30.4485 182.812C30.4936 182.61 30.584 182.426 30.6743 182.224ZM30.087 182.629L22.7229 182.445C22.768 182.39 22.768 182.316 22.8132 182.261C22.8132 182.243 22.8132 182.224 22.8584 182.206L30.2226 182.39C30.1774 182.463 30.1322 182.555 30.087 182.629ZM39.6198 176.103L32.4815 175.147C32.0749 175.312 31.6683 175.46 31.2617 175.625L38.3548 176.618C38.7614 176.452 39.168 176.287 39.6198 176.103ZM32.0297 175.57C32.1653 175.515 32.346 175.441 32.4815 175.386L32.617 175.349L38.8969 176.195C38.671 176.287 38.4903 176.36 38.3096 176.452L32.0297 175.57ZM43.5052 174.761L36.8639 173.64C36.3669 173.787 35.9151 173.934 35.4633 174.099L42.0594 175.239C42.5112 175.074 43.0082 174.926 43.5052 174.761ZM36.1862 174.044C36.4121 173.971 36.638 173.897 36.909 173.824L42.7371 174.798C42.466 174.89 42.2401 174.963 42.0143 175.037L36.1862 174.044ZM30.2226 183.86H22C22 184.044 22 184.228 22 184.43L30.2226 184.449C30.2226 184.246 30.2226 184.044 30.2226 183.86ZM22.4066 184.265C22.4066 184.191 22.4066 184.099 22.4066 184.026H29.8159C29.8159 184.118 29.8159 184.191 29.8159 184.283L22.4066 184.265ZM36.3669 177.555L28.8672 176.783C28.5509 176.949 28.1895 177.114 27.8733 177.298L35.373 178.088C35.6892 177.904 36.0055 177.721 36.3669 177.555ZM28.5509 177.187C28.6413 177.132 28.7317 177.096 28.8672 177.04C28.9124 177.022 28.9576 176.985 29.0479 176.949L35.6892 177.629C35.5537 177.702 35.373 177.794 35.2374 177.886L28.5509 177.187ZM46.5321 194.357L40.5233 195.643C41.0655 195.79 41.6076 195.919 42.1498 196.066L48.2489 194.798C47.6616 194.651 47.1195 194.504 46.5321 194.357ZM41.2914 195.662L46.487 194.54C46.758 194.614 47.0743 194.687 47.3905 194.779L42.1498 195.882C41.8787 195.809 41.5625 195.735 41.2914 195.662ZM38.5807 191.691L31.4876 192.647C31.8942 192.812 32.3008 192.978 32.7074 193.143L39.8005 192.206C39.3939 192.022 38.9873 191.857 38.5807 191.691ZM32.8429 192.96L32.7978 192.941C32.617 192.868 32.4363 192.794 32.2556 192.739L38.4451 191.893C38.6258 191.967 38.8517 192.059 39.0776 192.151L32.8429 192.96ZM35.5085 190.221L28.0088 191.011C28.325 191.176 28.6865 191.36 29.0479 191.526L36.5476 190.754C36.1862 190.57 35.8247 190.386 35.5085 190.221ZM29.0027 191.232C28.9124 191.176 28.822 191.14 28.7317 191.085L35.373 190.386C35.5537 190.478 35.6892 190.551 35.8699 190.643L29.2286 191.342C29.1383 191.305 29.0931 191.268 29.0027 191.232ZM42.2401 193.07L35.644 194.21C36.0958 194.357 36.5928 194.522 37.0898 194.669L43.7311 193.548C43.2341 193.382 42.7371 193.235 42.2401 193.07ZM36.4572 194.246L42.195 193.254C42.4209 193.327 42.6919 193.419 42.963 193.493L37.1801 194.467C36.9542 194.393 36.6831 194.32 36.4572 194.246ZM33.114 188.676L25.2981 189.283C25.524 189.467 25.8402 189.632 26.1113 189.816L33.8821 189.246C33.6562 189.062 33.3851 188.86 33.114 188.676ZM26.1565 189.522C26.0661 189.485 26.0209 189.43 25.9757 189.393L32.9333 188.86C33.0688 188.952 33.1592 189.026 33.2947 189.118L26.3372 189.632C26.2468 189.596 26.2016 189.559 26.1565 189.522ZM31.4424 187.096L23.3554 187.5C23.4909 187.684 23.762 187.868 23.9427 188.051L31.9394 187.665C31.8038 187.482 31.6231 187.279 31.4424 187.096ZM24.2138 187.886C24.1686 187.849 24.1234 187.812 24.0782 187.776C24.0331 187.739 23.9879 187.702 23.9427 187.665L31.1713 187.298C31.2617 187.39 31.3069 187.463 31.3972 187.555L24.2138 187.886ZM30.4936 185.478L22.3163 185.68C22.4066 185.864 22.497 186.048 22.6325 186.25L30.8099 186.066C30.6292 185.864 30.5388 185.68 30.4936 185.478ZM22.9036 186.085C22.9036 186.066 22.8584 186.048 22.8584 186.029C22.8132 185.974 22.768 185.919 22.768 185.846L30.1322 185.662C30.1774 185.754 30.2226 185.827 30.2677 185.919L22.9036 186.085Z" fill="url(#paint15_radial)"/>
<path opacity="0.2" d="M105.265 166.82C104.451 166.801 103.683 166.765 102.87 166.746L101.967 168.676C102.78 168.695 103.638 168.713 104.451 168.732L105.265 166.82ZM102.464 168.529L103.186 166.93C103.593 166.949 104 166.949 104.406 166.967C104.542 166.967 104.677 166.967 104.813 166.985L104.18 168.585C103.593 168.548 103.051 168.548 102.464 168.529ZM134.586 169.21C133.908 169.118 133.23 169.007 132.508 168.915L128.396 170.57C129.119 170.662 129.842 170.772 130.565 170.864L134.586 169.21ZM129.119 170.515L132.598 169.118C133.004 169.173 133.411 169.228 133.818 169.283L130.429 170.699C129.977 170.625 129.571 170.57 129.119 170.515ZM127.673 168.346C126.951 168.272 126.228 168.18 125.505 168.107L122.162 169.871C122.93 169.945 123.698 170.018 124.466 170.11L127.673 168.346ZM122.839 169.761L125.64 168.29C126.047 168.327 126.454 168.382 126.815 168.419C126.86 168.419 126.905 168.437 126.996 168.437L124.24 169.908C123.788 169.871 123.336 169.816 122.839 169.761ZM64.2422 170.533L60.0857 168.86C59.4081 168.952 58.6852 169.044 58.0075 169.154L62.0736 170.827C62.7965 170.735 63.5193 170.625 64.2422 170.533ZM59.9954 169.062L63.5193 170.478C63.1127 170.533 62.6609 170.588 62.2091 170.662L58.7755 169.246C59.1822 169.173 59.5888 169.118 59.9954 169.062ZM83.7595 168.897L81.9523 167.004C81.1843 167.04 80.4162 167.096 79.603 167.132L81.2746 169.026C82.133 168.971 82.9463 168.934 83.7595 168.897ZM80.6421 167.224C81.0036 167.206 81.3198 167.187 81.6812 167.169L83.1721 168.75C82.6752 168.768 82.133 168.805 81.5457 168.824L80.1452 167.243C80.3259 167.261 80.4614 167.243 80.6421 167.224ZM52.9475 172.39L47.4356 170.956C46.8483 171.085 46.261 171.213 45.6737 171.342L51.1403 172.776C51.6825 172.647 52.315 172.518 52.9475 172.39ZM47.3905 171.158L52.1342 172.371C51.7728 172.445 51.4566 172.518 51.0951 172.592L46.3965 171.36C46.758 171.287 47.0742 171.213 47.3905 171.158ZM159.253 189.338L167.069 189.926C167.34 189.743 167.612 189.577 167.837 189.393L160.021 188.787C159.75 188.952 159.524 189.154 159.253 189.338ZM167.205 189.504C167.16 189.54 167.069 189.577 167.024 189.632C166.979 189.669 166.889 189.706 166.843 189.743L159.886 189.21C160.021 189.118 160.112 189.044 160.247 188.952L167.205 189.504ZM162.326 186.158L170.503 186.36C170.593 186.176 170.729 185.993 170.774 185.79L162.597 185.57C162.506 185.772 162.416 185.974 162.326 186.158ZM162.913 185.754L170.277 185.956C170.232 186.011 170.232 186.085 170.187 186.14C170.187 186.158 170.187 186.176 170.142 186.195L162.777 186.011C162.823 185.919 162.868 185.846 162.913 185.754ZM145.067 194.871L151.212 196.158C151.754 196.011 152.296 195.882 152.838 195.735L146.784 194.43C146.197 194.577 145.655 194.724 145.067 194.871ZM152.025 195.735C151.754 195.809 151.483 195.882 151.212 195.956L145.926 194.853C146.242 194.779 146.513 194.706 146.784 194.614L152.025 195.735ZM149.54 193.621L156.181 194.743C156.678 194.596 157.13 194.449 157.582 194.283L150.986 193.143C150.534 193.309 150.037 193.474 149.54 193.621ZM156.814 194.338C156.588 194.412 156.362 194.485 156.091 194.559L150.263 193.585C150.534 193.493 150.76 193.419 150.986 193.346L156.814 194.338ZM154.464 176.71L161.512 175.735C161.106 175.57 160.699 175.404 160.293 175.239L153.199 176.176C153.606 176.36 154.058 176.526 154.464 176.71ZM160.157 175.441L160.247 175.478C160.428 175.533 160.564 175.607 160.744 175.68L154.555 176.526C154.374 176.452 154.148 176.36 153.922 176.268L160.157 175.441ZM161.558 181.287L169.645 180.882C169.509 180.699 169.238 180.515 169.057 180.331L161.061 180.717C161.241 180.901 161.422 181.103 161.558 181.287ZM168.786 180.515C168.831 180.551 168.877 180.588 168.922 180.643C168.967 180.68 169.012 180.717 169.057 180.754L161.829 181.121C161.738 181.029 161.693 180.956 161.603 180.864L168.786 180.515ZM80.0548 201.232C80.8228 201.268 81.5909 201.324 82.4041 201.36L84.1209 199.467C83.3077 199.43 82.4945 199.393 81.6812 199.338L80.0548 201.232ZM83.5788 199.614L82.133 201.195C81.7716 201.176 81.4102 201.158 81.0939 201.14C80.9132 201.121 80.7777 201.121 80.597 201.103L81.9523 199.54C82.5396 199.559 83.0818 199.596 83.5788 199.614ZM65.3265 200.037C66.0494 200.11 66.7722 200.202 67.4951 200.276L70.8383 198.511C70.0703 198.437 69.3022 198.364 68.5342 198.272L65.3265 200.037ZM70.1606 198.621L67.3595 200.092C66.9529 200.055 66.5463 200 66.1397 199.963C66.0945 199.963 66.0494 199.945 66.0042 199.945L68.7601 198.474C69.2119 198.511 69.6637 198.566 70.1606 198.621ZM128.758 197.849L132.914 199.522C133.592 199.43 134.315 199.338 134.992 199.228L130.926 197.555C130.203 197.665 129.481 197.757 128.758 197.849ZM133.004 199.338L129.481 197.923C129.887 197.868 130.339 197.812 130.791 197.739L134.224 199.154C133.863 199.21 133.456 199.283 133.004 199.338ZM51.3662 195.533L45.9447 196.967C46.5321 197.096 47.1194 197.224 47.7519 197.353L53.2637 195.937C52.6312 195.809 51.9987 195.662 51.3662 195.533ZM47.7067 197.151C47.3905 197.077 47.0742 197.022 46.7128 196.949L51.3662 195.717C51.7276 195.79 52.0439 195.864 52.4053 195.937L47.7067 197.151ZM109.286 199.504L111.093 201.397C111.861 201.36 112.629 201.305 113.442 201.268L111.77 199.375C110.912 199.412 110.099 199.467 109.286 199.504ZM112.358 201.158C111.996 201.176 111.68 201.195 111.319 201.213L109.828 199.632C110.325 199.614 110.867 199.577 111.454 199.559L112.855 201.14C112.674 201.14 112.538 201.14 112.358 201.158ZM102.418 199.706L103.367 201.636C104.18 201.618 104.948 201.599 105.762 201.562L104.948 199.651C104.045 199.669 103.232 199.687 102.418 199.706ZM104.858 201.434C104.451 201.452 104.045 201.452 103.638 201.471L102.87 199.871C103.457 199.853 104 199.853 104.542 199.835L105.219 201.434C105.129 201.434 104.994 201.434 104.858 201.434ZM30.6743 182.224L22.5421 182.022C22.4517 182.206 22.3162 182.39 22.271 182.592L30.4484 182.812C30.4936 182.61 30.5839 182.426 30.6743 182.224ZM30.0869 182.629L22.7228 182.445C22.768 182.39 22.768 182.316 22.8131 182.261C22.8131 182.243 22.8131 182.224 22.8583 182.206L30.2225 182.39C30.1773 182.463 30.1321 182.555 30.0869 182.629ZM39.6197 176.103L32.4814 175.147C32.0748 175.312 31.6682 175.46 31.2616 175.625L38.3547 176.618C38.7613 176.452 39.1679 176.287 39.6197 176.103ZM32.0296 175.57C32.1652 175.515 32.3459 175.441 32.4814 175.386L32.617 175.349L38.8968 176.195C38.6709 176.287 38.4902 176.36 38.3095 176.452L32.0296 175.57ZM36.3668 177.555L28.8671 176.783C28.5509 176.949 28.1894 177.114 27.8732 177.298L35.3729 178.088C35.6891 177.904 36.0054 177.721 36.3668 177.555ZM28.5509 177.187C28.6412 177.132 28.7316 177.096 28.8671 177.04C28.9123 177.022 28.9575 176.985 29.0478 176.949L35.6891 177.629C35.5536 177.702 35.3729 177.794 35.2373 177.886L28.5509 177.187ZM38.5806 191.691L31.4875 192.647C31.8941 192.812 32.3007 192.978 32.7073 193.143L39.8004 192.206C39.3938 192.022 38.9872 191.857 38.5806 191.691ZM32.8429 192.96L32.7977 192.941C32.617 192.868 32.4362 192.794 32.2555 192.739L38.445 191.893C38.6258 191.967 38.8517 192.059 39.0775 192.151L32.8429 192.96ZM33.1139 188.676L25.298 189.283C25.5239 189.467 25.8401 189.632 26.1112 189.816L33.882 189.246C33.6561 189.062 33.385 188.86 33.1139 188.676ZM26.1564 189.522C26.066 189.485 26.0208 189.43 25.9757 189.393L32.9332 188.86C33.0688 188.952 33.1591 189.026 33.2946 189.118L26.3371 189.632C26.2467 189.596 26.2016 189.559 26.1564 189.522ZM31.4423 187.096L23.3553 187.5C23.4908 187.684 23.7619 187.868 23.9426 188.051L31.9393 187.665C31.8037 187.482 31.623 187.279 31.4423 187.096ZM24.2137 187.886C24.1685 187.849 24.1233 187.812 24.0782 187.776C24.033 187.739 23.9878 187.702 23.9426 187.665L31.1712 187.298C31.2616 187.39 31.3068 187.463 31.3971 187.555L24.2137 187.886Z" fill="url(#paint16_radial)"/>
<g opacity="0.2">
<g opacity="0.2">
<path opacity="0.2" d="M138.381 184.338C138.291 186.654 134.812 188.787 128.938 190.46L131.333 190.937C138.11 189.007 141.408 186.838 141.498 184.338H138.381Z" fill="url(#paint17_radial)"/>
</g>
</g>
<path opacity="0.6" d="M104.451 194.632C114.617 194.21 123.924 192.96 130.746 191.085L128.351 190.607C120.671 192.702 109.331 194.026 96.5903 194.026C89.1358 194.026 82.133 193.548 76.0339 192.739L74.4978 193.364C83.6691 194.614 94.2862 195.055 104.451 194.632Z" fill="url(#paint18_radial)"/>
<path opacity="0.3" d="M54.6192 184.173C54.5288 178.75 73.2781 174.357 96.3645 174.357C98.6686 174.357 100.973 174.412 103.187 174.485L103.729 173.75C95.7772 173.437 88.5485 173.585 80.9585 174.228C63.2484 175.754 51.4115 179.724 51.4567 184.154C51.4567 185.349 52.3603 186.526 54.077 187.665L57.0137 187.426C55.4776 186.415 54.6192 185.313 54.6192 184.173Z" fill="url(#paint19_radial)"/>
<path opacity="0.2" d="M57.3299 187.629L54.3933 187.868C58.1432 190.221 64.4682 191.985 73.6847 193.272L75.2208 192.647C67.1338 191.507 60.7184 189.743 57.3299 187.629Z" fill="url(#paint20_radial)"/>
<path opacity="0.5" d="M138.381 184.118H141.498C141.363 181.654 137.613 179.265 130.972 177.408C124.285 175.551 114.978 174.265 104.632 173.805L104.09 174.54C123.381 175.386 138.065 179.357 138.381 184.118Z" fill="url(#paint21_radial)"/>
</g>
</g>
<path opacity="0.3" d="M96.5 194.691C126.6 194.691 151 189.766 151 183.691C151 177.616 126.6 172.691 96.5 172.691C66.4005 172.691 42 177.616 42 183.691C42 189.766 66.4005 194.691 96.5 194.691Z" fill="url(#paint22_radial)"/>
<g filter="url(#filter1_df)">
<ellipse cx="94" cy="102.691" rx="33" ry="52" fill="#C032B7"/>
</g>
<path d="M118.605 92.9091L110.423 43.9273L111.074 43.6545L110.098 43.1091C109.882 43 109.611 43 109.34 43.1636L43.8335 81.2364C43.2916 81.5636 42.9124 82.3273 42.9666 82.9273L51.2564 132.291C51.3106 132.564 51.419 132.727 51.5815 132.782L52.5568 133.327L52.7193 132.4H52.6652L117.738 94.6C118.28 94.2727 118.713 93.4545 118.605 92.9091Z" fill="url(#paint23_linear)"/>
<path d="M44.1587 82.5454L43.0751 82.0545C42.9667 82.3273 42.9125 82.6 42.9125 82.8727L51.2024 132.236C51.2566 132.509 51.365 132.673 51.5275 132.727L52.5028 133.273L52.6653 132.345H52.6112L55.9163 130.436L44.1587 82.5454Z" fill="#3A9BD5"/>
<path d="M118.767 95.1454L53.2612 133.273C52.7736 133.545 52.3401 133.382 52.2318 132.891L43.9419 83.5273C43.8335 82.9818 44.267 82.1636 44.8088 81.8364L110.315 43.7091C110.803 43.4364 111.236 43.6 111.345 44.0909L119.634 93.5091C119.743 94.0545 119.309 94.8727 118.767 95.1454Z" fill="url(#paint24_linear)"/>
<path d="M118.767 95.1454L53.2612 133.273C52.7736 133.545 52.3401 133.382 52.2318 132.891L43.9419 83.5273C43.8335 82.9818 44.267 82.1636 44.8088 81.8364L110.315 43.7091C110.803 43.4364 111.236 43.6 111.345 44.0909L119.634 93.5091C119.743 94.0545 119.309 94.8727 118.767 95.1454Z" fill="url(#paint25_linear)"/>
<path d="M110.207 46.4364L45.513 84.0727L53.3153 130.545L118.009 92.9636L110.207 46.4364Z" fill="#1D0B3E"/>
<path d="M159.946 118.545L156.37 120.4L120.501 99.5636C119.905 99.2363 118.876 99.2363 118.171 99.6727L56.3495 135.618C55.7534 135.291 53.0443 133.982 53.0443 133.982L54.3447 137.418C54.3989 137.582 54.5073 137.691 54.724 137.8L92.489 159.727C93.085 160.054 94.1144 160.054 94.8188 159.618L158.104 122.909C158.375 122.745 158.537 122.527 158.645 122.364L159.946 118.545Z" fill="#0E0631"/>
<path d="M159.404 119.145L94.5479 156.836C93.8435 157.273 92.7599 157.273 92.1639 156.945L53.4778 134.473C52.8818 134.091 52.936 133.491 53.6404 133.055L118.496 95.3636C119.201 94.9273 120.284 94.9273 120.88 95.2545L159.567 117.727C160.217 118.109 160.108 118.709 159.404 119.145Z" fill="#28104E"/>
<path d="M159.404 118.491L94.548 156.182C93.8436 156.618 92.76 156.618 92.164 156.291L53.4779 133.818C53.3153 133.709 53.207 133.655 53.1528 133.545C52.9361 133.873 53.0444 134.255 53.4779 134.473L92.164 156.945C92.76 157.327 93.8436 157.273 94.548 156.836L159.404 119.145C159.946 118.818 160.108 118.382 159.892 118.055C159.838 118.218 159.621 118.327 159.404 118.491Z" fill="url(#paint26_linear)"/>
<g opacity="0.11">
<g opacity="0.11">
<path opacity="0.11" d="M118.388 95.3091L46.2175 137.255C45.4047 137.691 44.2127 137.745 43.5626 137.364L0.487717 112.327C-0.216652 111.945 -0.108299 111.236 0.704437 110.8L72.8209 68.8C73.6337 68.3636 74.8257 68.3091 75.4758 68.6909L118.605 93.7272C119.255 94.1636 119.201 94.8182 118.388 95.3091Z" fill="url(#paint27_linear)"/>
<g opacity="0.11">
<g opacity="0.11">
<path opacity="0.11" d="M102.567 94.2181L50.281 124.6L52.3941 125.8L104.626 95.4727L102.567 94.2181Z" fill="url(#paint28_radial)"/>
<path opacity="0.11" d="M97.0944 91.0545L47.4093 119.909L49.4683 121.109L99.1533 92.2545L97.0944 91.0545Z" fill="url(#paint29_radial)"/>
<g opacity="0.11">
<path opacity="0.11" d="M43.6708 122.091L39.0653 124.764L41.1243 125.964L45.7297 123.291L43.6708 122.091Z" fill="#6EE1F8"/>
</g>
<g opacity="0.11">
<path opacity="0.11" d="M47.7887 126.073L44.5378 127.982L46.5967 129.182L49.8477 127.273L47.7887 126.073Z" fill="#6EE1F8"/>
</g>
<path opacity="0.11" d="M93.6269 89.0363L35.5977 122.745L37.6567 123.945L95.6858 90.2363L93.6269 89.0363Z" fill="url(#paint30_radial)"/>
<path opacity="0.11" d="M90.1591 87.0181L32.13 120.782L34.1889 121.982L92.218 88.2181L90.1591 87.0181Z" fill="url(#paint31_radial)"/>
<path opacity="0.11" d="M86.6913 85L28.6622 118.764L30.7753 119.964L88.8044 86.2545L86.6913 85Z" fill="url(#paint32_radial)"/>
</g>
</g>
</g>
</g>
<path d="M119.634 104.091L73.796 130.764C73.471 130.982 73.0375 130.982 72.7124 130.764L71.5746 130.109C71.412 130 71.412 129.727 71.5746 129.618L117.413 102.945C117.738 102.727 118.171 102.727 118.496 102.945L119.634 103.6C119.797 103.709 119.797 103.982 119.634 104.091Z" fill="url(#paint33_linear)"/>
<path d="M124.727 107.036L81.7609 132.018C81.4358 132.236 81.0023 132.236 80.6772 132.018L79.5394 131.364C79.3768 131.255 79.3768 130.982 79.5394 130.873L122.506 105.891C122.831 105.673 123.264 105.673 123.59 105.891L124.727 106.545C124.944 106.655 124.944 106.927 124.727 107.036Z" fill="url(#paint34_linear)"/>
<path d="M128.033 108.945L77.318 138.455C76.9929 138.673 76.5594 138.673 76.2344 138.455L75.0965 137.8C74.934 137.691 74.934 137.418 75.0965 137.309L125.865 107.855C126.19 107.636 126.624 107.636 126.949 107.855L128.033 108.455C128.249 108.564 128.249 108.836 128.033 108.945Z" fill="url(#paint35_linear)"/>
<path d="M131.392 110.909L80.6772 140.418C80.3521 140.636 79.9187 140.636 79.5936 140.418L78.4557 139.764C78.2932 139.655 78.2932 139.382 78.4557 139.273L129.17 109.764C129.495 109.545 129.929 109.545 130.254 109.764L131.392 110.418C131.554 110.527 131.554 110.8 131.392 110.909Z" fill="url(#paint36_linear)"/>
<path d="M134.697 112.818L83.9823 142.327C83.6572 142.545 83.2237 142.545 82.8987 142.327L81.7608 141.673C81.5983 141.564 81.5983 141.291 81.7608 141.182L132.475 111.673C132.8 111.455 133.234 111.455 133.559 111.673L134.697 112.327C134.914 112.436 134.914 112.709 134.697 112.818Z" fill="url(#paint37_linear)"/>
<path d="M70.0033 132.945L68.8655 133.6C68.5404 133.818 68.107 133.818 67.7819 133.6L66.644 132.945C66.4815 132.836 66.4815 132.564 66.644 132.455L67.7819 131.8C68.107 131.582 68.5404 131.582 68.8655 131.8L70.0033 132.455C70.1659 132.564 70.1659 132.836 70.0033 132.945Z" fill="url(#paint38_linear)"/>
<path d="M77.3179 134.582L73.9586 136.545C73.6335 136.764 73.2001 136.764 72.875 136.545L71.7372 135.891C71.5746 135.782 71.5746 135.509 71.7372 135.4L75.0965 133.436C75.4216 133.218 75.855 133.218 76.1801 133.436L77.3179 134.091C77.5347 134.2 77.5347 134.473 77.3179 134.582Z" fill="url(#paint39_linear)"/>
<g filter="url(#filter2_d)">
<ellipse cx="83.6173" cy="88.3105" rx="7.48986" ry="12.9627" fill="url(#paint40_radial)"/>
</g>
<g filter="url(#filter3_d)">
<path d="M91.4159 93.1174C91.5413 92.4928 91.8168 92.0223 92.145 91.7777L94.3086 92.2202L92.3092 89.9456C92.0435 89.5411 91.8667 88.9564 91.8504 88.2861C91.8409 87.6198 91.9933 87.0112 92.2527 86.5831L93.4017 85.0561L92.0202 84.7735C91.6857 84.5611 91.3977 84.1173 91.2481 83.51C91.0985 82.9026 91.1115 82.2368 91.2613 81.6785L92.4707 79.2798L90.6667 80.1322C90.3106 80.1401 89.9492 79.9116 89.6772 79.4255C89.4119 78.9435 89.2804 78.3211 89.2976 77.7096L89.3508 75.9797L88.4184 76.6413C88.0858 76.8703 87.7004 76.8737 87.3483 76.5989C86.9962 76.3241 86.7513 75.8155 86.6354 75.2282L86.2754 74.2004L85.6015 74.78C85.3421 75.2082 84.9846 75.4483 84.6018 75.4014C84.2167 75.366 83.8829 75.0374 83.6536 74.5639L83.1234 72.3871L82.5886 74.7966C82.4388 75.3549 82.1522 75.8057 81.7882 76.0031C81.4242 76.2006 81.0349 76.1109 80.7257 75.8099L79.8498 74.9508L79.7808 76.6842C79.7546 77.3032 79.591 77.8922 79.2888 78.3078C78.9866 78.7234 78.6162 78.8781 78.2584 78.7813L77.2415 78.5117L77.5426 80.1678C77.6494 80.7626 77.6162 81.4164 77.4257 81.9893C77.2353 82.5622 76.9175 82.9426 76.5675 83.0706L75.5849 83.4561L76.21 84.8133C76.4302 85.2944 76.5435 85.9319 76.4811 86.5811C76.4253 87.2344 76.2079 87.7912 75.9062 88.1294L75.0711 89.0951L75.9424 89.9774C76.2493 90.2899 76.4827 90.8177 76.5712 91.4663C76.653 92.1109 76.5947 93.4534 76.3866 93.964L76.1141 94.9529L76.7801 94.9716C77.1378 95.0683 77.4602 95.416 77.6799 95.9745C77.8929 96.529 77.9498 97.1847 77.8607 97.7791L77.76 99.2403L78.6054 99.104C78.9554 98.976 79.3377 99.1004 79.6532 99.4828C79.9686 99.8652 80.7026 99.9018 80.7463 100.511L80.3342 102.777L81.1804 101.831C81.4822 101.493 81.8615 101.37 82.2345 101.54C82.6099 101.699 82.9093 102.124 83.0796 102.666L83.5662 104.187L84.1583 102.778C84.3641 102.279 84.6907 101.93 85.0765 101.849C85.4623 101.769 85.8284 101.974 86.1032 102.371L86.8739 103.491L87.1273 101.816C87.2165 101.221 87.4451 100.684 87.7872 100.37C88.1294 100.056 88.5126 100.026 88.8494 100.226L89.9745 100.934L89.6856 99.0672C89.642 98.4582 89.7472 97.8215 89.9936 97.3079C90.2445 96.8099 90.5931 96.5385 90.9539 96.5076L92.3188 97.3918L91.493 94.912C91.3248 94.3973 91.2904 93.7421 91.4159 93.1174ZM89.8633 96.4873C87.3719 101.607 82.0452 103.368 79.0671 99.0794C76.089 94.7905 75.0511 85.288 77.5426 80.1678C78.5628 78.0665 80.1697 76.7178 81.9161 76.1553C83.0525 75.7893 84.2479 75.7561 85.3792 76.065C86.7394 76.4365 88.0069 77.3026 88.9674 78.6793C91.9455 82.9682 92.3457 91.3747 89.8633 96.4873Z" fill="url(#paint41_linear)"/>
<path d="M83.053 75.6473L83.2439 72.3661L83.6327 75.5971L83.053 75.6473Z" fill="url(#paint42_linear)"/>
<path d="M79.3937 77.9648L78.2584 71.8889L80.1051 77.0628L79.3937 77.9648Z" fill="url(#paint43_linear)"/>
<path d="M78.3965 79.4343L77.297 76.7055L78.8011 78.7655L78.3965 79.4343Z" fill="url(#paint44_linear)"/>
<path d="M76.3044 85.9382L73.6471 84.3305L76.2608 84.3121L76.3044 85.9382Z" fill="url(#paint45_linear)"/>
<path d="M76.217 86.6526L75.3308 84.7735L76.2858 85.6741L76.217 86.6526Z" fill="url(#paint46_linear)"/>
<path d="M76.3891 90.9437L74.4645 91.1925L76.2597 89.958L76.3891 90.9437Z" fill="url(#paint47_linear)"/>
<path d="M78.0984 97.1644L76.5712 98.1276L77.5622 95.8609L78.0984 97.1644Z" fill="url(#paint48_linear)"/>
<path d="M80.1998 99.8212L79.14 102.666L79.7435 99.2466L80.1998 99.8212Z" fill="url(#paint49_linear)"/>
<path d="M81.8377 101.14L81.0127 104.117L81.2818 100.852L81.8377 101.14Z" fill="url(#paint50_linear)"/>
<path d="M82.9001 101.501L82.2345 103.9L82.3323 101.382L82.9001 101.501Z" fill="url(#paint51_linear)"/>
<path d="M87.544 100.573L88.0354 103.757L87.0213 100.943L87.544 100.573Z" fill="url(#paint52_linear)"/>
<path d="M89.8286 97.2862L89.9745 99.4718L89.4044 97.9509L89.8286 97.2862Z" fill="url(#paint53_linear)"/>
<path d="M89.8602 95.8164L91.6353 97.7791L89.3199 96.9637L89.8602 95.8164Z" fill="url(#paint54_linear)"/>
<path d="M91.5069 91.4613L94.7654 94.1365L91.3403 92.4194L91.5069 91.4613Z" fill="url(#paint55_linear)"/>
<path d="M91.2669 89.6526L93.0937 90.5131L91.1981 90.6311L91.2669 89.6526Z" fill="url(#paint56_linear)"/>
<path d="M91.6353 87.0354L93.5409 87.2756L91.6832 88.0106L91.6353 87.0354Z" fill="url(#paint57_linear)"/>
<path d="M90.3871 82.5176L93.8678 80.5482L90.7943 83.9391L90.3871 82.5176Z" fill="url(#paint58_linear)"/>
<path d="M90.5921 80.6853L92.3381 79.3036L90.9119 81.5052L90.5921 80.6853Z" fill="url(#paint59_linear)"/>
<path d="M88.0452 76.998L89.4197 74.6829L88.4991 77.6063L88.0452 76.998Z" fill="url(#paint60_linear)"/>
<path d="M85.4196 75.7438L87.3124 69.5546L86.5755 76.4915L85.4196 75.7438Z" fill="url(#paint61_linear)"/>
<path fill-rule="evenodd" clip-rule="evenodd" d="M93.5695 90.5218C93.1503 90.6497 92.729 90.7782 92.3272 91.0172C91.4523 91.5421 91.3257 92.8222 92.0155 93.8523C92.0544 93.9083 92.0903 93.9721 92.1315 94.0452C92.1506 94.0791 92.1709 94.1151 92.193 94.1531C92.1031 94.1501 92.0162 94.1442 91.9316 94.1386C91.7399 94.1257 91.56 94.1137 91.3829 94.1365C91.0863 94.1707 90.9733 94.4086 91.0507 94.9052C91.0999 95.2093 91.1862 95.5011 91.2719 95.7912C91.3029 95.8962 91.3339 96.001 91.363 96.1061C91.4014 96.2364 91.4454 96.3646 91.4989 96.5203C91.5346 96.624 91.5745 96.7401 91.6196 96.877C91.5159 96.8577 91.4196 96.8409 91.3282 96.825C91.1586 96.7954 91.0058 96.7688 90.8536 96.7347C90.4149 96.6442 90.0454 96.8524 89.7457 97.4306C89.5281 97.8545 89.311 98.2695 89.0796 98.664C88.9229 98.9385 88.8781 99.2427 88.9388 99.5933C88.9778 99.8131 89.0164 100.033 89.0551 100.254L89.0553 100.255C89.1872 101.006 89.3194 101.759 89.4645 102.504C89.5564 102.978 89.6664 103.438 89.7765 103.899C89.8256 104.105 89.8748 104.31 89.9223 104.517L89.8697 104.615C89.8349 104.567 89.7987 104.52 89.7626 104.474C89.6903 104.381 89.6181 104.288 89.5559 104.181C89.3414 103.807 89.1292 103.427 88.9169 103.046C88.6358 102.543 88.3545 102.038 88.0674 101.548C87.3255 100.276 85.9092 100.7 85.4939 102.301C85.4529 102.464 85.4279 102.636 85.403 102.807C85.3862 102.923 85.3694 103.038 85.3479 103.149C85.3088 103.342 85.2641 103.534 85.2086 103.771C85.1897 103.852 85.1696 103.938 85.148 104.032C85.1217 103.983 85.0971 103.937 85.0739 103.894C84.9707 103.702 84.8949 103.561 84.8202 103.408C84.7517 103.268 84.685 103.124 84.6184 102.98C84.4756 102.672 84.3331 102.365 84.1741 102.092C83.9596 101.722 83.7947 101.798 83.6468 102.262C83.5639 102.514 83.4855 102.776 83.3873 103.106L83.3694 103.002L83.3536 102.909C83.3131 102.671 83.2796 102.474 83.243 102.276C83.0867 101.47 82.7199 101.223 82.3584 101.799C81.8882 102.542 81.4449 103.353 81.0402 104.206C80.8198 104.665 80.6368 105.175 80.4534 105.685C80.3748 105.904 80.2961 106.123 80.2144 106.338C80.1777 106.43 80.1359 106.52 80.0941 106.611C80.0813 106.608 80.07 106.604 80.0586 106.6C80.0473 106.595 80.0359 106.591 80.0231 106.589L80.0502 106.156C80.0785 105.622 80.1072 105.09 80.1359 104.558C80.1938 103.485 80.2517 102.413 80.3052 101.337C80.3513 100.435 80.1892 99.8067 79.8077 99.6287C79.5766 99.5232 79.2958 99.5514 79.0607 99.6774C78.6624 99.8874 77.9944 100.354 77.5191 100.686L77.5182 100.687L77.5162 100.688C77.4696 100.721 77.425 100.752 77.3826 100.781C77.4228 100.363 77.557 99.9077 77.6857 99.4718C77.7943 99.1038 77.8988 98.7494 77.9393 98.4422C78.142 96.8548 77.5565 95.478 76.6164 95.3926C76.3514 95.3711 76.0862 95.353 75.81 95.3342C75.6415 95.3227 75.4686 95.3108 75.2894 95.2978C75.3177 95.2157 75.345 95.1366 75.3717 95.0593C75.4759 94.7574 75.5714 94.4805 75.6874 94.1396C75.288 94.2143 74.8998 94.286 74.5174 94.3566L74.5164 94.3568L74.5149 94.3571C74.0271 94.4471 73.5487 94.5354 73.0686 94.6262C73.0606 94.589 73.052 94.5606 73.0435 94.5322L73.9946 93.45C74.2192 93.1933 74.4445 92.9381 74.6697 92.6832L74.6704 92.6823C74.9973 92.3123 75.3237 91.9427 75.6467 91.5694C75.7628 91.4481 75.8612 91.2789 75.9499 91.099C76.1574 90.6732 76.1366 90.4283 75.8434 90.1595C75.5006 89.8409 75.1537 89.5375 74.8062 89.2335C74.7035 89.1436 74.6003 89.0533 74.4975 88.9629C74.4827 88.9494 74.4675 88.9357 74.4508 88.9208C74.4124 88.8865 74.3666 88.8455 74.3021 88.7837C74.3243 88.7546 74.3455 88.7265 74.3659 88.6993C74.4386 88.6029 74.5021 88.5186 74.5715 88.4409C74.8875 88.0978 75.2085 87.7557 75.5296 87.4136C76.2764 86.6237 76.4058 85.2995 75.8536 84.1343C75.6111 83.6339 75.3686 83.1335 75.1312 82.634C75.0726 82.5168 75.0185 82.3876 74.9511 82.2265C74.9393 82.1981 74.927 82.1687 74.9142 82.1383C75.0054 82.1178 75.0944 82.0983 75.1816 82.0791L75.1832 82.0787L75.1836 82.0786C75.491 82.011 75.7762 81.9483 76.0624 81.8695C76.1154 81.8537 76.1678 81.8054 76.2194 81.7578C76.2395 81.7393 76.2595 81.7208 76.2794 81.7044C76.2704 81.6773 76.2618 81.649 76.2531 81.6204C76.2283 81.5389 76.2028 81.4551 76.1649 81.3885L74.2241 77.9742C74.1729 77.8843 74.1274 77.7865 74.1129 77.6053C74.6088 77.8862 75.1059 78.1655 75.6089 78.4481L75.6103 78.4489L75.6111 78.4494C76.2259 78.7948 76.8497 79.1453 77.4913 79.5099C77.413 78.9864 77.2054 78.4858 76.9978 77.9851C76.7902 77.4845 76.5826 76.9839 76.5043 76.4604C76.7694 76.5712 77.1501 76.6775 77.5264 76.7826C77.9146 76.8909 78.2982 76.9981 78.5458 77.1075C79.0686 77.3386 79.6624 76.9311 79.9447 76.1353C79.9588 76.1016 79.9272 75.7035 79.9001 75.362C79.8805 75.1155 79.8633 74.8983 79.8673 74.8691C79.9111 74.4576 79.9878 74.3116 80.0645 74.1655C80.1412 74.0195 80.2179 73.8735 80.2618 73.462C80.2746 73.3157 80.2983 73.1714 80.3267 72.9975C80.3375 72.9312 80.3491 72.8605 80.361 72.784C80.5784 73.0252 80.7678 73.3172 80.9561 73.6073C81.2614 74.0779 81.5637 74.5437 81.9771 74.7808C81.9905 74.7743 82.1029 73.2036 82.2154 71.633C82.3279 70.0623 82.4404 68.4916 82.4537 68.4851C82.4775 68.5661 82.5043 68.6452 82.5311 68.7241C82.5761 68.8568 82.6209 68.989 82.6511 69.129C82.8184 69.8709 82.9815 70.6155 83.1454 71.3638C83.2429 71.8093 83.3408 72.256 83.44 72.7043C83.4693 72.8343 83.502 72.9621 83.5373 73.1C83.5652 73.2093 83.5948 73.325 83.6256 73.4531C83.8311 72.8931 84.0124 72.391 84.1936 71.8889C84.2092 71.8874 84.3005 72.1508 84.3918 72.4142C84.483 72.6776 84.5743 72.9411 84.5899 72.9395C84.702 73.296 84.7441 73.4022 84.7856 73.5067C84.8301 73.619 84.8738 73.7294 85.003 74.1466C85.0399 74.018 85.0746 73.8976 85.1094 73.7772C85.1616 73.5962 85.2141 73.4143 85.2736 73.2058C85.2855 73.2646 85.2978 73.3166 85.309 73.3641C85.3313 73.4587 85.3495 73.5354 85.3515 73.6131C85.3776 74.9305 86.4958 75.3883 87.0279 74.7282C87.1177 74.6154 87.2064 74.498 87.2951 74.3805C87.3838 74.2631 87.4726 74.1456 87.5623 74.0329C87.6516 73.9192 87.7472 73.8145 87.855 73.6965C87.9097 73.6366 87.9676 73.5733 88.0293 73.5036C88.0291 73.6383 88.0285 73.7693 88.0279 73.8975L88.0279 73.8988C88.026 74.3389 88.0242 74.7447 88.035 75.1475C88.0417 75.4524 88.074 75.762 88.1335 76.0498C88.2621 76.6625 88.7683 75.8021 89.239 75.0022C89.4822 74.5889 89.7158 74.1918 89.883 74.0222C89.883 74.0222 89.1735 78.0068 89.7267 77.422C89.8776 77.2599 90.3083 76.4976 90.7415 75.7309C91.1826 74.9501 91.6264 74.1648 91.7798 74.0041C91.7892 74.0192 91.7973 74.0341 91.8054 74.049L91.8065 74.0511L91.8128 74.0295L91.8206 74.003C91.8725 74.0055 91.8394 74.0286 91.8072 74.0511L91.8065 74.0511C91.8142 74.0651 91.8221 74.0796 91.831 74.0939C91.7973 74.2374 91.6445 74.9678 91.4675 75.8137C91.2013 77.0865 90.8803 78.6208 90.8282 78.8096C90.5896 79.6492 90.612 80.448 90.9083 81.2442C91.0542 81.6374 91.1939 82.0473 91.312 82.4711C91.4564 82.9711 91.6804 83.2717 91.987 83.409C92.2436 83.5192 92.4945 83.6373 92.8005 83.7834C92.6617 84.0235 92.5324 84.2504 92.3972 84.4879L92.3967 84.4887L92.3953 84.4912C92.3222 84.6195 92.2473 84.7509 92.1682 84.8892C92.2928 84.9123 92.5143 84.9588 92.7222 85.0023C92.906 85.0408 93.0796 85.0772 93.1658 85.0932C93.1675 85.1069 93.0717 85.1001 92.9758 85.0932C92.8799 85.0864 92.784 85.0795 92.7857 85.0932C92.7294 85.1471 92.6737 85.2037 92.6179 85.2604C92.5266 85.3531 92.4349 85.4462 92.34 85.5283C92.0998 85.7337 91.9875 86.0431 91.9588 86.5021C91.8777 87.88 91.9467 88.0982 92.6975 88.568L94.89 89.9398C94.9547 89.9786 95.0132 90.0341 95.0725 90.1612C94.9169 90.1978 94.761 90.2313 94.6052 90.2648C94.2933 90.3318 93.9813 90.3989 93.6724 90.4904L93.619 90.5067L93.5695 90.5218ZM91.7798 74.0041C91.7971 74.0028 91.8104 74.0025 91.8206 74.003C91.9188 73.6674 92.0095 73.3536 91.7798 74.0041ZM91.8063 74.0517L91.7935 74.0955C91.7463 74.094 91.7756 74.0732 91.8063 74.0517ZM91.0461 89.8919C90.5684 96.8282 86.9184 101.784 82.8935 100.961C81.0865 100.591 79.5112 99.1194 78.3669 96.9821C76.9625 94.3589 76.2076 90.7328 76.4708 86.9107C76.8376 81.5845 79.0749 77.4261 81.9161 76.1553C83.0525 75.7893 84.2479 75.7561 85.3792 76.065C86.9866 76.6887 88.3714 78.2029 89.3755 80.2618C89.4474 80.4092 89.3011 80.8263 89.1546 81.2436C89.0107 81.6537 88.8667 82.0642 88.9295 82.2194C89.607 81.4195 90.3251 82.7587 90.4274 83.0621C91.198 85.3485 91.2409 87.064 91.0461 89.8919Z" fill="url(#paint62_linear)"/>
<path fill-rule="evenodd" clip-rule="evenodd" d="M90.7889 98.7953C90.873 98.8087 90.9536 98.8216 91.1117 98.9315C91.303 99.2209 92.1131 99.8139 92.3044 99.577C92.3823 99.0629 92.1749 98.915 91.9833 98.7784C91.9395 98.7472 91.8966 98.7166 91.8581 98.6824C91.2206 98.1034 90.6149 97.4456 90.1208 96.4983C90.3981 96.3595 90.6489 96.5134 90.8988 96.6668C91.1228 96.8042 91.3461 96.9413 91.5872 96.8667C91.5553 96.3141 91.2684 96.1299 91.0452 96.0509C90.6468 95.9193 90.4077 95.472 90.4555 94.972C90.4959 94.6163 90.7866 94.5236 91.0488 94.4399C91.097 94.4245 91.1442 94.4094 91.1887 94.3931C91.9809 94.0792 92.7573 94.3894 93.7372 94.7808L93.7548 94.7878C92.7666 93.6563 91.9856 92.7616 91.1887 91.8406C91.3134 91.7033 91.4924 91.6655 91.651 91.632C91.8571 91.5885 92.0286 91.5523 92.0016 91.3143C91.9869 91.1753 91.9916 91.0127 91.9965 90.8425C92.0126 90.287 92.031 89.65 91.3878 89.4851L91.3892 89.4597C92.2057 89.2761 92.8278 89.0143 93.4042 88.5513C93.5047 88.3024 93.417 88.2333 93.3285 88.1637C93.3048 88.145 93.281 88.1262 93.2607 88.104C93.1969 88.0873 93.1324 88.0719 93.0677 88.0564C92.825 87.9982 92.5787 87.9391 92.3522 87.8145C91.9538 87.604 91.5872 87.3145 92.0016 86.4988C92.1748 86.181 92.0749 85.9399 91.9756 85.7003C91.9104 85.5432 91.8455 85.3866 91.8581 85.2094C91.9583 85.0829 92.0629 84.9636 92.1669 84.8449C92.3443 84.6425 92.5203 84.4416 92.671 84.2094C92.8782 83.8937 92.9898 83.42 92.8623 82.92C92.7838 82.6286 92.6357 82.7418 92.4813 82.8597C92.3848 82.9334 92.2859 83.009 92.2001 82.9888C92.1417 82.9745 92.0839 82.9609 92.0264 82.9474C91.6599 82.8613 91.31 82.7791 90.9655 82.5516L91.2206 81.2886C91.2524 80.9728 91.1727 80.8675 90.9974 80.9202L90.854 80.9991C90.8273 81.0187 90.7999 81.0394 90.7721 81.0605C90.6195 81.1759 90.452 81.3027 90.3012 81.3157C90.1992 81.0274 90.0909 80.7463 89.9767 80.473C90.0407 80.3513 90.1449 80.2581 90.2464 80.1672C90.3169 80.1042 90.386 80.0423 90.4396 79.9728C91.2206 78.9203 91.4884 77.9729 91.345 76.3415C90.9357 76.9705 90.3664 77.4346 89.8652 77.8432C89.8003 77.8961 89.7366 77.948 89.6745 77.9993C89.547 77.3677 88.4153 76.2362 88.0487 76.3415C88.1284 74.9205 88.4153 73.5784 89.0051 72.4732C88.5747 71.9206 88.3516 72.1048 88.1444 72.8943C87.9344 73.7334 87.6785 74.5472 87.4086 75.4058C87.3156 75.7014 87.221 76.0022 87.1261 76.3112C87.0601 76.2551 86.9935 76.2006 86.9265 76.1477C86.7906 75.6317 86.7132 75.2269 86.7258 74.7889C86.7306 74.709 86.7561 74.6072 86.782 74.5034C86.8414 74.2657 86.9034 74.0178 86.7258 73.9995C86.52 73.9733 86.4557 74.3626 86.408 74.6515L86.407 74.6573C86.2639 74.8346 86.21 74.6876 86.1586 74.5473C86.1413 74.5001 86.1243 74.4536 86.1042 74.4205C85.7717 74.2691 85.7773 73.8999 85.783 73.5283C85.7852 73.3832 85.7874 73.2378 85.7695 73.1048C85.7614 73.045 85.7585 72.9768 85.7554 72.9074C85.7465 72.702 85.7371 72.4863 85.5941 72.4469C85.3869 72.3943 85.2913 72.6838 85.2116 72.9732C85.184 73.0553 85.1774 73.1532 85.1707 73.2538C85.158 73.4433 85.1447 73.6423 84.9885 73.7626C84.8597 72.912 84.8465 72.04 84.8336 71.185C84.8322 71.0879 84.8307 70.991 84.8291 70.8944C84.8291 70.8634 84.8295 70.8306 84.8298 70.7967C84.833 70.514 84.837 70.1548 84.6378 70.1313C84.3509 70.0786 84.1153 72.1312 84.1153 72.4469C84.1075 73.0003 84.1675 73.1887 84.2308 73.3875C84.297 73.5952 84.3669 73.8144 84.3669 74.4731C84.0974 74.1272 83.8655 73.8328 83.6436 73.5512C83.5112 73.3831 83.3822 73.2193 83.2511 73.0522C83.2245 73.0126 83.1983 72.9715 83.1721 72.9304C83.0411 72.7252 82.9083 72.5171 82.7092 72.4732C82.5976 72.5522 82.502 72.6311 82.5976 72.868C82.587 72.9677 82.5795 73.0687 82.572 73.1699C82.5458 73.5226 82.5196 73.877 82.3586 74.1837C82.289 74.0345 82.2923 73.8552 82.2956 73.6743C82.2998 73.4405 82.3041 73.2039 82.1514 73.0258C82.1035 73.1837 82.0717 73.289 82.0238 73.3942C81.9558 73.544 81.9362 73.7303 81.9162 73.9201C81.8799 74.264 81.8425 74.6193 81.5138 74.7889C81.068 75.0167 81.018 74.6494 80.9685 74.2853C80.9437 74.1026 80.9189 73.9208 80.8444 73.8153C80.7705 73.7136 80.7138 73.5003 80.6564 73.2844C80.5652 72.9415 80.4724 72.5922 80.3061 72.6729C80.0033 72.8308 79.8721 73.9468 79.8402 74.3942C79.7924 75.1573 79.6171 75.8678 78.9317 75.5257C78.5192 75.3214 78.2935 74.8418 78.0691 74.3646C77.9466 74.1043 77.8245 73.8447 77.6725 73.6311C77.5131 73.5784 77.4335 73.6311 77.4972 73.9205C77.3895 74.276 77.4742 74.572 77.5593 74.8694C77.6128 75.0563 77.6664 75.2437 77.6725 75.4468C77.7004 75.5783 77.7263 75.7116 77.7522 75.8448C77.8299 76.2444 77.9076 76.6441 78.0391 76.9993C78.056 77.048 78.0806 77.093 78.1051 77.1377C78.1733 77.2622 78.2403 77.3846 78.1348 77.5782C78.1324 77.6588 78.1325 77.7445 78.1325 77.8293C78.1328 78.3258 78.1331 78.7936 77.6566 78.0519C77.6377 78.0246 77.6144 77.983 77.5876 77.9353C77.4332 77.6606 77.1661 77.1852 77.0031 78.1045C76.96 78.2824 76.9388 78.2078 76.9197 78.1407C76.9105 78.1086 76.9019 78.0782 76.8915 78.0782C76.764 77.7624 76.5728 77.7361 76.4293 77.9729C76.3205 78.1526 76.424 78.3574 76.5031 78.5138L76.509 78.5255C76.5648 78.644 76.6246 78.7558 76.6843 78.8676C76.7441 78.9795 76.8039 79.0913 76.8597 79.2097C76.9153 79.738 76.7766 79.6247 76.6239 79.4999C76.6016 79.4817 76.5791 79.4633 76.5568 79.4465C76.5096 79.3908 76.4681 79.3304 76.4274 79.2713C76.372 79.1907 76.3183 79.1125 76.254 79.0518C76.2452 79.0421 76.2362 79.0321 76.227 79.022C76.0872 78.8665 75.9105 78.67 75.7758 78.8676C75.6116 79.1388 75.7278 79.3604 75.8386 79.5717C75.8675 79.6269 75.8961 79.6815 75.9193 79.736L76.0627 80.0518C76.2524 80.4395 76.1094 80.4976 75.9643 80.5566C75.8534 80.6017 75.7413 80.6474 75.7758 80.8412C75.7758 81.0557 75.8366 81.2925 75.8976 81.5302C76.0462 82.1089 76.1961 82.6929 75.473 82.9727C75.447 82.9834 75.4223 82.9952 75.3981 83.0068C75.3038 83.052 75.2173 83.0935 75.0904 83.0516C74.8832 82.999 74.7079 83.2358 74.692 83.6568C74.6791 83.9765 74.802 84.0028 74.9255 84.0292C74.9544 84.0353 74.9835 84.0416 75.0107 84.0516C75.0904 84.0779 75.1661 84.1108 75.2419 84.1437C75.3176 84.1766 75.3933 84.2094 75.473 84.2358C75.7917 84.341 76.1902 84.6568 76.1105 85.1568C76.0408 85.6335 75.8778 85.5043 75.7031 85.3659C75.5982 85.2827 75.489 85.1962 75.3933 85.2357C75.3664 85.2505 75.3446 85.2736 75.3193 85.3003C75.2996 85.3211 75.2778 85.3442 75.2498 85.3673C75.6786 86.4292 75.3447 86.4385 75.0095 86.4478C74.7965 86.4537 74.583 86.4596 74.5645 86.7356C74.5984 86.8477 74.6728 86.85 74.7471 86.8523C74.8472 86.8553 74.947 86.8584 74.947 87.1303C75.0267 87.1303 75.0586 87.2356 75.0107 87.2882C74.9664 87.3126 74.97 87.3031 74.9756 87.2885C74.9819 87.2716 74.9909 87.2478 74.9311 87.2619C74.8585 87.2803 74.784 87.2762 74.7096 87.272C74.5715 87.2643 74.4337 87.2567 74.3094 87.3935L74.3254 87.4198C74.2323 87.5735 74.0924 87.629 73.9516 87.6849C73.7067 87.7821 73.4589 87.8805 73.4487 88.4987C73.5618 89.0122 73.8255 89.0288 74.0727 89.0444C74.1042 89.0464 74.1354 89.0483 74.166 89.0513C74.6442 89.1302 75.1223 89.025 75.6642 88.8408C75.3136 89.9197 74.7876 90.1302 74.2457 90.3144C74.2093 90.3364 74.1726 90.358 74.1358 90.3795C73.6894 90.6415 73.2414 90.9044 73.4328 91.9985L73.5284 92.1564C73.7953 92.0755 74.0547 91.93 74.3169 91.783C74.8219 91.4999 75.3371 91.2111 75.9352 91.367C75.8708 91.5264 75.8237 91.6969 75.7777 91.8631C75.6644 92.2728 75.5581 92.6569 75.218 92.7879C74.8992 92.9195 74.5645 93.4195 74.692 93.8931C74.7898 94.2702 74.9842 94.1205 75.1788 93.9706C75.2694 93.9008 75.3601 93.8309 75.4411 93.8142C75.5048 93.7879 75.5527 93.7616 75.6005 93.7353C75.883 93.5853 76.1463 93.7096 76.4107 93.8343C76.5378 93.8943 76.6652 93.9543 76.7951 93.9841C76.8327 94.118 76.8715 94.2506 76.9116 94.382C76.7173 94.4567 76.5639 94.3577 76.3833 94.2411C76.2234 94.1378 76.042 94.0207 75.7917 93.9984C75.6324 93.9984 75.0817 95.5343 75.0976 95.8501C75.1085 95.958 75.3768 96.1352 75.5811 96.2702C75.6756 96.3326 75.7565 96.386 75.7917 96.4193C75.8632 96.4783 75.9446 96.529 76.0276 96.5807C76.0928 96.6213 76.159 96.6625 76.2221 96.7088C76.3655 97.0772 76.3815 97.4193 76.2062 97.7613C76.0905 97.9523 75.9457 98.0567 75.7999 98.1617C75.7047 98.2303 75.609 98.2993 75.5208 98.3929C75.5128 98.4192 75.5009 98.4389 75.4889 98.4587C75.477 98.4784 75.465 98.4982 75.457 98.5245C75.5394 99.31 76.1531 98.8626 76.7485 98.4285C77.1901 98.1065 77.6216 97.7919 77.8185 97.9937C77.9239 98.1055 77.8758 98.688 77.8327 99.2106C77.7845 99.7945 77.7425 100.304 77.9276 99.9981C78.2323 99.4698 78.5516 99.6389 78.8855 99.8158C78.9008 99.8239 78.9163 99.8321 78.9317 99.8402L78.9341 99.8377C79.0592 99.7086 79.0594 99.7084 79.2178 99.6823C79.1528 99.7436 79.1476 99.8316 79.1419 99.9255C79.1379 99.993 79.1337 100.064 79.107 100.13C79.0777 100.216 79.0432 100.299 79.0083 100.384C78.8722 100.713 78.7317 101.053 78.8839 101.577C78.9918 101.527 79.0658 101.37 79.14 101.213C79.2631 100.951 79.3864 100.689 79.6649 100.919C79.9028 101.115 79.8879 101.414 79.8734 101.706C79.8645 101.884 79.8558 102.059 79.904 102.208C79.904 102.248 79.903 102.287 79.902 102.327C79.899 102.445 79.896 102.564 79.9199 102.682C79.9518 102.945 80.0634 103.156 80.2387 103.208C80.3821 103.156 80.5575 103.129 80.6531 103.366C81.0991 104.481 81.1885 103.931 81.2798 103.37C81.3027 103.229 81.3256 103.088 81.3544 102.972C81.4325 102.843 81.4445 102.682 81.4572 102.512C81.4678 102.37 81.4789 102.221 81.5297 102.077C81.6042 102.175 81.6617 102.317 81.7191 102.459C81.8457 102.771 81.9717 103.082 82.2789 102.919C82.4223 102.524 82.5658 102.103 82.7092 101.656C82.7402 101.731 82.7702 101.812 82.8005 101.893C82.9724 102.357 83.1546 102.848 83.6018 102.445C83.6223 102.403 83.6296 102.339 83.637 102.274C83.6526 102.137 83.6685 101.997 83.809 102.051C83.9206 102.103 83.9843 102.261 83.9046 102.445C83.8887 103.077 83.8887 103.945 84.319 103.893C84.6547 103.85 84.6139 103.272 84.5778 102.761C84.5694 102.641 84.5612 102.524 84.5581 102.419C84.557 102.385 84.5557 102.351 84.5544 102.317C84.5409 101.969 84.5281 101.639 84.7056 101.371C84.7726 101.356 84.8394 101.34 84.9058 101.322C85.1025 102.229 85.4428 102.944 85.9129 103.445C86.2006 103.215 86.1593 102.843 86.1176 102.467C86.083 102.156 86.0482 101.842 86.1998 101.603C86.5505 101.603 86.8533 101.761 87.0765 102.235C87.1562 102.551 87.2199 102.866 87.2837 103.182C87.3781 103.289 87.4508 103.454 87.5231 103.619C87.6827 103.982 87.8402 104.34 88.2241 104.05C88.0026 103.609 87.8987 103.07 87.7947 102.531C87.7191 102.139 87.6435 101.747 87.5227 101.393C87.4112 101.077 87.459 100.814 87.6024 100.577C87.7593 100.296 87.884 100.458 88.0029 100.613C88.029 100.647 88.0548 100.68 88.0806 100.709C88.1561 100.79 88.2289 100.885 88.3028 100.982C88.5411 101.296 88.7911 101.625 89.1804 101.524C89.1085 100.948 88.8778 100.601 88.6546 100.265C88.5314 100.08 88.4104 99.8976 88.3197 99.6823C88.397 99.6459 88.4742 99.6067 88.5512 99.5677C89.1409 99.2686 89.7119 98.979 90.1208 100.003C90.2111 99.9926 90.3041 100.05 90.3954 100.107C90.5297 100.19 90.6604 100.271 90.7743 100.13C90.7356 99.986 90.6705 99.8569 90.6058 99.7283C90.457 99.433 90.3097 99.1407 90.4874 98.6824C90.6321 98.7704 90.7119 98.7831 90.7889 98.7953ZM91.0461 89.8919C90.5684 96.8282 86.9184 101.784 82.8935 100.961C81.0865 100.591 79.5112 99.1194 78.3669 96.9821C76.9625 94.3589 76.2076 90.7328 76.4708 86.9107C76.8376 81.5845 79.0749 77.4261 81.9161 76.1553C83.0525 75.7893 84.2479 75.7561 85.3792 76.065C86.9866 76.6887 88.3714 78.2029 89.3755 80.2618C89.4474 80.4092 89.3011 80.8263 89.1546 81.2436C89.0107 81.6537 88.8667 82.0642 88.9295 82.2194C89.607 81.4195 90.3251 82.7587 90.4274 83.0621C91.198 85.3485 91.2409 87.064 91.0461 89.8919Z" fill="url(#paint63_linear)"/>
</g>
<defs>
<filter id="filter0_d" x="19" y="163.691" width="155" height="41" filterUnits="userSpaceOnUse" color-interpolation-filters="sRGB">
<feFlood flood-opacity="0" result="BackgroundImageFix"/>
<feColorMatrix in="SourceAlpha" type="matrix" values="0 0 0 0 0 0 0 0 0 0 0 0 0 0 0 0 0 0 127 0"/>
<feOffset/>
<feGaussianBlur stdDeviation="1.5"/>
<feColorMatrix type="matrix" values="0 0 0 0 0.94902 0 0 0 0 0.0313726 0 0 0 0 0.854902 0 0 0 0.1 0"/>
<feBlend mode="normal" in2="BackgroundImageFix" result="effect1_dropShadow"/>
<feBlend mode="normal" in="SourceGraphic" in2="effect1_dropShadow" result="shape"/>
</filter>
<filter id="filter1_df" x="11" y="0.691162" width="166" height="204" filterUnits="userSpaceOnUse" color-interpolation-filters="sRGB">
<feFlood flood-opacity="0" result="BackgroundImageFix"/>
<feColorMatrix in="SourceAlpha" type="matrix" values="0 0 0 0 0 0 0 0 0 0 0 0 0 0 0 0 0 0 127 0"/>
<feOffset dy="4"/>
<feGaussianBlur stdDeviation="2"/>
<feColorMatrix type="matrix" values="0 0 0 0 0 0 0 0 0 0 0 0 0 0 0 0 0 0 0.25 0"/>
<feBlend mode="normal" in2="BackgroundImageFix" result="effect1_dropShadow"/>
<feBlend mode="normal" in="SourceGraphic" in2="effect1_dropShadow" result="shape"/>
<feGaussianBlur stdDeviation="25" result="effect2_foregroundBlur"/>
</filter>
<filter id="filter2_d" x="68.1274" y="67.3477" width="30.9797" height="41.9254" filterUnits="userSpaceOnUse" color-interpolation-filters="sRGB">
<feFlood flood-opacity="0" result="BackgroundImageFix"/>
<feColorMatrix in="SourceAlpha" type="matrix" values="0 0 0 0 0 0 0 0 0 0 0 0 0 0 0 0 0 0 127 0"/>
<feOffset/>
<feGaussianBlur stdDeviation="4"/>
<feColorMatrix type="matrix" values="0 0 0 0 0.583333 0 0 0 0 0.459375 0 0 0 0 0.57062 0 0 0 1 0"/>
<feBlend mode="normal" in2="BackgroundImageFix" result="effect1_dropShadow"/>
<feBlend mode="normal" in="SourceGraphic" in2="effect1_dropShadow" result="shape"/>
</filter>
<filter id="filter3_d" x="57.0435" y="54.4851" width="54.029" height="70.1256" filterUnits="userSpaceOnUse" color-interpolation-filters="sRGB">
<feFlood flood-opacity="0" result="BackgroundImageFix"/>
<feColorMatrix in="SourceAlpha" type="matrix" values="0 0 0 0 0 0 0 0 0 0 0 0 0 0 0 0 0 0 127 0"/>
<feOffset dy="2"/>
<feGaussianBlur stdDeviation="8"/>
<feColorMatrix type="matrix" values="0 0 0 0 0.894949 0 0 0 0 0.302083 0 0 0 0 0.966667 0 0 0 0.2 0"/>
<feBlend mode="normal" in2="BackgroundImageFix" result="effect1_dropShadow"/>
<feBlend mode="normal" in="SourceGraphic" in2="effect1_dropShadow" result="shape"/>
</filter>
<radialGradient id="paint0_radial" cx="0" cy="0" r="1" gradientUnits="userSpaceOnUse" gradientTransform="translate(96.5001 184.2) rotate(90) scale(14.9908 63.6571)">
<stop stop-color="white"/>
<stop offset="1" stop-color="#F208DA" stop-opacity="0.4"/>
</radialGradient>
<radialGradient id="paint1_radial" cx="0" cy="0" r="1" gradientUnits="userSpaceOnUse" gradientTransform="translate(96.5227 184.2) rotate(90) scale(14.4577 61.24)">
<stop stop-color="white"/>
<stop offset="1" stop-color="#F208DA" stop-opacity="0.4"/>
</radialGradient>
<radialGradient id="paint2_radial" cx="0" cy="0" r="1" gradientUnits="userSpaceOnUse" gradientTransform="translate(71.9085 184.568) rotate(90) scale(7.03125 10.3602)">
<stop stop-color="white"/>
<stop offset="1" stop-color="#F208DA" stop-opacity="0.4"/>
</radialGradient>
<radialGradient id="paint3_radial" cx="0" cy="0" r="1" gradientUnits="userSpaceOnUse" gradientTransform="translate(125.641 180.965) rotate(90) scale(2.47243 5.64736)">
<stop stop-color="white"/>
<stop offset="1" stop-color="#F208DA" stop-opacity="0.4"/>
</radialGradient>
<radialGradient id="paint4_radial" cx="0" cy="0" r="1" gradientUnits="userSpaceOnUse" gradientTransform="translate(98.7364 177.332) rotate(90) scale(1.34463 22.0247)">
<stop stop-color="white"/>
<stop offset="1" stop-color="#F208DA" stop-opacity="0.4"/>
</radialGradient>
<radialGradient id="paint5_radial" cx="0" cy="0" r="1" gradientUnits="userSpaceOnUse" gradientTransform="translate(118.488 187.84) rotate(90) scale(4.23713 12.9524)">
<stop stop-color="white"/>
<stop offset="1" stop-color="#F208DA" stop-opacity="0.4"/>
</radialGradient>
<radialGradient id="paint6_radial" cx="0" cy="0" r="1" gradientUnits="userSpaceOnUse" gradientTransform="translate(93.6988 191.811) rotate(90) scale(0.598265 11.4754)">
<stop stop-color="white"/>
<stop offset="1" stop-color="#F208DA" stop-opacity="0.4"/>
</radialGradient>
<radialGradient id="paint7_radial" cx="0" cy="0" r="1" gradientUnits="userSpaceOnUse" gradientTransform="translate(76.4181 178.64) rotate(90) scale(3.91544 19.5399)">
<stop stop-color="white"/>
<stop offset="1" stop-color="#F208DA" stop-opacity="0.4"/>
</radialGradient>
<radialGradient id="paint8_radial" cx="0" cy="0" r="1" gradientUnits="userSpaceOnUse" gradientTransform="translate(109.376 176.14) rotate(90) scale(1.41544 12.5597)">
<stop stop-color="white"/>
<stop offset="1" stop-color="#F208DA" stop-opacity="0.4"/>
</radialGradient>
<radialGradient id="paint9_radial" cx="0" cy="0" r="1" gradientUnits="userSpaceOnUse" gradientTransform="translate(128.555 182.941) rotate(90) scale(5.91912 8.29073)">
<stop stop-color="white"/>
<stop offset="1" stop-color="#F208DA" stop-opacity="0.4"/>
</radialGradient>
<radialGradient id="paint10_radial" cx="0" cy="0" r="1" gradientUnits="userSpaceOnUse" gradientTransform="translate(83.0559 188.171) rotate(90) scale(5.5239 26.9074)">
<stop stop-color="white"/>
<stop offset="1" stop-color="#F208DA" stop-opacity="0.4"/>
</radialGradient>
<radialGradient id="paint11_radial" cx="0" cy="0" r="1" gradientUnits="userSpaceOnUse" gradientTransform="translate(120.422 190.836) rotate(90) scale(2.23346 10.8655)">
<stop stop-color="white"/>
<stop offset="1" stop-color="#F208DA" stop-opacity="0.4"/>
</radialGradient>
<radialGradient id="paint12_radial" cx="0" cy="0" r="1" gradientUnits="userSpaceOnUse" gradientTransform="translate(96.4999 184.191) rotate(90) scale(13.8235 58.8681)">
<stop stop-color="white"/>
<stop offset="1" stop-color="#F208DA" stop-opacity="0.4"/>
</radialGradient>
<radialGradient id="paint13_radial" cx="0" cy="0" r="1" gradientUnits="userSpaceOnUse" gradientTransform="translate(96.0482 184.21) rotate(90) scale(13.8051 58.4163)">
<stop stop-color="white"/>
<stop offset="1" stop-color="#F208DA" stop-opacity="0.4"/>
</radialGradient>
<radialGradient id="paint14_radial" cx="0" cy="0" r="1" gradientUnits="userSpaceOnUse" gradientTransform="translate(96.8839 184.283) rotate(90) scale(13.6948 58.3034)">
<stop stop-color="white"/>
<stop offset="1" stop-color="#F208DA" stop-opacity="0.4"/>
</radialGradient>
<radialGradient id="paint15_radial" cx="0" cy="0" r="1" gradientUnits="userSpaceOnUse" gradientTransform="translate(96.5 184.191) rotate(90) scale(17.5 74.5)">
<stop stop-color="white"/>
<stop offset="1" stop-color="#F208DA" stop-opacity="0.4"/>
</radialGradient>
<radialGradient id="paint16_radial" cx="0" cy="0" r="1" gradientUnits="userSpaceOnUse" gradientTransform="translate(96.5225 184.191) rotate(90) scale(17.4449 74.2515)">
<stop stop-color="white"/>
<stop offset="1" stop-color="#F208DA" stop-opacity="0.4"/>
</radialGradient>
<radialGradient id="paint17_radial" cx="0" cy="0" r="1" gradientUnits="userSpaceOnUse" gradientTransform="translate(135.218 187.638) rotate(90) scale(3.29963 6.27986)">
<stop stop-color="white"/>
<stop offset="1" stop-color="#F208DA" stop-opacity="0.4"/>
</radialGradient>
<radialGradient id="paint18_radial" cx="0" cy="0" r="1" gradientUnits="userSpaceOnUse" gradientTransform="translate(102.622 192.697) rotate(90) scale(2.09086 28.1239)">
<stop stop-color="white"/>
<stop offset="1" stop-color="#F208DA" stop-opacity="0.4"/>
</radialGradient>
<radialGradient id="paint19_radial" cx="0" cy="0" r="1" gradientUnits="userSpaceOnUse" gradientTransform="translate(77.5926 180.629) rotate(90) scale(7.0367 26.1361)">
<stop stop-color="white"/>
<stop offset="1" stop-color="#F208DA" stop-opacity="0.4"/>
</radialGradient>
<radialGradient id="paint20_radial" cx="0" cy="0" r="1" gradientUnits="userSpaceOnUse" gradientTransform="translate(64.807 190.45) rotate(90) scale(2.82169 10.4137)">
<stop stop-color="white"/>
<stop offset="1" stop-color="#F208DA" stop-opacity="0.4"/>
</radialGradient>
<radialGradient id="paint21_radial" cx="0" cy="0" r="1" gradientUnits="userSpaceOnUse" gradientTransform="translate(122.794 178.961) rotate(90) scale(5.15625 18.7041)">
<stop stop-color="white"/>
<stop offset="1" stop-color="#F208DA" stop-opacity="0.4"/>
</radialGradient>
<radialGradient id="paint22_radial" cx="0" cy="0" r="1" gradientUnits="userSpaceOnUse" gradientTransform="translate(96.5184 183.691) scale(54.5163 11.0004)">
<stop stop-color="#E91BE9"/>
<stop offset="0.2052" stop-color="#CB389D"/>
<stop offset="0.6676" stop-color="#571843" stop-opacity="0"/>
<stop offset="1" stop-opacity="0"/>
</radialGradient>
<linearGradient id="paint23_linear" x1="42.9242" y1="88.1604" x2="118.615" y2="88.1604" gradientUnits="userSpaceOnUse">
<stop stop-color="#7BDAFF"/>
<stop offset="1" stop-color="#59BDEF"/>
</linearGradient>
<linearGradient id="paint24_linear" x1="43.9521" y1="88.493" x2="119.643" y2="88.493" gradientUnits="userSpaceOnUse">
<stop stop-color="#2573BA"/>
<stop offset="1" stop-color="#0063AD"/>
</linearGradient>
<linearGradient id="paint25_linear" x1="43.9521" y1="88.493" x2="119.643" y2="88.493" gradientUnits="userSpaceOnUse">
<stop stop-color="#2C75E4"/>
<stop offset="0.044824" stop-color="#3461D5"/>
<stop offset="0.1323" stop-color="#4140BB"/>
<stop offset="0.2225" stop-color="#4B27A7"/>
<stop offset="0.3154" stop-color="#521499"/>
<stop offset="0.4127" stop-color="#570A91"/>
<stop offset="0.5215" stop-color="#58068E"/>
<stop offset="0.6592" stop-color="#5B078F"/>
<stop offset="0.7607" stop-color="#640A92"/>
<stop offset="0.8506" stop-color="#740F98"/>
<stop offset="0.9332" stop-color="#8B17A0"/>
<stop offset="1" stop-color="#A31FA9"/>
</linearGradient>
<linearGradient id="paint26_linear" x1="106.515" y1="118.055" x2="106.515" y2="157.201" gradientUnits="userSpaceOnUse">
<stop stop-color="#CE44D5"/>
<stop offset="1" stop-color="#34F2FE"/>
</linearGradient>
<linearGradient id="paint27_linear" x1="39.986" y1="103.042" x2="159.059" y2="103.042" gradientUnits="userSpaceOnUse">
<stop stop-color="#C0BFF6"/>
<stop offset="0.2938" stop-color="#C5C4F7"/>
<stop offset="0.6399" stop-color="#D3D2F9"/>
<stop offset="1" stop-color="#E9E9FD"/>
</linearGradient>
<radialGradient id="paint28_radial" cx="0" cy="0" r="1" gradientUnits="userSpaceOnUse" gradientTransform="translate(77.4782 110.035) rotate(180) scale(22.1845 22.3332)">
<stop stop-color="#22215B"/>
<stop offset="0.3261" stop-color="#1E1E55"/>
<stop offset="0.7509" stop-color="#141645"/>
<stop offset="1" stop-color="#0C0F38"/>
</radialGradient>
<radialGradient id="paint29_radial" cx="0" cy="0" r="1" gradientUnits="userSpaceOnUse" gradientTransform="translate(73.2649 106.081) rotate(180) scale(21.1279 21.2695)">
<stop stop-color="#22215B"/>
<stop offset="0.3261" stop-color="#1E1E55"/>
<stop offset="0.7509" stop-color="#141645"/>
<stop offset="1" stop-color="#0C0F38"/>
</radialGradient>
<radialGradient id="paint30_radial" cx="0" cy="0" r="1" gradientUnits="userSpaceOnUse" gradientTransform="translate(65.6391 106.502) rotate(180) scale(24.5367 24.7012)">
<stop stop-color="#22215B"/>
<stop offset="0.3261" stop-color="#1E1E55"/>
<stop offset="0.7509" stop-color="#141645"/>
<stop offset="1" stop-color="#0C0F38"/>
</radialGradient>
<radialGradient id="paint31_radial" cx="0" cy="0" r="1" gradientUnits="userSpaceOnUse" gradientTransform="translate(62.1881 104.496) rotate(180) scale(24.5367 24.7012)">
<stop stop-color="#22215B"/>
<stop offset="0.3261" stop-color="#1E1E55"/>
<stop offset="0.7509" stop-color="#141645"/>
<stop offset="1" stop-color="#0C0F38"/>
</radialGradient>
<radialGradient id="paint32_radial" cx="0" cy="0" r="1" gradientUnits="userSpaceOnUse" gradientTransform="translate(58.7371 102.491) rotate(180) scale(24.5367 24.7012)">
<stop stop-color="#22215B"/>
<stop offset="0.3261" stop-color="#1E1E55"/>
<stop offset="0.7509" stop-color="#141645"/>
<stop offset="1" stop-color="#0C0F38"/>
</radialGradient>
<linearGradient id="paint33_linear" x1="119.227" y1="94.0891" x2="70.8753" y2="94.0891" gradientUnits="userSpaceOnUse">
<stop stop-color="#BC59DA"/>
<stop offset="0.973958" stop-color="#5809FA"/>
</linearGradient>
<linearGradient id="paint34_linear" x1="124.392" y1="97.5568" x2="78.8739" y2="97.5568" gradientUnits="userSpaceOnUse">
<stop stop-color="#BC59DA"/>
<stop offset="0.973958" stop-color="#5809FA"/>
</linearGradient>
<linearGradient id="paint35_linear" x1="127.612" y1="98.139" x2="74.3385" y2="98.139" gradientUnits="userSpaceOnUse">
<stop stop-color="#BC59DA"/>
<stop offset="0.973958" stop-color="#5809FA"/>
</linearGradient>
<linearGradient id="paint36_linear" x1="130.931" y1="100.031" x2="77.6982" y2="100.031" gradientUnits="userSpaceOnUse">
<stop stop-color="#BC59DA"/>
<stop offset="0.973958" stop-color="#5809FA"/>
</linearGradient>
<linearGradient id="paint37_linear" x1="134.276" y1="101.94" x2="81.0028" y2="101.94" gradientUnits="userSpaceOnUse">
<stop stop-color="#BC59DA"/>
<stop offset="0.973958" stop-color="#5809FA"/>
</linearGradient>
<linearGradient id="paint38_linear" x1="70.0858" y1="130.979" x2="66.4791" y2="130.979" gradientUnits="userSpaceOnUse">
<stop stop-color="#BC59DA"/>
<stop offset="0.973958" stop-color="#5809FA"/>
</linearGradient>
<linearGradient id="paint39_linear" x1="77.4162" y1="132.211" x2="71.5452" y2="132.211" gradientUnits="userSpaceOnUse">
<stop stop-color="#BC59DA"/>
<stop offset="0.973958" stop-color="#5809FA"/>
</linearGradient>
<radialGradient id="paint40_radial" cx="0" cy="0" r="1" gradientUnits="userSpaceOnUse" gradientTransform="translate(83.6173 88.3105) rotate(90) scale(12.9627 7.48986)">
<stop stop-color="#5109E3"/>
<stop offset="1" stop-color="#080334"/>
</radialGradient>
<linearGradient id="paint41_linear" x1="84.058" y1="68.4851" x2="84.058" y2="106.611" gradientUnits="userSpaceOnUse">
<stop stop-color="#CE44D5"/>
<stop offset="1" stop-color="#34F2FE"/>
</linearGradient>
<linearGradient id="paint42_linear" x1="84.058" y1="68.4851" x2="84.058" y2="106.611" gradientUnits="userSpaceOnUse">
<stop stop-color="#CE44D5"/>
<stop offset="1" stop-color="#34F2FE"/>
</linearGradient>
<linearGradient id="paint43_linear" x1="84.058" y1="68.4851" x2="84.058" y2="106.611" gradientUnits="userSpaceOnUse">
<stop stop-color="#CE44D5"/>
<stop offset="1" stop-color="#34F2FE"/>
</linearGradient>
<linearGradient id="paint44_linear" x1="84.058" y1="68.4851" x2="84.058" y2="106.611" gradientUnits="userSpaceOnUse">
<stop stop-color="#CE44D5"/>
<stop offset="1" stop-color="#34F2FE"/>
</linearGradient>
<linearGradient id="paint45_linear" x1="84.058" y1="68.4851" x2="84.058" y2="106.611" gradientUnits="userSpaceOnUse">
<stop stop-color="#CE44D5"/>
<stop offset="1" stop-color="#34F2FE"/>
</linearGradient>
<linearGradient id="paint46_linear" x1="84.058" y1="68.4851" x2="84.058" y2="106.611" gradientUnits="userSpaceOnUse">
<stop stop-color="#CE44D5"/>
<stop offset="1" stop-color="#34F2FE"/>
</linearGradient>
<linearGradient id="paint47_linear" x1="84.058" y1="68.4851" x2="84.058" y2="106.611" gradientUnits="userSpaceOnUse">
<stop stop-color="#CE44D5"/>
<stop offset="1" stop-color="#34F2FE"/>
</linearGradient>
<linearGradient id="paint48_linear" x1="84.058" y1="68.4851" x2="84.058" y2="106.611" gradientUnits="userSpaceOnUse">
<stop stop-color="#CE44D5"/>
<stop offset="1" stop-color="#34F2FE"/>
</linearGradient>
<linearGradient id="paint49_linear" x1="84.058" y1="68.4851" x2="84.058" y2="106.611" gradientUnits="userSpaceOnUse">
<stop stop-color="#CE44D5"/>
<stop offset="1" stop-color="#34F2FE"/>
</linearGradient>
<linearGradient id="paint50_linear" x1="84.058" y1="68.4851" x2="84.058" y2="106.611" gradientUnits="userSpaceOnUse">
<stop stop-color="#CE44D5"/>
<stop offset="1" stop-color="#34F2FE"/>
</linearGradient>
<linearGradient id="paint51_linear" x1="84.058" y1="68.4851" x2="84.058" y2="106.611" gradientUnits="userSpaceOnUse">
<stop stop-color="#CE44D5"/>
<stop offset="1" stop-color="#34F2FE"/>
</linearGradient>
<linearGradient id="paint52_linear" x1="84.058" y1="68.4851" x2="84.058" y2="106.611" gradientUnits="userSpaceOnUse">
<stop stop-color="#CE44D5"/>
<stop offset="1" stop-color="#34F2FE"/>
</linearGradient>
<linearGradient id="paint53_linear" x1="84.058" y1="68.4851" x2="84.058" y2="106.611" gradientUnits="userSpaceOnUse">
<stop stop-color="#CE44D5"/>
<stop offset="1" stop-color="#34F2FE"/>
</linearGradient>
<linearGradient id="paint54_linear" x1="84.058" y1="68.4851" x2="84.058" y2="106.611" gradientUnits="userSpaceOnUse">
<stop stop-color="#CE44D5"/>
<stop offset="1" stop-color="#34F2FE"/>
</linearGradient>
<linearGradient id="paint55_linear" x1="84.058" y1="68.4851" x2="84.058" y2="106.611" gradientUnits="userSpaceOnUse">
<stop stop-color="#CE44D5"/>
<stop offset="1" stop-color="#34F2FE"/>
</linearGradient>
<linearGradient id="paint56_linear" x1="84.058" y1="68.4851" x2="84.058" y2="106.611" gradientUnits="userSpaceOnUse">
<stop stop-color="#CE44D5"/>
<stop offset="1" stop-color="#34F2FE"/>
</linearGradient>
<linearGradient id="paint57_linear" x1="84.058" y1="68.4851" x2="84.058" y2="106.611" gradientUnits="userSpaceOnUse">
<stop stop-color="#CE44D5"/>
<stop offset="1" stop-color="#34F2FE"/>
</linearGradient>
<linearGradient id="paint58_linear" x1="84.058" y1="68.4851" x2="84.058" y2="106.611" gradientUnits="userSpaceOnUse">
<stop stop-color="#CE44D5"/>
<stop offset="1" stop-color="#34F2FE"/>
</linearGradient>
<linearGradient id="paint59_linear" x1="84.058" y1="68.4851" x2="84.058" y2="106.611" gradientUnits="userSpaceOnUse">
<stop stop-color="#CE44D5"/>
<stop offset="1" stop-color="#34F2FE"/>
</linearGradient>
<linearGradient id="paint60_linear" x1="84.058" y1="68.4851" x2="84.058" y2="106.611" gradientUnits="userSpaceOnUse">
<stop stop-color="#CE44D5"/>
<stop offset="1" stop-color="#34F2FE"/>
</linearGradient>
<linearGradient id="paint61_linear" x1="84.058" y1="68.4851" x2="84.058" y2="106.611" gradientUnits="userSpaceOnUse">
<stop stop-color="#CE44D5"/>
<stop offset="1" stop-color="#34F2FE"/>
</linearGradient>
<linearGradient id="paint62_linear" x1="84.058" y1="68.4851" x2="84.058" y2="106.611" gradientUnits="userSpaceOnUse">
<stop stop-color="#CE44D5"/>
<stop offset="1" stop-color="#34F2FE"/>
</linearGradient>
<linearGradient id="paint63_linear" x1="84.058" y1="68.4851" x2="84.058" y2="106.611" gradientUnits="userSpaceOnUse">
<stop stop-color="#CE44D5"/>
<stop offset="1" stop-color="#34F2FE"/>
</linearGradient>
<clipPath id="clip0">
<rect width="149" height="35" fill="white" transform="translate(22 166.691)"/>
</clipPath>
</defs>
</svg>
