<svg width="85" height="85" viewBox="0 0 85 85" fill="none" xmlns="http://www.w3.org/2000/svg">
<path d="M73 72.5L73 36.1286L73 31.6286L68.2669 27L13 27L13 41.4L16.6813 45" stroke="#2A12FB"/>
<g filter="url(#filter0_d)">
<rect width="3" height="3" transform="matrix(-1 0 0 1 74 70)" fill="#07F0FF"/>
</g>
<g filter="url(#filter1_d)">
<circle cx="42.5" cy="50.5" r="26.5" fill="url(#paint0_radial)"/>
</g>
<g filter="url(#filter2_d)">
<path d="M51.75 57.625V58.6667C51.75 59.2192 51.5305 59.7491 51.1398 60.1398C50.7491 60.5305 50.2192 60.75 49.6667 60.75H35.0833C34.5308 60.75 34.0009 60.5305 33.6102 60.1398C33.2195 59.7491 33 59.2192 33 58.6667V44.0833C33 43.5308 33.2195 43.0009 33.6102 42.6102C34.0009 42.2195 34.5308 42 35.0833 42H49.6667C50.2192 42 50.7491 42.2195 51.1398 42.6102C51.5305 43.0009 51.75 43.5308 51.75 44.0833V45.125H42.375C41.8225 45.125 41.2926 45.3445 40.9019 45.7352C40.5112 46.1259 40.2917 46.6558 40.2917 47.2083V55.5417C40.2917 56.0942 40.5112 56.6241 40.9019 57.0148C41.2926 57.4055 41.8225 57.625 42.375 57.625H51.75ZM42.375 55.5417H52.7917V47.2083H42.375V55.5417ZM46.5417 52.9375C46.1273 52.9375 45.7298 52.7729 45.4368 52.4799C45.1438 52.1868 44.9792 51.7894 44.9792 51.375C44.9792 50.9606 45.1438 50.5632 45.4368 50.2701C45.7298 49.9771 46.1273 49.8125 46.5417 49.8125C46.9561 49.8125 47.3535 49.9771 47.6465 50.2701C47.9395 50.5632 48.1042 50.9606 48.1042 51.375C48.1042 51.7894 47.9395 52.1868 47.6465 52.4799C47.3535 52.7729 46.9561 52.9375 46.5417 52.9375Z" fill="white"/>
</g>
<defs>
<filter id="filter0_d" x="63" y="62" width="19" height="19" filterUnits="userSpaceOnUse" color-interpolation-filters="sRGB">
<feFlood flood-opacity="0" result="BackgroundImageFix"/>
<feColorMatrix in="SourceAlpha" type="matrix" values="0 0 0 0 0 0 0 0 0 0 0 0 0 0 0 0 0 0 127 0"/>
<feOffset/>
<feGaussianBlur stdDeviation="4"/>
<feColorMatrix type="matrix" values="0 0 0 0 0.027451 0 0 0 0 0.941176 0 0 0 0 1 0 0 0 1 0"/>
<feBlend mode="normal" in2="BackgroundImageFix" result="effect1_dropShadow"/>
<feBlend mode="normal" in="SourceGraphic" in2="effect1_dropShadow" result="shape"/>
</filter>
<filter id="filter1_d" x="0" y="0" width="85" height="85" filterUnits="userSpaceOnUse" color-interpolation-filters="sRGB">
<feFlood flood-opacity="0" result="BackgroundImageFix"/>
<feColorMatrix in="SourceAlpha" type="matrix" values="0 0 0 0 0 0 0 0 0 0 0 0 0 0 0 0 0 0 127 0"/>
<feOffset dy="-8"/>
<feGaussianBlur stdDeviation="8"/>
<feColorMatrix type="matrix" values="0 0 0 0 0 0 0 0 0 0 0 0 0 0 0.620833 0 0 0 1 0"/>
<feBlend mode="normal" in2="BackgroundImageFix" result="effect1_dropShadow"/>
<feBlend mode="normal" in="SourceGraphic" in2="effect1_dropShadow" result="shape"/>
</filter>
<filter id="filter2_d" x="29" y="40" width="27.7917" height="26.75" filterUnits="userSpaceOnUse" color-interpolation-filters="sRGB">
<feFlood flood-opacity="0" result="BackgroundImageFix"/>
<feColorMatrix in="SourceAlpha" type="matrix" values="0 0 0 0 0 0 0 0 0 0 0 0 0 0 0 0 0 0 127 0"/>
<feOffset dy="2"/>
<feGaussianBlur stdDeviation="2"/>
<feColorMatrix type="matrix" values="0 0 0 0 0 0 0 0 0 0 0 0 0 0 0 0 0 0 0.2 0"/>
<feBlend mode="normal" in2="BackgroundImageFix" result="effect1_dropShadow"/>
<feBlend mode="normal" in="SourceGraphic" in2="effect1_dropShadow" result="shape"/>
</filter>
<radialGradient id="paint0_radial" cx="0" cy="0" r="1" gradientUnits="userSpaceOnUse" gradientTransform="translate(42.5 50.5) rotate(90) scale(26.5)">
<stop stop-color="#3D60E7"/>
<stop offset="1" stop-color="#080334"/>
</radialGradient>
</defs>
</svg>
