<svg width="119" height="40" viewBox="0 0 119 40" fill="none" xmlns="http://www.w3.org/2000/svg">
<path d="M113.36 0H4.8C2.14903 0 0 2.14903 0 4.8V35.2C0 37.851 2.14903 40 4.8 40H113.36C116.011 40 118.16 37.851 118.16 35.2V4.8C118.16 2.14903 116.011 0 113.36 0Z" fill="#2A264E"/>
<path fill-rule="evenodd" clip-rule="evenodd" d="M25.8672 19.0847C25.8415 16.2234 28.21 14.8314 28.3183 14.7666C26.9769 12.8109 24.8978 12.5437 24.1672 12.5224C22.421 12.3386 20.7271 13.5673 19.8376 13.5673C18.9303 13.5673 17.5605 12.5402 16.0842 12.5703C14.1844 12.5996 12.4071 13.6996 11.4324 15.4076C9.42071 18.8903 10.921 24.0082 12.8483 26.8232C13.8124 28.2028 14.939 29.7413 16.4135 29.6871C17.8561 29.6285 18.395 28.7674 20.1359 28.7674C21.8608 28.7674 22.3668 29.6871 23.8707 29.6516C25.4189 29.6285 26.3937 28.2676 27.324 26.8756C28.4382 25.2972 28.8856 23.7392 28.9033 23.6593C28.8678 23.6477 25.8974 22.5141 25.8672 19.0847Z" fill="white"/>
<path fill-rule="evenodd" clip-rule="evenodd" d="M23.0263 10.6706C23.8022 9.70024 24.3331 8.38015 24.1857 7.04053C23.0627 7.09024 21.6583 7.81731 20.8495 8.76632C20.134 9.60258 19.4948 10.9733 19.6599 12.2623C20.9214 12.3564 22.2167 11.6258 23.0263 10.6706Z" fill="white"/>
<path fill-rule="evenodd" clip-rule="evenodd" d="M46.7621 29.4888H44.746L43.6417 26.0186H39.803L38.751 29.4888H36.7882L40.5922 17.6746H42.9412L46.7621 29.4888ZM43.3088 24.5626L42.31 21.4786C42.2044 21.1625 42.0055 20.4204 41.7144 19.2521H41.6788C41.5617 19.7546 41.3743 20.4967 41.1178 21.4786L40.1359 24.5626H43.3088Z" fill="white"/>
<path fill-rule="evenodd" clip-rule="evenodd" d="M56.5256 25.1249C56.5256 26.5737 56.1323 27.7189 55.3449 28.5596C54.64 29.308 53.7638 29.6817 52.7189 29.6817C51.5905 29.6817 50.7791 29.2796 50.2864 28.4726V32.9425H48.3937V23.7702C48.3937 22.8602 48.3698 21.9272 48.3236 20.9702H49.9881L50.0938 22.3214H50.1293C50.7605 21.3031 51.7184 20.7944 53.0038 20.7944C54.0088 20.7944 54.8477 21.1913 55.5189 21.9858C56.1891 22.7821 56.5256 23.8279 56.5256 25.1249ZM54.5974 25.1941C54.5974 24.365 54.4109 23.6814 54.0363 23.1434C53.627 22.5833 53.0775 22.3018 52.3886 22.3018C51.9217 22.3018 51.4973 22.4581 51.1183 22.767C50.7383 23.0768 50.4897 23.4826 50.3734 23.9859C50.3148 24.2194 50.2855 24.4103 50.2855 24.5612V25.9834C50.2855 26.6012 50.4755 27.1241 50.8555 27.552C51.2354 27.9781 51.729 28.1921 52.3363 28.1921C53.0491 28.1921 53.604 27.916 54.0008 27.3682C54.3985 26.8187 54.5974 26.0943 54.5974 25.1941Z" fill="white"/>
<path fill-rule="evenodd" clip-rule="evenodd" d="M66.3237 25.1249C66.3237 26.5737 65.9304 27.7189 65.143 28.5596C64.4372 29.308 63.5619 29.6817 62.5161 29.6817C61.3887 29.6817 60.5773 29.2796 60.0837 28.4726V32.9425H58.191V23.7702C58.191 22.8602 58.167 21.9272 58.1208 20.9702H59.7854L59.891 22.3214H59.9265C60.5568 21.3031 61.5147 20.7944 62.8011 20.7944C63.8051 20.7944 64.645 21.1913 65.317 21.9858C65.9863 22.7821 66.3237 23.8279 66.3237 25.1249ZM64.3946 25.1941C64.3946 24.365 64.2073 23.6814 63.8327 23.1434C63.4243 22.5833 62.8757 22.3018 62.1868 22.3018C61.7198 22.3018 61.2955 22.4581 60.9146 22.767C60.5355 23.0768 60.287 23.4826 60.1707 23.9859C60.113 24.2194 60.0819 24.4103 60.0819 24.5612V25.9834C60.0819 26.6012 60.2728 27.1241 60.6509 27.552C61.0309 27.9772 61.5245 28.1921 62.1335 28.1921C62.8473 28.1921 63.4021 27.916 63.798 27.3682C64.1957 26.8187 64.3946 26.0943 64.3946 25.1941Z" fill="white"/>
<path fill-rule="evenodd" clip-rule="evenodd" d="M77.2786 26.1758C77.2786 27.1807 76.9279 27.9983 76.2284 28.6295C75.4596 29.3184 74.3863 29.6638 73.0102 29.6638C71.739 29.6638 70.7198 29.4187 69.951 28.9278L70.3887 27.3503C71.2188 27.8412 72.1305 28.0871 73.123 28.0871C73.8367 28.0871 74.3916 27.9255 74.7875 27.6051C75.1852 27.2828 75.385 26.854 75.385 26.3178C75.385 25.8375 75.2199 25.4345 74.8932 25.1069C74.5656 24.7811 74.0241 24.4757 73.2641 24.197C71.1957 23.4255 70.1606 22.2963 70.1606 20.8129C70.1606 19.8434 70.5263 19.0498 71.2552 18.4292C71.9849 17.8096 72.9525 17.4998 74.1563 17.4998C75.2314 17.4998 76.1272 17.6871 76.8382 18.0608L76.3633 19.6037C75.6939 19.2415 74.9384 19.0604 74.0933 19.0604C73.4257 19.0604 72.9011 19.2247 72.5273 19.5514C72.2122 19.8434 72.0515 20.1994 72.0515 20.622C72.0515 21.0881 72.2335 21.4751 72.5966 21.7778C72.9108 22.0584 73.4843 22.3629 74.3135 22.6896C75.3308 23.0997 76.0774 23.5773 76.5568 24.1259C77.0389 24.6746 77.2786 25.359 77.2786 26.1758Z" fill="white"/>
<path fill-rule="evenodd" clip-rule="evenodd" d="M83.5523 22.3905H81.466V26.5265C81.466 27.5785 81.8336 28.1032 82.5704 28.1032C82.9086 28.1032 83.1892 28.0748 83.4111 28.0153L83.4635 29.4526C83.0906 29.592 82.5997 29.6621 81.9925 29.6621C81.2441 29.6621 80.6608 29.4331 80.2383 28.9776C79.8175 28.5213 79.6071 27.757 79.6071 26.681V22.387H78.3651V20.9665H79.6071V19.4068L81.466 18.8457V20.9665H83.5523V22.3905Z" fill="white"/>
<path fill-rule="evenodd" clip-rule="evenodd" d="M92.9467 25.1593C92.9467 26.4687 92.5729 27.5438 91.8245 28.3845C91.0424 29.2492 90.002 29.6815 88.705 29.6815C87.4532 29.6815 86.4581 29.2669 85.7159 28.4378C84.9737 27.6086 84.6027 26.5628 84.6027 25.3013C84.6027 23.9812 84.9871 22.9 85.7505 22.0593C86.5158 21.2186 87.5473 20.7969 88.8443 20.7969C90.0952 20.7969 91.0984 21.2132 91.8592 22.0415C92.5853 22.8467 92.9467 23.8845 92.9467 25.1593ZM90.9847 25.2028C90.9847 24.4225 90.816 23.7531 90.4778 23.1929C90.081 22.5165 89.5119 22.1791 88.7769 22.1791C88.0196 22.1791 87.4364 22.5165 87.0413 23.1929C86.7013 23.7531 86.5335 24.434 86.5335 25.2383C86.5335 26.0195 86.7013 26.6907 87.0413 27.2482C87.4506 27.9255 88.0214 28.2638 88.7618 28.2638C89.4844 28.2638 90.0517 27.9175 90.4627 27.2322C90.8098 26.6587 90.9847 25.9849 90.9847 25.2028Z" fill="white"/>
<path fill-rule="evenodd" clip-rule="evenodd" d="M99.1013 22.6347C98.9139 22.6001 98.7133 22.5833 98.5047 22.5833C97.8389 22.5833 97.324 22.8327 96.9618 23.337C96.6466 23.7808 96.4895 24.3419 96.4895 25.0193V29.4891H94.5968V23.653C94.5968 22.672 94.5781 21.7763 94.5417 20.9711H96.1903L96.2596 22.601H96.3119C96.5126 22.0408 96.8268 21.589 97.2583 21.2516C97.6808 20.9462 98.1354 20.7944 98.6263 20.7944C98.8012 20.7944 98.9592 20.8077 99.0995 20.8291L99.1013 22.6347Z" fill="white"/>
<path fill-rule="evenodd" clip-rule="evenodd" d="M107.566 24.8267C107.566 25.1659 107.544 25.4517 107.497 25.6852H101.82C101.84 26.5268 102.116 27.1713 102.643 27.6152C103.121 28.0111 103.741 28.21 104.5 28.21C105.34 28.21 106.107 28.0768 106.797 27.8069L107.094 29.1208C106.288 29.4715 105.335 29.6472 104.238 29.6472C102.917 29.6472 101.88 29.2584 101.125 28.4825C100.373 27.7057 99.9952 26.6608 99.9952 25.3541C99.9952 24.0704 100.345 23.0006 101.048 22.1475C101.783 21.2367 102.777 20.7812 104.027 20.7812C105.254 20.7812 106.184 21.2367 106.814 22.1475C107.315 22.8692 107.566 23.7641 107.566 24.8267ZM105.761 24.3358C105.775 23.7739 105.65 23.2909 105.394 22.8808C105.066 22.3535 104.562 22.0907 103.886 22.0907C103.267 22.0907 102.763 22.3472 102.38 22.8621C102.065 23.2714 101.877 23.7641 101.82 24.334L105.761 24.3358Z" fill="white"/>
<path d="M40.072 13.12C39.6827 13.12 39.328 13.056 39.008 12.928C38.688 12.8 38.4133 12.6133 38.184 12.368C37.9547 12.1227 37.776 11.8213 37.648 11.464C37.5253 11.1013 37.464 10.688 37.464 10.224C37.464 9.76 37.5333 9.34933 37.672 8.992C37.816 8.62933 38.008 8.32533 38.248 8.08C38.488 7.83467 38.768 7.648 39.088 7.52C39.408 7.392 39.7493 7.328 40.112 7.328C40.3413 7.328 40.5467 7.344 40.728 7.376C40.9147 7.408 41.0747 7.44533 41.208 7.488C41.3467 7.53067 41.4587 7.57333 41.544 7.616C41.6293 7.65867 41.688 7.69067 41.72 7.712L41.496 8.352C41.448 8.32 41.3787 8.28533 41.288 8.248C41.1973 8.21067 41.0933 8.17333 40.976 8.136C40.864 8.09867 40.7387 8.06933 40.6 8.048C40.4667 8.02133 40.3307 8.008 40.192 8.008C39.8987 8.008 39.6347 8.05867 39.4 8.16C39.1653 8.26133 38.9653 8.408 38.8 8.6C38.6347 8.792 38.5067 9.02667 38.416 9.304C38.3307 9.576 38.288 9.88267 38.288 10.224C38.288 10.5547 38.3253 10.856 38.4 11.128C38.48 11.4 38.5973 11.6347 38.752 11.832C38.9067 12.024 39.0987 12.1733 39.328 12.28C39.5627 12.3867 39.8347 12.44 40.144 12.44C40.5013 12.44 40.7973 12.4027 41.032 12.328C41.2667 12.2533 41.4427 12.1867 41.56 12.128L41.76 12.768C41.7227 12.7947 41.656 12.8293 41.56 12.872C41.464 12.9093 41.344 12.9467 41.2 12.984C41.056 13.0213 40.888 13.0533 40.696 13.08C40.504 13.1067 40.296 13.12 40.072 13.12ZM42.2687 10.224C42.2687 9.74933 42.338 9.33067 42.4767 8.968C42.6207 8.60533 42.8127 8.304 43.0527 8.064C43.298 7.81867 43.5807 7.63467 43.9007 7.512C44.226 7.38933 44.57 7.328 44.9327 7.328C45.29 7.328 45.626 7.38933 45.9407 7.512C46.2607 7.63467 46.5407 7.81867 46.7807 8.064C47.0207 8.304 47.21 8.60533 47.3487 8.968C47.4927 9.33067 47.5647 9.74933 47.5647 10.224C47.5647 10.6987 47.4927 11.1173 47.3487 11.48C47.21 11.8427 47.0207 12.1467 46.7807 12.392C46.5407 12.632 46.2607 12.8133 45.9407 12.936C45.626 13.0587 45.29 13.12 44.9327 13.12C44.57 13.12 44.226 13.0587 43.9007 12.936C43.5807 12.8133 43.298 12.632 43.0527 12.392C42.8127 12.1467 42.6207 11.8427 42.4767 11.48C42.338 11.1173 42.2687 10.6987 42.2687 10.224ZM43.0847 10.224C43.0847 10.56 43.1274 10.8667 43.2127 11.144C43.298 11.416 43.418 11.648 43.5727 11.84C43.7327 12.032 43.9247 12.1813 44.1487 12.288C44.378 12.3893 44.634 12.44 44.9167 12.44C45.1994 12.44 45.4527 12.3893 45.6767 12.288C45.9007 12.1813 46.09 12.032 46.2447 11.84C46.4047 11.648 46.5274 11.416 46.6127 11.144C46.698 10.8667 46.7407 10.56 46.7407 10.224C46.7407 9.888 46.698 9.584 46.6127 9.312C46.5274 9.03467 46.4047 8.8 46.2447 8.608C46.09 8.416 45.9007 8.26933 45.6767 8.168C45.4527 8.06133 45.1994 8.008 44.9167 8.008C44.634 8.008 44.378 8.06133 44.1487 8.168C43.9247 8.26933 43.7327 8.416 43.5727 8.608C43.418 8.8 43.298 9.03467 43.2127 9.312C43.1274 9.584 43.0847 9.888 43.0847 10.224ZM51.2073 12.232C51.1539 12.104 51.0819 11.9413 50.9913 11.744C50.9059 11.5467 50.8126 11.3333 50.7113 11.104C50.6099 10.8747 50.5006 10.64 50.3832 10.4C50.2713 10.1547 50.1646 9.92533 50.0633 9.712C49.9619 9.49333 49.8659 9.29867 49.7753 9.128C49.6899 8.95733 49.6206 8.82667 49.5673 8.736C49.5086 9.36533 49.4606 10.048 49.4233 10.784C49.3859 11.5147 49.3539 12.2533 49.3273 13H48.5673C48.5886 12.52 48.6126 12.0373 48.6393 11.552C48.6659 11.0613 48.6953 10.5813 48.7273 10.112C48.7646 9.63733 48.8019 9.176 48.8393 8.728C48.8819 8.28 48.9273 7.856 48.9753 7.456H49.6553C49.7993 7.69067 49.9539 7.968 50.1193 8.288C50.2846 8.608 50.4499 8.944 50.6153 9.296C50.7806 9.64267 50.9406 9.992 51.0953 10.344C51.2499 10.6907 51.3913 11.008 51.5193 11.296C51.6473 11.008 51.7886 10.6907 51.9433 10.344C52.0979 9.992 52.2579 9.64267 52.4233 9.296C52.5886 8.944 52.7539 8.608 52.9193 8.288C53.0846 7.968 53.2393 7.69067 53.3833 7.456H54.0633C54.2446 9.24267 54.3806 11.0907 54.4713 13H53.7113C53.6846 12.2533 53.6526 11.5147 53.6153 10.784C53.5779 10.048 53.5299 9.36533 53.4713 8.736C53.4179 8.82667 53.3459 8.95733 53.2553 9.128C53.1699 9.29867 53.0766 9.49333 52.9753 9.712C52.8739 9.92533 52.7646 10.1547 52.6473 10.4C52.5353 10.64 52.4286 10.8747 52.3273 11.104C52.2259 11.3333 52.1299 11.5467 52.0393 11.744C51.9539 11.9413 51.8846 12.104 51.8313 12.232H51.2073ZM55.688 7.456H56.464V13H55.688V7.456ZM61.6364 13C61.5191 12.8027 61.3831 12.5813 61.2284 12.336C61.0791 12.0907 60.9164 11.8373 60.7404 11.576C60.5644 11.3093 60.3804 11.04 60.1884 10.768C60.0018 10.496 59.8151 10.2347 59.6284 9.984C59.4418 9.728 59.2604 9.488 59.0844 9.264C58.9084 9.04 58.7458 8.84267 58.5964 8.672V13H57.8364V7.456H58.4524C58.7031 7.72267 58.9698 8.03467 59.2524 8.392C59.5404 8.744 59.8231 9.10933 60.1004 9.488C60.3831 9.86133 60.6471 10.2293 60.8924 10.592C61.1431 10.9547 61.3538 11.2773 61.5244 11.56V7.456H62.2844V13H61.6364ZM67.0408 10.272H67.8168V12.864C67.7528 12.8853 67.6594 12.9093 67.5368 12.936C67.4194 12.9627 67.2808 12.9893 67.1208 13.016C66.9661 13.0427 66.7954 13.064 66.6088 13.08C66.4221 13.1013 66.2328 13.112 66.0408 13.112C65.6514 13.112 65.2968 13.048 64.9768 12.92C64.6568 12.792 64.3821 12.6053 64.1528 12.36C63.9234 12.1147 63.7448 11.8133 63.6168 11.456C63.4941 11.0987 63.4328 10.688 63.4328 10.224C63.4328 9.76 63.5021 9.34933 63.6408 8.992C63.7848 8.62933 63.9768 8.32533 64.2168 8.08C64.4568 7.83467 64.7368 7.648 65.0568 7.52C65.3821 7.392 65.7288 7.328 66.0968 7.328C66.3474 7.328 66.5688 7.344 66.7608 7.376C66.9581 7.408 67.1261 7.44533 67.2648 7.488C67.4034 7.53067 67.5154 7.57333 67.6008 7.616C67.6914 7.65867 67.7528 7.69067 67.7848 7.712L67.5368 8.36C67.3821 8.25867 67.1768 8.176 66.9208 8.112C66.6648 8.04267 66.4034 8.008 66.1368 8.008C65.8541 8.008 65.5954 8.05867 65.3608 8.16C65.1314 8.26133 64.9341 8.408 64.7688 8.6C64.6088 8.792 64.4834 9.02667 64.3928 9.304C64.3021 9.576 64.2568 9.88267 64.2568 10.224C64.2568 10.5547 64.2941 10.856 64.3688 11.128C64.4488 11.4 64.5661 11.6347 64.7208 11.832C64.8808 12.024 65.0754 12.1733 65.3048 12.28C65.5394 12.3867 65.8141 12.44 66.1288 12.44C66.3528 12.44 66.5421 12.4293 66.6968 12.408C66.8568 12.3813 66.9714 12.3573 67.0408 12.336V10.272ZM72.1713 12.448C72.982 12.448 73.3873 12.1707 73.3873 11.616C73.3873 11.4453 73.35 11.3013 73.2753 11.184C73.206 11.0613 73.11 10.9573 72.9873 10.872C72.8646 10.7813 72.7233 10.704 72.5633 10.64C72.4086 10.576 72.2433 10.512 72.0673 10.448C71.8646 10.3787 71.6726 10.3013 71.4913 10.216C71.31 10.1253 71.1526 10.0213 71.0193 9.904C70.886 9.78133 70.7793 9.63733 70.6993 9.472C70.6246 9.30667 70.5873 9.10667 70.5873 8.872C70.5873 8.38667 70.7526 8.008 71.0833 7.736C71.414 7.464 71.87 7.328 72.4513 7.328C72.7873 7.328 73.0913 7.36533 73.3633 7.44C73.6406 7.50933 73.8433 7.58667 73.9713 7.672L73.7233 8.304C73.6113 8.23467 73.4433 8.168 73.2193 8.104C73.0006 8.03467 72.7446 8 72.4513 8C72.302 8 72.1633 8.016 72.0353 8.048C71.9073 8.08 71.7953 8.128 71.6993 8.192C71.6033 8.256 71.526 8.33867 71.4673 8.44C71.414 8.536 71.3873 8.65067 71.3873 8.784C71.3873 8.93333 71.4166 9.05867 71.4753 9.16C71.534 9.26133 71.6166 9.352 71.7233 9.432C71.83 9.50667 71.9526 9.576 72.0913 9.64C72.2353 9.704 72.3926 9.768 72.5633 9.832C72.8033 9.928 73.022 10.024 73.2193 10.12C73.422 10.216 73.5953 10.3307 73.7393 10.464C73.8886 10.5973 74.0033 10.7573 74.0833 10.944C74.1633 11.1253 74.2033 11.3467 74.2033 11.608C74.2033 12.0933 74.0246 12.4667 73.6673 12.728C73.3153 12.9893 72.8166 13.12 72.1713 13.12C71.9526 13.12 71.75 13.104 71.5633 13.072C71.382 13.0453 71.2193 13.0133 71.0753 12.976C70.9313 12.9333 70.806 12.8907 70.6993 12.848C70.598 12.8 70.518 12.76 70.4593 12.728L70.6913 12.088C70.814 12.1573 71.0006 12.2347 71.2513 12.32C71.502 12.4053 71.8086 12.448 72.1713 12.448ZM74.9171 10.224C74.9171 9.74933 74.9865 9.33067 75.1251 8.968C75.2691 8.60533 75.4611 8.304 75.7011 8.064C75.9465 7.81867 76.2291 7.63467 76.5491 7.512C76.8745 7.38933 77.2185 7.328 77.5811 7.328C77.9385 7.328 78.2745 7.38933 78.5891 7.512C78.9091 7.63467 79.1891 7.81867 79.4291 8.064C79.6691 8.304 79.8585 8.60533 79.9971 8.968C80.1411 9.33067 80.2131 9.74933 80.2131 10.224C80.2131 10.6987 80.1411 11.1173 79.9971 11.48C79.8585 11.8427 79.6691 12.1467 79.4291 12.392C79.1891 12.632 78.9091 12.8133 78.5891 12.936C78.2745 13.0587 77.9385 13.12 77.5811 13.12C77.2185 13.12 76.8745 13.0587 76.5491 12.936C76.2291 12.8133 75.9465 12.632 75.7011 12.392C75.4611 12.1467 75.2691 11.8427 75.1251 11.48C74.9865 11.1173 74.9171 10.6987 74.9171 10.224ZM75.7331 10.224C75.7331 10.56 75.7758 10.8667 75.8611 11.144C75.9465 11.416 76.0665 11.648 76.2211 11.84C76.3811 12.032 76.5731 12.1813 76.7971 12.288C77.0265 12.3893 77.2825 12.44 77.5651 12.44C77.8478 12.44 78.1011 12.3893 78.3251 12.288C78.5491 12.1813 78.7385 12.032 78.8931 11.84C79.0531 11.648 79.1758 11.416 79.2611 11.144C79.3465 10.8667 79.3891 10.56 79.3891 10.224C79.3891 9.888 79.3465 9.584 79.2611 9.312C79.1758 9.03467 79.0531 8.8 78.8931 8.608C78.7385 8.416 78.5491 8.26933 78.3251 8.168C78.1011 8.06133 77.8478 8.008 77.5651 8.008C77.2825 8.008 77.0265 8.06133 76.7971 8.168C76.5731 8.26933 76.3811 8.416 76.2211 8.608C76.0665 8.8 75.9465 9.03467 75.8611 9.312C75.7758 9.584 75.7331 9.888 75.7331 10.224ZM81.1437 10.224C81.1437 9.74933 81.213 9.33067 81.3517 8.968C81.4957 8.60533 81.6877 8.304 81.9277 8.064C82.173 7.81867 82.4557 7.63467 82.7757 7.512C83.101 7.38933 83.445 7.328 83.8077 7.328C84.165 7.328 84.501 7.38933 84.8157 7.512C85.1357 7.63467 85.4157 7.81867 85.6557 8.064C85.8957 8.304 86.085 8.60533 86.2237 8.968C86.3677 9.33067 86.4397 9.74933 86.4397 10.224C86.4397 10.6987 86.3677 11.1173 86.2237 11.48C86.085 11.8427 85.8957 12.1467 85.6557 12.392C85.4157 12.632 85.1357 12.8133 84.8157 12.936C84.501 13.0587 84.165 13.12 83.8077 13.12C83.445 13.12 83.101 13.0587 82.7757 12.936C82.4557 12.8133 82.173 12.632 81.9277 12.392C81.6877 12.1467 81.4957 11.8427 81.3517 11.48C81.213 11.1173 81.1437 10.6987 81.1437 10.224ZM81.9597 10.224C81.9597 10.56 82.0024 10.8667 82.0877 11.144C82.173 11.416 82.293 11.648 82.4477 11.84C82.6077 12.032 82.7997 12.1813 83.0237 12.288C83.253 12.3893 83.509 12.44 83.7917 12.44C84.0744 12.44 84.3277 12.3893 84.5517 12.288C84.7757 12.1813 84.965 12.032 85.1197 11.84C85.2797 11.648 85.4024 11.416 85.4877 11.144C85.573 10.8667 85.6157 10.56 85.6157 10.224C85.6157 9.888 85.573 9.584 85.4877 9.312C85.4024 9.03467 85.2797 8.8 85.1197 8.608C84.965 8.416 84.7757 8.26933 84.5517 8.168C84.3277 8.06133 84.0744 8.008 83.7917 8.008C83.509 8.008 83.253 8.06133 83.0237 8.168C82.7997 8.26933 82.6077 8.416 82.4477 8.608C82.293 8.8 82.173 9.03467 82.0877 9.312C82.0024 9.584 81.9597 9.888 81.9597 10.224ZM91.3943 13C91.2769 12.8027 91.1409 12.5813 90.9863 12.336C90.8369 12.0907 90.6743 11.8373 90.4983 11.576C90.3223 11.3093 90.1383 11.04 89.9463 10.768C89.7596 10.496 89.5729 10.2347 89.3863 9.984C89.1996 9.728 89.0183 9.488 88.8423 9.264C88.6663 9.04 88.5036 8.84267 88.3543 8.672V13H87.5943V7.456H88.2103C88.4609 7.72267 88.7276 8.03467 89.0103 8.392C89.2983 8.744 89.5809 9.10933 89.8583 9.488C90.1409 9.86133 90.4049 10.2293 90.6503 10.592C90.9009 10.9547 91.1116 11.2773 91.2823 11.56V7.456H92.0423V13H91.3943Z" fill="white"/>
</svg>
