<svg width="94" height="69" viewBox="0 0 94 69" fill="none" xmlns="http://www.w3.org/2000/svg">
<path opacity="0.5" d="M2 68.0559L66.6202 3.05591H74L9.2 68.0559H2Z" stroke="white" stroke-miterlimit="10"/>
<path opacity="0.5" d="M20 68.0559L84.6202 3.05591H92L27.2 68.0559H20Z" stroke="white" stroke-miterlimit="10"/>
<rect x="14" y="12.0559" width="64" height="53" fill="#2A12FB"/>
<g clip-path="url(#clip0)">
<path d="M39.1799 54.9064C50.6953 58.673 63.0838 52.3913 66.8504 40.8759C70.617 29.3605 64.3353 16.9721 52.8199 13.2055C41.3045 9.43891 28.9161 15.7206 25.1495 27.2359C21.3829 38.7513 27.6646 51.1398 39.1799 54.9064Z" stroke="white" stroke-width="1.5625" stroke-linecap="round" stroke-linejoin="round"/>
<path d="M43.3769 42.0753C47.8059 43.524 52.5707 41.108 54.0194 36.679C55.4681 32.25 53.052 27.4852 48.623 26.0365C44.194 24.5879 39.4292 27.0039 37.9806 31.4329C36.5319 35.8619 38.9479 40.6267 43.3769 42.0753Z" stroke="white" stroke-width="1.5625" stroke-linecap="round" stroke-linejoin="round"/>
<path d="M47.8115 12.2331L44.2854 25.7274" stroke="white" stroke-width="1.5625" stroke-linecap="round" stroke-linejoin="round"/>
<path d="M52.3049 28.3505L57.4349 15.3808" stroke="white" stroke-width="1.5625" stroke-linecap="round" stroke-linejoin="round"/>
<path d="M34.565 52.7311L39.695 39.7614" stroke="white" stroke-width="1.5625" stroke-linecap="round" stroke-linejoin="round"/>
<path d="M47.7145 42.3845L44.1883 55.8788" stroke="white" stroke-width="1.5625" stroke-linecap="round" stroke-linejoin="round"/>
<path d="M67.8228 35.8676L54.3285 32.3414" stroke="white" stroke-width="1.5625" stroke-linecap="round" stroke-linejoin="round"/>
<path d="M51.7054 40.3608L64.6752 45.4909" stroke="white" stroke-width="1.5625" stroke-linecap="round" stroke-linejoin="round"/>
<path d="M27.3248 22.621L40.2945 27.751" stroke="white" stroke-width="1.5625" stroke-linecap="round" stroke-linejoin="round"/>
<path d="M37.6715 35.7705L24.1771 32.2443" stroke="white" stroke-width="1.5625" stroke-linecap="round" stroke-linejoin="round"/>
</g>
<defs>
<clipPath id="clip0">
<rect width="54" height="54" fill="white" transform="translate(28.7317) rotate(18.1125)"/>
</clipPath>
</defs>
</svg>
