<svg width="135" height="40" viewBox="0 0 135 40" fill="none" xmlns="http://www.w3.org/2000/svg">
<path d="M130 0H5C2.23858 0 0 2.23858 0 5V35C0 37.7614 2.23858 40 5 40H130C132.761 40 135 37.7614 135 35V5C135 2.23858 132.761 0 130 0Z" fill="#2A264E"/>
<path d="M68.1401 21.7501C67.3004 21.7541 66.4807 22.0067 65.7844 22.4761C65.0881 22.9455 64.5465 23.6106 64.2279 24.3875C63.9093 25.1644 63.828 26.0183 63.9942 26.8414C64.1605 27.6645 64.5668 28.4199 65.162 29.0123C65.7571 29.6047 66.5144 30.0075 67.3383 30.1699C68.1622 30.3322 69.0157 30.2469 69.7911 29.9247C70.5665 29.6024 71.2291 29.0577 71.6952 28.3592C72.1613 27.6607 72.4101 26.8398 72.4101 26.0001C72.4183 25.4381 72.3132 24.8801 72.1013 24.3595C71.8893 23.8388 71.5748 23.3662 71.1764 22.9696C70.7779 22.5731 70.3038 22.2607 69.7822 22.0512C69.2606 21.8417 68.7021 21.7393 68.1401 21.7501ZM68.1401 28.5801C67.6237 28.6162 67.1083 28.4962 66.6611 28.2355C66.2138 27.9748 65.8553 27.5857 65.6321 27.1186C65.409 26.6514 65.3315 26.128 65.4098 25.6163C65.4881 25.1045 65.7185 24.6282 66.0711 24.2492C66.4237 23.8701 66.8821 23.6059 67.3869 23.4909C67.8916 23.3759 68.4193 23.4154 68.9013 23.6042C69.3833 23.7931 69.7973 24.1225 70.0896 24.5498C70.3819 24.9771 70.5388 25.4824 70.5401 26.0001C70.5562 26.3281 70.5065 26.656 70.3938 26.9645C70.2812 27.273 70.1079 27.5558 69.8842 27.7963C69.6606 28.0368 69.391 28.23 69.0914 28.3646C68.7919 28.4992 68.4684 28.5725 68.1401 28.5801ZM58.8301 21.7501C57.99 21.7521 57.1692 22.003 56.4717 22.4712C55.7741 22.9394 55.2309 23.6039 54.9108 24.3806C54.5906 25.1574 54.5079 26.0116 54.673 26.8354C54.8381 27.6591 55.2437 28.4155 55.8384 29.0088C56.4332 29.6022 57.1905 30.006 58.0146 30.1692C58.8388 30.3324 59.6928 30.2476 60.4688 29.9256C61.2448 29.6037 61.908 29.0589 62.3745 28.3602C62.8411 27.6616 63.0901 26.8403 63.0901 26.0001C63.0982 25.4381 62.9932 24.8801 62.7813 24.3595C62.5693 23.8388 62.2548 23.3662 61.8564 22.9696C61.4579 22.5731 60.9838 22.2607 60.4622 22.0512C59.9406 21.8417 59.3821 21.7393 58.8201 21.7501H58.8301ZM58.8301 28.5801C58.3134 28.6183 57.7972 28.5 57.3487 28.2407C56.9002 27.9814 56.5402 27.593 56.3155 27.1262C56.0907 26.6594 56.0118 26.1358 56.0888 25.6234C56.1658 25.1111 56.3953 24.6339 56.7474 24.2538C57.0995 23.8737 57.5578 23.6085 58.0628 23.4925C58.5677 23.3766 59.0959 23.4154 59.5785 23.6038C60.0611 23.7922 60.4757 24.1216 60.7685 24.549C61.0613 24.9764 61.2187 25.482 61.2201 26.0001C61.2362 26.3281 61.1865 26.656 61.0738 26.9645C60.9612 27.273 60.7879 27.5558 60.5642 27.7963C60.3406 28.0368 60.071 28.23 59.7714 28.3646C59.4719 28.4992 59.1484 28.5725 58.8201 28.5801H58.8301ZM47.7401 23.0601V24.8601H52.0601C51.9924 25.7079 51.6399 26.5079 51.0601 27.1301C50.6279 27.5704 50.1083 27.9152 49.5348 28.1426C48.9613 28.3699 48.3465 28.4747 47.7301 28.4501C46.4571 28.4501 45.2362 27.9444 44.336 27.0442C43.4358 26.1441 42.9301 24.9232 42.9301 23.6501C42.9301 22.3771 43.4358 21.1562 44.336 20.256C45.2362 19.3558 46.4571 18.8501 47.7301 18.8501C48.9479 18.8303 50.1239 19.2942 51.0001 20.1401L52.2701 18.8701C51.6786 18.2711 50.9728 17.797 50.1947 17.4758C49.4166 17.1546 48.5819 16.9928 47.7401 17.0001C46.8511 16.9655 45.9643 17.1107 45.1327 17.4271C44.3012 17.7434 43.5421 18.2244 42.9009 18.8411C42.2596 19.4579 41.7495 20.1977 41.4011 21.0163C41.0527 21.8349 40.873 22.7154 40.873 23.6051C40.873 24.4948 41.0527 25.3753 41.4011 26.1939C41.7495 27.0125 42.2596 27.7524 42.9009 28.3691C43.5421 28.9859 44.3012 29.4668 45.1327 29.7831C45.9643 30.0995 46.8511 30.2447 47.7401 30.2101C48.5961 30.2488 49.4504 30.1037 50.2455 29.7846C51.0407 29.4655 51.7583 28.9798 52.3501 28.3601C53.3978 27.209 53.9571 25.6959 53.9101 24.1401C53.9133 23.7611 53.8798 23.3827 53.8101 23.0101L47.7401 23.0601ZM93.0501 24.4601C92.7893 23.6929 92.3016 23.0229 91.6516 22.539C91.0016 22.055 90.2199 21.7799 89.4101 21.7501C88.8631 21.749 88.3217 21.8602 87.8193 22.0767C87.317 22.2931 86.8644 22.6103 86.4895 23.0087C86.1146 23.407 85.8254 23.878 85.6397 24.3925C85.4541 24.907 85.3759 25.4542 85.4101 26.0001C85.3979 26.559 85.4986 27.1147 85.706 27.6338C85.9133 28.153 86.2232 28.625 86.6171 29.0217C87.0111 29.4184 87.4809 29.7316 87.9985 29.9427C88.5162 30.1538 89.0711 30.2583 89.6301 30.2501C90.3296 30.2539 91.0191 30.0841 91.6369 29.756C92.2547 29.4279 92.7815 28.9518 93.1701 28.3701L91.7201 27.3701C91.5037 27.7309 91.1973 28.0293 90.8309 28.2362C90.4646 28.443 90.0508 28.5512 89.6301 28.5501C89.1969 28.5666 88.7688 28.4524 88.4014 28.2224C88.034 27.9923 87.7444 27.657 87.5701 27.2601L93.2601 24.9101L93.0501 24.4601ZM87.2501 25.8801C87.2298 25.5708 87.2715 25.2606 87.3726 24.9676C87.4737 24.6745 87.6323 24.4047 87.8391 24.1737C88.0458 23.9428 88.2966 23.7554 88.5766 23.6225C88.8567 23.4897 89.1604 23.4141 89.4701 23.4001C89.7927 23.3789 90.1144 23.4528 90.3953 23.6128C90.6762 23.7728 90.9039 24.0118 91.0501 24.3001L87.2501 25.8801ZM82.6301 30.0001H84.5001V17.5001H82.6301V30.0001ZM79.5701 22.7001H79.5001C79.2183 22.385 78.873 22.133 78.487 21.9607C78.101 21.7884 77.6829 21.6996 77.2601 21.7001C76.1673 21.7531 75.1367 22.2245 74.3821 23.0167C73.6274 23.8089 73.2064 24.861 73.2064 25.9551C73.2064 27.0492 73.6274 28.1014 74.3821 28.8935C75.1367 29.6857 76.1673 30.1571 77.2601 30.2101C77.6839 30.2172 78.104 30.1314 78.491 29.9586C78.8781 29.7859 79.2225 29.5304 79.5001 29.2101H79.5601V29.8201C79.5601 31.4501 78.6901 32.3201 77.2901 32.3201C76.8238 32.3092 76.3713 32.1598 75.9902 31.8909C75.6091 31.622 75.3167 31.2458 75.1501 30.8101L73.5201 31.4901C73.8269 32.2365 74.3497 32.8742 75.0214 33.3214C75.6931 33.7686 76.4831 34.0049 77.2901 34.0001C79.4801 34.0001 81.2901 32.7101 81.2901 29.5701V22.0001H79.5701V22.7001ZM77.4301 28.5801C76.785 28.5233 76.1847 28.2269 75.7474 27.7493C75.31 27.2717 75.0675 26.6477 75.0675 26.0001C75.0675 25.3526 75.31 24.7285 75.7474 24.2509C76.1847 23.7734 76.785 23.477 77.4301 23.4201C77.7499 23.4365 78.0632 23.5168 78.3516 23.6562C78.6399 23.7955 78.8974 23.9912 79.1089 24.2316C79.3205 24.472 79.4818 24.7524 79.5833 25.0561C79.6848 25.3598 79.7245 25.6808 79.7001 26.0001C79.7274 26.3208 79.6893 26.6437 79.5883 26.9493C79.4872 27.2548 79.3252 27.5367 79.1121 27.7779C78.8989 28.0191 78.6391 28.2145 78.3483 28.3524C78.0575 28.4903 77.7417 28.5678 77.4201 28.5801H77.4301ZM101.81 17.5001H97.3401V30.0001H99.2101V25.2601H101.82C102.353 25.2984 102.888 25.2265 103.392 25.0488C103.896 24.8712 104.358 24.5916 104.749 24.2276C105.14 23.8636 105.452 23.4229 105.665 22.933C105.879 22.443 105.989 21.9144 105.989 21.3801C105.989 20.8458 105.879 20.3172 105.665 19.8273C105.452 19.3374 105.14 18.8967 104.749 18.5326C104.358 18.1686 103.896 17.889 103.392 17.7114C102.888 17.5337 102.353 17.4618 101.82 17.5001H101.81ZM101.81 23.5001H99.2001V19.2401H101.85C102.419 19.2401 102.965 19.4661 103.367 19.8684C103.769 20.2706 103.995 20.8162 103.995 21.3851C103.995 21.954 103.769 22.4996 103.367 22.9019C102.965 23.3041 102.419 23.5301 101.85 23.5301L101.81 23.5001ZM113.34 21.7001C112.659 21.6594 111.981 21.8185 111.39 22.1578C110.798 22.4972 110.319 23.0019 110.01 23.6101L111.67 24.3001C111.834 23.9985 112.082 23.7509 112.383 23.5876C112.685 23.4242 113.028 23.3522 113.37 23.3801C113.607 23.3524 113.848 23.3722 114.078 23.4384C114.307 23.5047 114.521 23.616 114.708 23.7658C114.894 23.9157 115.048 24.1011 115.162 24.3113C115.276 24.5215 115.346 24.7523 115.37 24.9901V25.1201C114.769 24.8021 114.1 24.6372 113.42 24.6401C111.63 24.6401 109.82 25.6401 109.82 27.4501C109.838 27.8361 109.933 28.2145 110.099 28.5632C110.266 28.9118 110.5 29.2235 110.789 29.4799C111.078 29.7363 111.416 29.9321 111.782 30.0558C112.148 30.1795 112.535 30.2286 112.92 30.2001C113.391 30.2339 113.862 30.1404 114.285 29.9292C114.707 29.7181 115.065 29.3971 115.32 29.0001H115.38V30.0001H117.18V25.1901C117.18 23.0001 115.52 21.7301 113.39 21.7301L113.34 21.7001ZM113.11 28.5501C112.5 28.5501 111.65 28.2401 111.65 27.4901C111.65 26.4901 112.71 26.1601 113.65 26.1601C114.244 26.1455 114.831 26.2905 115.35 26.5801C115.288 27.1215 115.031 27.6221 114.629 27.9896C114.227 28.3571 113.705 28.5668 113.16 28.5801L113.11 28.5501ZM123.74 22.0001L121.6 27.4201H121.54L119.32 22.0001H117.32L120.65 29.5801L118.75 33.7901H120.7L125.82 22.0001H123.74ZM106.93 30.0001H108.8V17.5001H106.93V30.0001Z" fill="white"/>
<path d="M10.4399 7.53973C10.114 7.93084 9.94945 8.43152 9.9799 8.93973V31.0597C9.94945 31.5679 10.114 32.0686 10.4399 32.4597L10.5099 32.5297L22.8999 20.1497V19.8597L10.5099 7.46973L10.4399 7.53973Z" fill="url(#paint0_linear)"/>
<path d="M26.9999 24.2797L22.8999 20.1497V19.8597L26.9999 15.7197L27.0899 15.7697L31.9999 18.5597C33.3999 19.3497 33.3999 20.6497 31.9999 21.4497L27.1099 24.2297L26.9999 24.2797Z" fill="url(#paint1_linear)"/>
<path d="M27.1199 24.22L22.8999 20L10.4399 32.46C10.7253 32.7109 11.0893 32.8541 11.4691 32.8651C11.8489 32.876 12.2206 32.754 12.5199 32.52L27.1299 24.22" fill="url(#paint2_linear)"/>
<path d="M27.1199 15.78L12.5099 7.48005C12.2106 7.24606 11.8389 7.124 11.4591 7.13496C11.0793 7.14591 10.7153 7.2892 10.4299 7.54005L22.8999 20L27.1199 15.78Z" fill="url(#paint3_linear)"/>
<path opacity="0.2" d="M26.9999 24.1299L12.5099 32.3799C12.2212 32.5957 11.8704 32.7124 11.5099 32.7124C11.1495 32.7124 10.7987 32.5957 10.5099 32.3799L10.4399 32.4499L10.5099 32.5199C10.798 32.7373 11.1491 32.8549 11.5099 32.8549C11.8708 32.8549 12.2219 32.7373 12.5099 32.5199L27.1199 24.2199L26.9999 24.1299Z" fill="#2A264E"/>
<path opacity="0.12" d="M10.4399 32.32C10.114 31.9289 9.94945 31.4282 9.9799 30.92V31.07C9.94945 31.5782 10.114 32.0789 10.4399 32.47L10.5099 32.4L10.4399 32.32ZM31.9999 21.3L26.9999 24.13L27.0899 24.22L31.9999 21.44C32.2785 21.3091 32.5177 21.1071 32.6932 20.8543C32.8688 20.6014 32.9746 20.3068 32.9999 20C32.9437 20.2787 32.8243 20.5408 32.6509 20.7662C32.4776 20.9915 32.2549 21.1742 31.9999 21.3Z" fill="#2A264E"/>
<path opacity="0.25" d="M12.51 7.61994L32 18.6999C32.2549 18.8258 32.4776 19.0084 32.651 19.2338C32.8244 19.4591 32.9437 19.7212 33 19.9999C32.9747 19.6932 32.8689 19.3985 32.6933 19.1457C32.5177 18.8929 32.2786 18.6908 32 18.5599L12.51 7.47994C11.11 6.68994 9.96997 7.34994 9.96997 8.94994V9.09994C9.99997 7.48994 11.12 6.82994 12.51 7.61994Z" fill="white"/>
<path d="M44.072 13.12C43.6827 13.12 43.328 13.056 43.008 12.928C42.688 12.8 42.4133 12.6133 42.184 12.368C41.9547 12.1227 41.776 11.8213 41.648 11.464C41.5253 11.1013 41.464 10.688 41.464 10.224C41.464 9.76 41.5333 9.34933 41.672 8.992C41.816 8.62933 42.008 8.32533 42.248 8.08C42.488 7.83467 42.768 7.648 43.088 7.52C43.408 7.392 43.7493 7.328 44.112 7.328C44.3413 7.328 44.5467 7.344 44.728 7.376C44.9147 7.408 45.0747 7.44533 45.208 7.488C45.3467 7.53067 45.4587 7.57333 45.544 7.616C45.6293 7.65867 45.688 7.69067 45.72 7.712L45.496 8.352C45.448 8.32 45.3787 8.28533 45.288 8.248C45.1973 8.21067 45.0933 8.17333 44.976 8.136C44.864 8.09867 44.7387 8.06933 44.6 8.048C44.4667 8.02133 44.3307 8.008 44.192 8.008C43.8987 8.008 43.6347 8.05867 43.4 8.16C43.1653 8.26133 42.9653 8.408 42.8 8.6C42.6347 8.792 42.5067 9.02667 42.416 9.304C42.3307 9.576 42.288 9.88267 42.288 10.224C42.288 10.5547 42.3253 10.856 42.4 11.128C42.48 11.4 42.5973 11.6347 42.752 11.832C42.9067 12.024 43.0987 12.1733 43.328 12.28C43.5627 12.3867 43.8347 12.44 44.144 12.44C44.5013 12.44 44.7973 12.4027 45.032 12.328C45.2667 12.2533 45.4427 12.1867 45.56 12.128L45.76 12.768C45.7227 12.7947 45.656 12.8293 45.56 12.872C45.464 12.9093 45.344 12.9467 45.2 12.984C45.056 13.0213 44.888 13.0533 44.696 13.08C44.504 13.1067 44.296 13.12 44.072 13.12ZM46.2687 10.224C46.2687 9.74933 46.338 9.33067 46.4767 8.968C46.6207 8.60533 46.8127 8.304 47.0527 8.064C47.298 7.81867 47.5807 7.63467 47.9007 7.512C48.226 7.38933 48.57 7.328 48.9327 7.328C49.29 7.328 49.626 7.38933 49.9407 7.512C50.2607 7.63467 50.5407 7.81867 50.7807 8.064C51.0207 8.304 51.21 8.60533 51.3487 8.968C51.4927 9.33067 51.5647 9.74933 51.5647 10.224C51.5647 10.6987 51.4927 11.1173 51.3487 11.48C51.21 11.8427 51.0207 12.1467 50.7807 12.392C50.5407 12.632 50.2607 12.8133 49.9407 12.936C49.626 13.0587 49.29 13.12 48.9327 13.12C48.57 13.12 48.226 13.0587 47.9007 12.936C47.5807 12.8133 47.298 12.632 47.0527 12.392C46.8127 12.1467 46.6207 11.8427 46.4767 11.48C46.338 11.1173 46.2687 10.6987 46.2687 10.224ZM47.0847 10.224C47.0847 10.56 47.1274 10.8667 47.2127 11.144C47.298 11.416 47.418 11.648 47.5727 11.84C47.7327 12.032 47.9247 12.1813 48.1487 12.288C48.378 12.3893 48.634 12.44 48.9167 12.44C49.1994 12.44 49.4527 12.3893 49.6767 12.288C49.9007 12.1813 50.09 12.032 50.2447 11.84C50.4047 11.648 50.5274 11.416 50.6127 11.144C50.698 10.8667 50.7407 10.56 50.7407 10.224C50.7407 9.888 50.698 9.584 50.6127 9.312C50.5274 9.03467 50.4047 8.8 50.2447 8.608C50.09 8.416 49.9007 8.26933 49.6767 8.168C49.4527 8.06133 49.1994 8.008 48.9167 8.008C48.634 8.008 48.378 8.06133 48.1487 8.168C47.9247 8.26933 47.7327 8.416 47.5727 8.608C47.418 8.8 47.298 9.03467 47.2127 9.312C47.1274 9.584 47.0847 9.888 47.0847 10.224ZM55.2073 12.232C55.1539 12.104 55.0819 11.9413 54.9913 11.744C54.9059 11.5467 54.8126 11.3333 54.7113 11.104C54.6099 10.8747 54.5006 10.64 54.3832 10.4C54.2713 10.1547 54.1646 9.92533 54.0633 9.712C53.9619 9.49333 53.8659 9.29867 53.7753 9.128C53.6899 8.95733 53.6206 8.82667 53.5673 8.736C53.5086 9.36533 53.4606 10.048 53.4233 10.784C53.3859 11.5147 53.3539 12.2533 53.3273 13H52.5673C52.5886 12.52 52.6126 12.0373 52.6393 11.552C52.6659 11.0613 52.6953 10.5813 52.7273 10.112C52.7646 9.63733 52.8019 9.176 52.8393 8.728C52.8819 8.28 52.9273 7.856 52.9753 7.456H53.6553C53.7993 7.69067 53.9539 7.968 54.1193 8.288C54.2846 8.608 54.4499 8.944 54.6153 9.296C54.7806 9.64267 54.9406 9.992 55.0953 10.344C55.2499 10.6907 55.3913 11.008 55.5193 11.296C55.6473 11.008 55.7886 10.6907 55.9433 10.344C56.0979 9.992 56.2579 9.64267 56.4233 9.296C56.5886 8.944 56.7539 8.608 56.9193 8.288C57.0846 7.968 57.2393 7.69067 57.3833 7.456H58.0633C58.2446 9.24267 58.3806 11.0907 58.4713 13H57.7113C57.6846 12.2533 57.6526 11.5147 57.6153 10.784C57.5779 10.048 57.5299 9.36533 57.4713 8.736C57.4179 8.82667 57.3459 8.95733 57.2553 9.128C57.1699 9.29867 57.0766 9.49333 56.9753 9.712C56.8739 9.92533 56.7646 10.1547 56.6473 10.4C56.5353 10.64 56.4286 10.8747 56.3273 11.104C56.2259 11.3333 56.1299 11.5467 56.0393 11.744C55.9539 11.9413 55.8846 12.104 55.8313 12.232H55.2073ZM59.688 7.456H60.464V13H59.688V7.456ZM65.6364 13C65.5191 12.8027 65.3831 12.5813 65.2284 12.336C65.0791 12.0907 64.9164 11.8373 64.7404 11.576C64.5644 11.3093 64.3804 11.04 64.1884 10.768C64.0018 10.496 63.8151 10.2347 63.6284 9.984C63.4418 9.728 63.2604 9.488 63.0844 9.264C62.9084 9.04 62.7458 8.84267 62.5964 8.672V13H61.8364V7.456H62.4524C62.7031 7.72267 62.9698 8.03467 63.2524 8.392C63.5404 8.744 63.8231 9.10933 64.1004 9.488C64.3831 9.86133 64.6471 10.2293 64.8924 10.592C65.1431 10.9547 65.3538 11.2773 65.5244 11.56V7.456H66.2844V13H65.6364ZM71.0408 10.272H71.8168V12.864C71.7528 12.8853 71.6594 12.9093 71.5368 12.936C71.4194 12.9627 71.2808 12.9893 71.1208 13.016C70.9661 13.0427 70.7954 13.064 70.6088 13.08C70.4221 13.1013 70.2328 13.112 70.0408 13.112C69.6514 13.112 69.2968 13.048 68.9768 12.92C68.6568 12.792 68.3821 12.6053 68.1528 12.36C67.9234 12.1147 67.7448 11.8133 67.6168 11.456C67.4941 11.0987 67.4328 10.688 67.4328 10.224C67.4328 9.76 67.5021 9.34933 67.6408 8.992C67.7848 8.62933 67.9768 8.32533 68.2168 8.08C68.4568 7.83467 68.7368 7.648 69.0568 7.52C69.3821 7.392 69.7288 7.328 70.0968 7.328C70.3474 7.328 70.5688 7.344 70.7608 7.376C70.9581 7.408 71.1261 7.44533 71.2648 7.488C71.4034 7.53067 71.5154 7.57333 71.6008 7.616C71.6914 7.65867 71.7528 7.69067 71.7848 7.712L71.5368 8.36C71.3821 8.25867 71.1768 8.176 70.9208 8.112C70.6648 8.04267 70.4034 8.008 70.1368 8.008C69.8541 8.008 69.5954 8.05867 69.3608 8.16C69.1314 8.26133 68.9341 8.408 68.7688 8.6C68.6088 8.792 68.4834 9.02667 68.3928 9.304C68.3021 9.576 68.2568 9.88267 68.2568 10.224C68.2568 10.5547 68.2941 10.856 68.3688 11.128C68.4488 11.4 68.5661 11.6347 68.7208 11.832C68.8808 12.024 69.0754 12.1733 69.3048 12.28C69.5394 12.3867 69.8141 12.44 70.1288 12.44C70.3528 12.44 70.5421 12.4293 70.6968 12.408C70.8568 12.3813 70.9714 12.3573 71.0408 12.336V10.272ZM76.1713 12.448C76.982 12.448 77.3873 12.1707 77.3873 11.616C77.3873 11.4453 77.35 11.3013 77.2753 11.184C77.206 11.0613 77.11 10.9573 76.9873 10.872C76.8646 10.7813 76.7233 10.704 76.5633 10.64C76.4086 10.576 76.2433 10.512 76.0673 10.448C75.8646 10.3787 75.6726 10.3013 75.4913 10.216C75.31 10.1253 75.1526 10.0213 75.0193 9.904C74.886 9.78133 74.7793 9.63733 74.6993 9.472C74.6246 9.30667 74.5873 9.10667 74.5873 8.872C74.5873 8.38667 74.7526 8.008 75.0833 7.736C75.414 7.464 75.87 7.328 76.4513 7.328C76.7873 7.328 77.0913 7.36533 77.3633 7.44C77.6406 7.50933 77.8433 7.58667 77.9713 7.672L77.7233 8.304C77.6113 8.23467 77.4433 8.168 77.2193 8.104C77.0006 8.03467 76.7446 8 76.4513 8C76.302 8 76.1633 8.016 76.0353 8.048C75.9073 8.08 75.7953 8.128 75.6993 8.192C75.6033 8.256 75.526 8.33867 75.4673 8.44C75.414 8.536 75.3873 8.65067 75.3873 8.784C75.3873 8.93333 75.4166 9.05867 75.4753 9.16C75.534 9.26133 75.6166 9.352 75.7233 9.432C75.83 9.50667 75.9526 9.576 76.0913 9.64C76.2353 9.704 76.3926 9.768 76.5633 9.832C76.8033 9.928 77.022 10.024 77.2193 10.12C77.422 10.216 77.5953 10.3307 77.7393 10.464C77.8886 10.5973 78.0033 10.7573 78.0833 10.944C78.1633 11.1253 78.2033 11.3467 78.2033 11.608C78.2033 12.0933 78.0246 12.4667 77.6673 12.728C77.3153 12.9893 76.8166 13.12 76.1713 13.12C75.9526 13.12 75.75 13.104 75.5633 13.072C75.382 13.0453 75.2193 13.0133 75.0753 12.976C74.9313 12.9333 74.806 12.8907 74.6993 12.848C74.598 12.8 74.518 12.76 74.4593 12.728L74.6913 12.088C74.814 12.1573 75.0006 12.2347 75.2513 12.32C75.502 12.4053 75.8086 12.448 76.1713 12.448ZM78.9171 10.224C78.9171 9.74933 78.9865 9.33067 79.1251 8.968C79.2691 8.60533 79.4611 8.304 79.7011 8.064C79.9465 7.81867 80.2291 7.63467 80.5491 7.512C80.8745 7.38933 81.2185 7.328 81.5811 7.328C81.9385 7.328 82.2745 7.38933 82.5891 7.512C82.9091 7.63467 83.1891 7.81867 83.4291 8.064C83.6691 8.304 83.8585 8.60533 83.9971 8.968C84.1411 9.33067 84.2131 9.74933 84.2131 10.224C84.2131 10.6987 84.1411 11.1173 83.9971 11.48C83.8585 11.8427 83.6691 12.1467 83.4291 12.392C83.1891 12.632 82.9091 12.8133 82.5891 12.936C82.2745 13.0587 81.9385 13.12 81.5811 13.12C81.2185 13.12 80.8745 13.0587 80.5491 12.936C80.2291 12.8133 79.9465 12.632 79.7011 12.392C79.4611 12.1467 79.2691 11.8427 79.1251 11.48C78.9865 11.1173 78.9171 10.6987 78.9171 10.224ZM79.7331 10.224C79.7331 10.56 79.7758 10.8667 79.8611 11.144C79.9465 11.416 80.0665 11.648 80.2211 11.84C80.3811 12.032 80.5731 12.1813 80.7971 12.288C81.0265 12.3893 81.2825 12.44 81.5651 12.44C81.8478 12.44 82.1011 12.3893 82.3251 12.288C82.5491 12.1813 82.7385 12.032 82.8931 11.84C83.0531 11.648 83.1758 11.416 83.2611 11.144C83.3465 10.8667 83.3891 10.56 83.3891 10.224C83.3891 9.888 83.3465 9.584 83.2611 9.312C83.1758 9.03467 83.0531 8.8 82.8931 8.608C82.7385 8.416 82.5491 8.26933 82.3251 8.168C82.1011 8.06133 81.8478 8.008 81.5651 8.008C81.2825 8.008 81.0265 8.06133 80.7971 8.168C80.5731 8.26933 80.3811 8.416 80.2211 8.608C80.0665 8.8 79.9465 9.03467 79.8611 9.312C79.7758 9.584 79.7331 9.888 79.7331 10.224ZM85.1437 10.224C85.1437 9.74933 85.213 9.33067 85.3517 8.968C85.4957 8.60533 85.6877 8.304 85.9277 8.064C86.173 7.81867 86.4557 7.63467 86.7757 7.512C87.101 7.38933 87.445 7.328 87.8077 7.328C88.165 7.328 88.501 7.38933 88.8157 7.512C89.1357 7.63467 89.4157 7.81867 89.6557 8.064C89.8957 8.304 90.085 8.60533 90.2237 8.968C90.3677 9.33067 90.4397 9.74933 90.4397 10.224C90.4397 10.6987 90.3677 11.1173 90.2237 11.48C90.085 11.8427 89.8957 12.1467 89.6557 12.392C89.4157 12.632 89.1357 12.8133 88.8157 12.936C88.501 13.0587 88.165 13.12 87.8077 13.12C87.445 13.12 87.101 13.0587 86.7757 12.936C86.4557 12.8133 86.173 12.632 85.9277 12.392C85.6877 12.1467 85.4957 11.8427 85.3517 11.48C85.213 11.1173 85.1437 10.6987 85.1437 10.224ZM85.9597 10.224C85.9597 10.56 86.0024 10.8667 86.0877 11.144C86.173 11.416 86.293 11.648 86.4477 11.84C86.6077 12.032 86.7997 12.1813 87.0237 12.288C87.253 12.3893 87.509 12.44 87.7917 12.44C88.0744 12.44 88.3277 12.3893 88.5517 12.288C88.7757 12.1813 88.965 12.032 89.1197 11.84C89.2797 11.648 89.4024 11.416 89.4877 11.144C89.573 10.8667 89.6157 10.56 89.6157 10.224C89.6157 9.888 89.573 9.584 89.4877 9.312C89.4024 9.03467 89.2797 8.8 89.1197 8.608C88.965 8.416 88.7757 8.26933 88.5517 8.168C88.3277 8.06133 88.0744 8.008 87.7917 8.008C87.509 8.008 87.253 8.06133 87.0237 8.168C86.7997 8.26933 86.6077 8.416 86.4477 8.608C86.293 8.8 86.173 9.03467 86.0877 9.312C86.0024 9.584 85.9597 9.888 85.9597 10.224ZM95.3943 13C95.2769 12.8027 95.1409 12.5813 94.9863 12.336C94.8369 12.0907 94.6743 11.8373 94.4983 11.576C94.3223 11.3093 94.1383 11.04 93.9463 10.768C93.7596 10.496 93.5729 10.2347 93.3863 9.984C93.1996 9.728 93.0183 9.488 92.8423 9.264C92.6663 9.04 92.5036 8.84267 92.3543 8.672V13H91.5943V7.456H92.2103C92.4609 7.72267 92.7276 8.03467 93.0103 8.392C93.2983 8.744 93.5809 9.10933 93.8583 9.488C94.1409 9.86133 94.4049 10.2293 94.6503 10.592C94.9009 10.9547 95.1116 11.2773 95.2823 11.56V7.456H96.0423V13H95.3943Z" fill="white"/>
<defs>
<linearGradient id="paint0_linear" x1="21.7999" y1="8.70973" x2="5.0199" y2="25.4897" gradientUnits="userSpaceOnUse">
<stop stop-color="#00A0FF"/>
<stop offset="0.01" stop-color="#00A1FF"/>
<stop offset="0.26" stop-color="#00BEFF"/>
<stop offset="0.51" stop-color="#00D2FF"/>
<stop offset="0.76" stop-color="#00DFFF"/>
<stop offset="1" stop-color="#00E3FF"/>
</linearGradient>
<linearGradient id="paint1_linear" x1="33.8299" y1="19.9997" x2="9.6399" y2="19.9997" gradientUnits="userSpaceOnUse">
<stop stop-color="#FFE000"/>
<stop offset="0.41" stop-color="#FFBD00"/>
<stop offset="0.78" stop-color="#FFA500"/>
<stop offset="1" stop-color="#FF9C00"/>
</linearGradient>
<linearGradient id="paint2_linear" x1="24.8299" y1="22.3" x2="2.06994" y2="45.05" gradientUnits="userSpaceOnUse">
<stop stop-color="#FF3A44"/>
<stop offset="1" stop-color="#C31162"/>
</linearGradient>
<linearGradient id="paint3_linear" x1="7.29993" y1="0.180048" x2="17.4599" y2="10.34" gradientUnits="userSpaceOnUse">
<stop stop-color="#32A071"/>
<stop offset="0.07" stop-color="#2DA771"/>
<stop offset="0.48" stop-color="#15CF74"/>
<stop offset="0.8" stop-color="#06E775"/>
<stop offset="1" stop-color="#00F076"/>
</linearGradient>
</defs>
</svg>
