<svg width="69" height="51" viewBox="0 0 69 51" fill="none" xmlns="http://www.w3.org/2000/svg">
<path d="M0 25C0 11.1929 11.1929 0 25 0H77V50H25C11.1929 50 0 38.8071 0 25Z" fill="#282850"/>
<path d="M16.94 19.4565V22.7319L15.8357 23.3688V31.4261L16.6112 31.8787L22.8173 35.4612L23.5592 35.0333L24.1941 34.6669L27.0297 33.0296L27.6656 32.6622L29.8 31.4301V30.0187L32.6357 28.3815V33.0673L30.5012 34.2994L29.8654 34.6669L27.0297 36.3041L26.3948 36.6705L22.8173 38.7366L14.0905 33.6972L13 33.0603V21.7316L16.94 19.4565ZM31.1817 16.0276L33.74 17.5043L34.3749 17.8708L37.2105 19.508L37.8464 19.8755L41 21.6959V33.0326L31.1817 38.701L27.6656 36.6705L30.5012 35.0333L31.1817 35.4265L38.1634 31.3954V23.3331L37.2105 22.7834L34.3749 21.1462L33.74 20.7788L31.1817 19.302L30.4398 19.7299L27.6052 18.0927L31.1817 16.0276ZM27.3922 8L37.2105 13.6693V18.7751L34.3749 17.1379V15.3065L27.3922 11.2754L20.4105 15.3065V23.3638L20.7285 23.5491V26.8255L18.6664 25.6349L17.5749 24.9981V13.6693L27.3922 8Z" fill="url(#paint0_linear)"/>
<path d="M24.1999 31.3905V23.3332L26.3334 22.1011L23.4977 20.4639L21.3633 21.696V33.0257L22.4548 33.6626L23.5591 34.2995L26.3948 32.6622L24.9754 31.8431L24.1999 31.3905Z" fill="white"/>
<path d="M26.968 21.7346L27.6039 22.101L29.7997 23.3688V25.2764L32.6354 23.6392V21.7316L30.4396 20.4638L29.8047 20.0973L26.968 18.4591L26.3332 18.0927L22.8171 16.0623L21.0461 17.0854V20.3598L22.8171 19.3377L23.4975 19.7299L24.1324 20.0973L26.968 21.7346Z" fill="white"/>
<path d="M33.2716 24.0047L32.6357 24.3721L29.8001 26.0103L29.1642 26.3768L27.3923 27.3999L24.835 25.9232V29.1976L27.3923 30.6743L29.1642 29.6512L29.8001 29.2847L32.6357 27.6475L33.2716 27.2801L37.2106 25.005V23.5174L34.375 21.8792V23.3678L33.2716 24.0047Z" fill="white"/>
<g filter="url(#filter0_d)">
<path d="M56.68 23.544L51 19V21.5747L53.6836 23.7215C53.8753 23.8749 53.8753 24.1251 53.6836 24.2785L51 26.4253V29L56.68 24.456C57.0028 24.2058 57.0028 23.7942 56.68 23.544Z" fill="#34F2FE"/>
<path d="M56.68 23.544L51 19V21.5747L53.6836 23.7215C53.8753 23.8749 53.8753 24.1251 53.6836 24.2785L51 26.4253V29L56.68 24.456C57.0028 24.2058 57.0028 23.7942 56.68 23.544Z" stroke="#34F2FE" stroke-miterlimit="10"/>
</g>
<defs>
<filter id="filter0_d" x="34.5" y="5.95972" width="38.9221" height="44.0806" filterUnits="userSpaceOnUse" color-interpolation-filters="sRGB">
<feFlood flood-opacity="0" result="BackgroundImageFix"/>
<feColorMatrix in="SourceAlpha" type="matrix" values="0 0 0 0 0 0 0 0 0 0 0 0 0 0 0 0 0 0 127 0"/>
<feOffset dy="4"/>
<feGaussianBlur stdDeviation="8"/>
<feColorMatrix type="matrix" values="0 0 0 0 0.94902 0 0 0 0 0.0313726 0 0 0 0 0.854902 0 0 0 1 0"/>
<feBlend mode="normal" in2="BackgroundImageFix" result="effect1_dropShadow"/>
<feBlend mode="normal" in="SourceGraphic" in2="effect1_dropShadow" result="shape"/>
</filter>
<linearGradient id="paint0_linear" x1="15.382" y1="32.0396" x2="37.2763" y2="18.1016" gradientUnits="userSpaceOnUse">
<stop stop-color="#50EDEE"/>
<stop offset="1" stop-color="#ED29B4"/>
</linearGradient>
</defs>
</svg>
