<svg width="85" height="85" viewBox="0 0 85 85" fill="none" xmlns="http://www.w3.org/2000/svg">
<g filter="url(#filter0_d)">
<path d="M73 72.5L73 36.1286L73 31.6286L68.2669 27L13 27L13 41.4L16.6813 45" stroke="#2A12FB"/>
<g filter="url(#filter1_d)">
<rect width="3" height="3" transform="matrix(-1 0 0 1 74 70)" fill="#07F0FF"/>
</g>
<g filter="url(#filter2_d)">
<circle cx="42.5" cy="50.5" r="26.5" fill="url(#paint0_radial)"/>
</g>
<g filter="url(#filter3_d)">
<path d="M42.5 42.7292C43.4669 42.7292 44.3943 43.1133 45.078 43.797C45.7617 44.4808 46.1458 45.4081 46.1458 46.375C46.1458 47.342 45.7617 48.2693 45.078 48.953C44.3943 49.6367 43.4669 50.0209 42.5 50.0209C41.5331 50.0209 40.6057 49.6367 39.922 48.953C39.2383 48.2693 38.8542 47.342 38.8542 46.375C38.8542 45.4081 39.2383 44.4808 39.922 43.797C40.6057 43.1133 41.5331 42.7292 42.5 42.7292ZM35.2083 45.3334C35.7917 45.3334 36.3333 45.4896 36.8021 45.7709C36.6458 47.2604 37.0833 48.7396 37.9792 49.8959C37.4583 50.8959 36.4167 51.5834 35.2083 51.5834C34.3795 51.5834 33.5847 51.2541 32.9986 50.6681C32.4126 50.082 32.0833 49.2872 32.0833 48.4584C32.0833 47.6296 32.4126 46.8347 32.9986 46.2486C33.5847 45.6626 34.3795 45.3334 35.2083 45.3334ZM49.7917 45.3334C50.6205 45.3334 51.4153 45.6626 52.0014 46.2486C52.5874 46.8347 52.9167 47.6296 52.9167 48.4584C52.9167 49.2872 52.5874 50.082 52.0014 50.6681C51.4153 51.2541 50.6205 51.5834 49.7917 51.5834C48.5833 51.5834 47.5417 50.8959 47.0208 49.8959C47.929 48.7234 48.3506 47.2461 48.1979 45.7709C48.6667 45.4896 49.2083 45.3334 49.7917 45.3334ZM35.7292 56.0104C35.7292 53.8542 38.7604 52.1042 42.5 52.1042C46.2396 52.1042 49.2708 53.8542 49.2708 56.0104V57.8334H35.7292V56.0104ZM30 57.8334V56.2709C30 54.8229 31.9687 53.6042 34.6354 53.25C34.0208 53.9584 33.6458 54.9375 33.6458 56.0104V57.8334H30ZM55 57.8334H51.3542V56.0104C51.3542 54.9375 50.9792 53.9584 50.3646 53.25C53.0312 53.6042 55 54.8229 55 56.2709V57.8334Z" fill="white"/>
</g>
</g>
<defs>
<filter id="filter0_d" x="8.5" y="24" width="69.5" height="61" filterUnits="userSpaceOnUse" color-interpolation-filters="sRGB">
<feFlood flood-opacity="0" result="BackgroundImageFix"/>
<feColorMatrix in="SourceAlpha" type="matrix" values="0 0 0 0 0 0 0 0 0 0 0 0 0 0 0 0 0 0 127 0"/>
<feOffset dy="4"/>
<feGaussianBlur stdDeviation="2"/>
<feColorMatrix type="matrix" values="0 0 0 0 0 0 0 0 0 0 0 0 0 0 0 0 0 0 0.25 0"/>
<feBlend mode="normal" in2="BackgroundImageFix" result="effect1_dropShadow"/>
<feBlend mode="normal" in="SourceGraphic" in2="effect1_dropShadow" result="shape"/>
</filter>
<filter id="filter1_d" x="63" y="62" width="19" height="19" filterUnits="userSpaceOnUse" color-interpolation-filters="sRGB">
<feFlood flood-opacity="0" result="BackgroundImageFix"/>
<feColorMatrix in="SourceAlpha" type="matrix" values="0 0 0 0 0 0 0 0 0 0 0 0 0 0 0 0 0 0 127 0"/>
<feOffset/>
<feGaussianBlur stdDeviation="4"/>
<feColorMatrix type="matrix" values="0 0 0 0 0.027451 0 0 0 0 0.941176 0 0 0 0 1 0 0 0 1 0"/>
<feBlend mode="normal" in2="BackgroundImageFix" result="effect1_dropShadow"/>
<feBlend mode="normal" in="SourceGraphic" in2="effect1_dropShadow" result="shape"/>
</filter>
<filter id="filter2_d" x="0" y="0" width="85" height="85" filterUnits="userSpaceOnUse" color-interpolation-filters="sRGB">
<feFlood flood-opacity="0" result="BackgroundImageFix"/>
<feColorMatrix in="SourceAlpha" type="matrix" values="0 0 0 0 0 0 0 0 0 0 0 0 0 0 0 0 0 0 127 0"/>
<feOffset dy="-8"/>
<feGaussianBlur stdDeviation="8"/>
<feColorMatrix type="matrix" values="0 0 0 0 0 0 0 0 0 0 0 0 0 0 0.620833 0 0 0 1 0"/>
<feBlend mode="normal" in2="BackgroundImageFix" result="effect1_dropShadow"/>
<feBlend mode="normal" in="SourceGraphic" in2="effect1_dropShadow" result="shape"/>
</filter>
<filter id="filter3_d" x="26" y="40.7292" width="33" height="23.1042" filterUnits="userSpaceOnUse" color-interpolation-filters="sRGB">
<feFlood flood-opacity="0" result="BackgroundImageFix"/>
<feColorMatrix in="SourceAlpha" type="matrix" values="0 0 0 0 0 0 0 0 0 0 0 0 0 0 0 0 0 0 127 0"/>
<feOffset dy="2"/>
<feGaussianBlur stdDeviation="2"/>
<feColorMatrix type="matrix" values="0 0 0 0 0 0 0 0 0 0 0 0 0 0 0 0 0 0 0.2 0"/>
<feBlend mode="normal" in2="BackgroundImageFix" result="effect1_dropShadow"/>
<feBlend mode="normal" in="SourceGraphic" in2="effect1_dropShadow" result="shape"/>
</filter>
<radialGradient id="paint0_radial" cx="0" cy="0" r="1" gradientUnits="userSpaceOnUse" gradientTransform="translate(42.5 50.5) rotate(90) scale(26.5)">
<stop stop-color="#3D60E7"/>
<stop offset="1" stop-color="#080334"/>
</radialGradient>
</defs>
</svg>
