<svg width="139" height="55" viewBox="0 0 139 55" fill="none" xmlns="http://www.w3.org/2000/svg">
<path d="M50.88 22.8H58.08L59.24 20.4H46.04L47.28 22.8H48.48L47.9 24L46.76 26.4L45.02 30H54.62L55.78 27.6H48.58L49.16 26.4H53.96L57.5 24H50.3L50.88 22.8ZM61.3244 20.4L60.1644 22.8L57.8644 27.6L56.7044 30H66.3044L67.4644 27.6H60.2644L62.5644 22.8H69.7644L70.9244 20.4H61.3244ZM71.9441 27.6L75.4041 20.4H73.0041L69.5441 27.6L68.3841 30H77.9841L79.1441 27.6H71.9441ZM84.3908 20.4L79.7708 30H82.1708L86.7908 20.4H84.3908ZM98.4634 20.4H88.8634L87.1234 24L85.9834 26.4L84.2434 30H86.6434L88.3834 26.4H95.5834L96.7234 24L98.4634 20.4ZM94.9034 22.8L94.3234 24H89.5234L90.1034 22.8H94.9034ZM100.543 20.4L99.3831 22.8L97.0831 27.6L95.9231 30H105.523L106.683 27.6H99.4831L101.783 22.8H108.983L110.143 20.4H100.543ZM112.223 20.4L107.603 30H110.003L114.623 20.4H112.223ZM126.355 20.4H116.755L115.595 22.8H119.195L115.735 30H118.135L121.595 22.8H125.195L126.355 20.4ZM135.614 20.4L133.874 24H129.074L130.814 20.4H128.414L126.674 24L125.534 26.4H132.734L132.154 27.6H124.954L123.794 30H133.394L135.134 26.4L136.274 24L138.014 20.4H135.614Z" fill="white"/>
<g filter="url(#filter0_d)">
<circle cx="27.0401" cy="25.96" r="7.82" fill="url(#paint0_radial)"/>
</g>
<g filter="url(#filter1_d)">
<path d="M35.1822 28.8599C35.3132 28.4831 35.6008 28.1993 35.9435 28.0517L38.2025 28.3187L36.115 26.9465C35.8375 26.7024 35.6529 26.3497 35.636 25.9453C35.626 25.5434 35.7851 25.1762 36.056 24.9179L37.2557 23.9967L35.8132 23.8263C35.464 23.6981 35.1633 23.4304 35.0071 23.064C34.8509 22.6976 34.8645 22.296 35.0209 21.9592L36.2836 20.5121L34.4 21.0263C34.0282 21.0311 33.6509 20.8932 33.3669 20.6C33.0899 20.3092 32.9527 19.9337 32.9706 19.5648L33.0261 18.5213L32.0527 18.9203C31.7054 19.0585 31.303 19.0605 30.9354 18.8948C30.5677 18.729 30.3121 18.4222 30.1911 18.0679L29.8152 17.4478L29.1116 17.7975C28.8407 18.0558 28.4675 18.2007 28.0678 18.1724C27.6657 18.151 27.3172 17.9528 27.0778 17.6671L26.5243 16.3539L25.9659 17.8075C25.8095 18.1443 25.5102 18.4163 25.1302 18.5354C24.7501 18.6545 24.3437 18.6004 24.0209 18.4188L23.1063 17.9005L23.0343 18.9462C23.0069 19.3197 22.8362 19.675 22.5207 19.9257C22.2051 20.1764 21.8183 20.2698 21.4448 20.2114L20.3831 20.0487L20.6974 21.0478C20.809 21.4066 20.7743 21.801 20.5754 22.1466C20.3766 22.4922 20.0448 22.7217 19.6793 22.799L18.6535 23.0315L19.3061 23.8503C19.536 24.1405 19.6544 24.5251 19.5891 24.9168C19.5309 25.3108 19.3039 25.6468 18.9889 25.8508L18.1171 26.4334L19.0268 26.9656C19.3471 27.1541 19.5909 27.4726 19.6833 27.8638C19.7686 28.2527 19.7078 29.0626 19.4905 29.3706L19.206 29.9672L19.9013 29.9785C20.2748 30.0368 20.6114 30.2466 20.8408 30.5835C21.0632 30.918 21.1227 31.3135 21.0295 31.6722L20.9245 32.5536L21.8071 32.4714C22.1725 32.3942 22.5717 32.4693 22.9011 32.7C23.2304 32.9306 23.9968 32.9527 24.0424 33.32L23.6122 34.6875L24.4957 34.1168C24.8107 33.9128 25.2067 33.8383 25.5962 33.9412C25.9881 34.0372 26.3007 34.2934 26.4785 34.6203L26.9866 35.5377L27.6048 34.688C27.8196 34.387 28.1606 34.1763 28.5634 34.1276C28.9663 34.0788 29.3485 34.2027 29.6354 34.4422L30.4401 35.118L30.7046 34.1074C30.7978 33.7488 31.0364 33.4247 31.3936 33.2352C31.7509 33.0458 32.151 33.0274 32.5027 33.1485L33.6773 33.5755L33.3757 32.4492C33.3301 32.0818 33.44 31.6977 33.6973 31.3879C33.9592 31.0874 34.3233 30.9237 34.6999 30.9051L36.125 31.4385L35.2628 29.9425C35.0872 29.632 35.0513 29.2367 35.1822 28.8599ZM33.5612 30.8929C30.96 33.9817 25.3985 35.0439 22.2891 32.4566C19.1798 29.8692 18.0962 24.1366 20.6974 21.0478C21.7626 19.7802 23.4404 18.9665 25.2637 18.6272C26.4502 18.4064 27.6983 18.3863 28.8795 18.5727C30.2997 18.7968 31.623 19.3193 32.6259 20.1498C35.7353 22.7372 36.153 27.8086 33.5612 30.8929Z" fill="url(#paint1_linear)"/>
<path d="M26.4508 18.3207L26.65 16.3413L27.056 18.2904L26.4508 18.3207Z" fill="url(#paint2_linear)"/>
<path d="M22.6302 19.7188L21.4448 16.0534L23.373 19.1747L22.6302 19.7188Z" fill="url(#paint3_linear)"/>
<path d="M21.589 20.6053L20.441 18.9591L22.0114 20.2019L21.589 20.6053Z" fill="url(#paint4_linear)"/>
<path d="M19.4047 24.5289L16.6303 23.559L19.3592 23.5479L19.4047 24.5289Z" fill="url(#paint5_linear)"/>
<path d="M19.3134 24.9598L18.3882 23.8263L19.3852 24.3695L19.3134 24.9598Z" fill="url(#paint6_linear)"/>
<path d="M19.4932 27.5485L17.4837 27.6986L19.3581 26.9539L19.4932 27.5485Z" fill="url(#paint7_linear)"/>
<path d="M21.2778 31.3013L19.6833 31.8824L20.718 30.515L21.2778 31.3013Z" fill="url(#paint8_linear)"/>
<path d="M23.4718 32.9041L22.3653 34.6203L22.9954 32.5575L23.4718 32.9041Z" fill="url(#paint9_linear)"/>
<path d="M25.1819 33.6995L24.3205 35.4958L24.6015 33.5262L25.1819 33.6995Z" fill="url(#paint10_linear)"/>
<path d="M26.2911 33.9172L25.5962 35.3644L25.6983 33.8457L26.2911 33.9172Z" fill="url(#paint11_linear)"/>
<path d="M31.1397 33.3577L31.6528 35.2785L30.594 33.5811L31.1397 33.3577Z" fill="url(#paint12_linear)"/>
<path d="M33.525 31.3748L33.6773 32.6933L33.0821 31.7758L33.525 31.3748Z" fill="url(#paint13_linear)"/>
<path d="M33.558 30.4881L35.4114 31.6722L32.9939 31.1802L33.558 30.4881Z" fill="url(#paint14_linear)"/>
<path d="M35.2773 27.8608L38.6795 29.4747L35.1033 28.4388L35.2773 27.8608Z" fill="url(#paint15_linear)"/>
<path d="M35.0267 26.7697L36.934 27.2888L34.9549 27.36L35.0267 26.7697Z" fill="url(#paint16_linear)"/>
<path d="M35.4114 25.1908L37.401 25.3357L35.4613 25.7791L35.4114 25.1908Z" fill="url(#paint17_linear)"/>
<path d="M34.1081 22.4653L37.7422 21.2773L34.5332 23.3229L34.1081 22.4653Z" fill="url(#paint18_linear)"/>
<path d="M34.3222 21.36L36.1451 20.5265L34.6561 21.8546L34.3222 21.36Z" fill="url(#paint19_linear)"/>
<path d="M31.663 19.1356L33.0981 17.7389L32.1369 19.5025L31.663 19.1356Z" fill="url(#paint20_linear)"/>
<path d="M28.9216 18.3789L30.8979 14.6452L30.1285 18.83L28.9216 18.3789Z" fill="url(#paint21_linear)"/>
<path fill-rule="evenodd" clip-rule="evenodd" d="M37.4308 27.2941C36.9931 27.3712 36.5532 27.4487 36.1338 27.5929C35.2202 27.9096 35.0881 28.6818 35.8083 29.3032C35.8489 29.337 35.8864 29.3755 35.9294 29.4196C35.9493 29.44 35.9705 29.4617 35.9936 29.4847C35.8997 29.4828 35.809 29.4793 35.7207 29.4759C35.5206 29.4682 35.3327 29.4609 35.1479 29.4747C34.8382 29.4953 34.7201 29.6388 34.801 29.9384C34.8524 30.1219 34.9424 30.2979 35.0319 30.4729C35.0643 30.5362 35.0967 30.5995 35.1271 30.6629C35.1671 30.7415 35.2131 30.8188 35.269 30.9127C35.3062 30.9753 35.3478 31.0453 35.395 31.1279C35.2866 31.1163 35.1861 31.1062 35.0907 31.0966C34.9137 31.0787 34.7541 31.0626 34.5951 31.0421C34.1372 30.9875 33.7514 31.1131 33.4385 31.4619C33.2112 31.7176 32.9845 31.968 32.743 32.206C32.5794 32.3716 32.5326 32.5551 32.596 32.7666C32.6367 32.8992 32.6771 33.032 32.7175 33.165L32.7177 33.1657C32.8554 33.6188 32.9934 34.073 33.1449 34.5223C33.2408 34.8083 33.3556 35.0861 33.4707 35.3642C33.5219 35.4881 33.5732 35.6123 33.6229 35.7371L33.5679 35.7958C33.5315 35.7668 33.4938 35.7388 33.4561 35.7108C33.3806 35.6548 33.3052 35.5988 33.2402 35.5344C33.0163 35.3087 32.7948 35.0792 32.5731 34.8496C32.2797 34.5458 31.986 34.2416 31.6862 33.9455C30.9116 33.1782 29.4329 33.4342 28.9992 34.4003C28.9564 34.4985 28.9303 34.6024 28.9043 34.7055C28.8868 34.7752 28.8693 34.8447 28.8468 34.9119C28.806 35.0281 28.7593 35.1436 28.7013 35.2871C28.6816 35.3359 28.6606 35.3879 28.6381 35.4443C28.6106 35.4146 28.5849 35.387 28.5607 35.3609C28.453 35.2451 28.3739 35.16 28.2958 35.0682C28.2243 34.9834 28.1547 34.8966 28.0851 34.8099C27.9361 34.6241 27.7873 34.4387 27.6213 34.2739C27.3973 34.0506 27.2251 34.0967 27.0707 34.3764C26.9841 34.5287 26.9023 34.6869 26.7998 34.886L26.7811 34.8227L26.7646 34.7666C26.7223 34.623 26.6874 34.5042 26.6491 34.385C26.486 33.8989 26.1029 33.75 25.7255 34.0973C25.2346 34.5456 24.7717 35.0345 24.3492 35.5493C24.1191 35.8262 23.928 36.1337 23.7366 36.4416C23.6545 36.5737 23.5724 36.7059 23.4871 36.8357C23.4487 36.8909 23.4051 36.9454 23.3614 37C23.3481 36.9986 23.3362 36.996 23.3244 36.9933C23.3125 36.9907 23.3007 36.9881 23.2873 36.9867L23.3156 36.7258C23.3451 36.4038 23.3751 36.0825 23.4051 35.7614C23.4656 35.1143 23.526 34.4678 23.5818 33.8187C23.63 33.2744 23.4607 32.8953 23.0624 32.7879C22.8211 32.7243 22.528 32.7413 22.2824 32.8173C21.8666 32.944 21.1692 33.2255 20.6729 33.4258L20.672 33.4262L20.6699 33.4271C20.6213 33.4467 20.5746 33.4655 20.5304 33.4833C20.5724 33.2308 20.7125 32.9563 20.8468 32.6933C20.9602 32.4713 21.0694 32.2575 21.1117 32.0721C21.3233 31.1145 20.712 30.284 19.7304 30.2325C19.4538 30.2195 19.1769 30.2086 18.8885 30.1972C18.7126 30.1902 18.532 30.1831 18.345 30.1753C18.3745 30.1257 18.403 30.078 18.4309 30.0313C18.5397 29.8492 18.6394 29.6822 18.7604 29.4765C18.3435 29.5216 17.9382 29.5649 17.5389 29.6075L17.5379 29.6076L17.5363 29.6077C17.027 29.662 16.5276 29.7153 16.0262 29.7701C16.0179 29.7477 16.0089 29.7305 16 29.7134L16.9931 29.0605C17.2276 28.9056 17.4629 28.7517 17.6979 28.5979L17.6987 28.5974C18.0399 28.3742 18.3807 28.1512 18.718 27.926C18.8392 27.8529 18.9419 27.7508 19.0346 27.6422C19.2512 27.3854 19.2294 27.2376 18.9234 27.0755C18.5654 26.8833 18.2033 26.7002 17.8405 26.5168C17.7332 26.4626 17.6255 26.4082 17.5182 26.3536C17.5027 26.3454 17.4868 26.3372 17.4694 26.3282C17.4293 26.3075 17.3815 26.2828 17.3141 26.2455C17.3373 26.2279 17.3594 26.211 17.3808 26.1946C17.4567 26.1364 17.523 26.0856 17.5954 26.0387C17.9253 25.8317 18.2605 25.6253 18.5957 25.4189C19.3755 24.9425 19.5105 24.1436 18.934 23.4407C18.6808 23.1388 18.4276 22.8369 18.1797 22.5356C18.1186 22.4649 18.0621 22.3869 17.9918 22.2897C17.9794 22.2726 17.9666 22.2549 17.9532 22.2365C18.0485 22.2242 18.1413 22.2124 18.2323 22.2008L18.234 22.2006L18.2345 22.2005C18.5555 22.1597 18.8532 22.1219 19.1521 22.0744C19.2074 22.0648 19.2621 22.0357 19.3159 22.007C19.3369 21.9958 19.3578 21.9847 19.3786 21.9748C19.3692 21.9584 19.3602 21.9413 19.3511 21.9241C19.3252 21.8749 19.2986 21.8244 19.259 21.7842L17.2327 19.7244C17.1792 19.6702 17.1317 19.6112 17.1166 19.5019C17.6343 19.6713 18.1533 19.8398 18.6786 20.0104L18.68 20.0108L18.6809 20.0111C19.3228 20.2195 19.974 20.431 20.6439 20.6509C20.5622 20.3351 20.3454 20.0331 20.1286 19.7311C19.9119 19.429 19.6951 19.127 19.6133 18.8112C19.8902 18.8781 20.2876 18.9422 20.6806 19.0056C21.0858 19.071 21.4863 19.1356 21.7448 19.2016C22.2907 19.341 22.9107 19.0952 23.2054 18.6151C23.2201 18.5948 23.1871 18.3546 23.1588 18.1486C23.1384 17.9999 23.1204 17.8689 23.1246 17.8513C23.1703 17.603 23.2504 17.5149 23.3305 17.4268C23.4106 17.3387 23.4907 17.2506 23.5365 17.0024C23.5499 16.9141 23.5746 16.8271 23.6043 16.7221C23.6156 16.6822 23.6277 16.6395 23.6401 16.5933C23.8671 16.7389 24.0648 16.915 24.2614 17.09C24.5802 17.374 24.8958 17.655 25.3275 17.798C25.3414 17.7941 25.4588 16.8465 25.5762 15.899C25.6937 14.9514 25.8111 14.0039 25.825 14C25.8499 14.0489 25.8779 14.0966 25.9058 14.1441C25.9528 14.2242 25.9996 14.304 26.0311 14.3884C26.2058 14.836 26.3761 15.2852 26.5472 15.7366C26.649 16.0054 26.7512 16.2749 26.8548 16.5453C26.8854 16.6237 26.9195 16.7008 26.9564 16.784C26.9855 16.85 27.0164 16.9197 27.0486 16.997C27.2632 16.6592 27.4524 16.3563 27.6416 16.0534C27.6579 16.0525 27.7532 16.2114 27.8485 16.3703C27.9438 16.5292 28.0391 16.6881 28.0554 16.6872C28.1725 16.9022 28.2164 16.9663 28.2597 17.0293C28.3062 17.0971 28.3518 17.1637 28.4867 17.4154C28.5252 17.3378 28.5615 17.2652 28.5978 17.1926C28.6523 17.0834 28.7071 16.9736 28.7693 16.8478C28.7816 16.8833 28.7945 16.9147 28.8062 16.9433C28.8295 17.0004 28.8484 17.0467 28.8505 17.0935C28.8778 17.8883 30.0453 18.1645 30.6009 17.7663C30.6946 17.6982 30.7872 17.6274 30.8798 17.5565C30.9724 17.4857 31.0651 17.4148 31.1588 17.3468C31.2521 17.2782 31.3519 17.215 31.4644 17.1439C31.5215 17.1077 31.5819 17.0695 31.6464 17.0275C31.6462 17.1087 31.6455 17.1878 31.645 17.2651L31.645 17.2659C31.6429 17.5314 31.6411 17.7762 31.6523 18.0192C31.6594 18.2031 31.6931 18.3899 31.7552 18.5635C31.8895 18.9331 32.418 18.4141 32.9094 17.9315C33.1633 17.6822 33.4072 17.4427 33.5818 17.3403C33.5818 17.3403 32.841 19.7441 33.4186 19.3914C33.5762 19.2935 34.0259 18.8337 34.4782 18.3711C34.9387 17.9001 35.402 17.4263 35.5622 17.3294C35.572 17.3385 35.5805 17.3475 35.5889 17.3565L35.5901 17.3577L35.5967 17.3447L35.6048 17.3288C35.659 17.3303 35.6244 17.3442 35.5908 17.3578L35.5901 17.3577C35.5981 17.3662 35.6064 17.375 35.6157 17.3836C35.5805 17.4702 35.4209 17.9108 35.2362 18.4211C34.9582 19.189 34.6231 20.1145 34.5686 20.2284C34.3196 20.7349 34.3429 21.2168 34.6523 21.6972C34.8046 21.9344 34.9505 22.1816 35.0738 22.4373C35.2246 22.7389 35.4584 22.9203 35.7785 23.0031C36.0464 23.0696 36.3084 23.1408 36.6279 23.229C36.483 23.3738 36.348 23.5107 36.2068 23.6539L36.2063 23.6544L36.2048 23.6559C36.1285 23.7333 36.0503 23.8126 35.9677 23.896C36.0978 23.91 36.3291 23.938 36.5462 23.9643C36.7381 23.9875 36.9193 24.0095 37.0093 24.0191C37.0111 24.0274 36.911 24.0233 36.8109 24.0191C36.7108 24.015 36.6107 24.0109 36.6125 24.0191C36.5537 24.0517 36.4955 24.0858 36.4372 24.12C36.3419 24.1759 36.2462 24.2321 36.1471 24.2816C35.8964 24.4055 35.7791 24.5922 35.7491 24.8691C35.6645 25.7003 35.7365 25.8319 36.5203 26.1154L38.8095 26.9429C38.8771 26.9663 38.9382 26.9998 39 27.0765C38.8376 27.0986 38.6749 27.1188 38.5121 27.139C38.1865 27.1794 37.8607 27.2199 37.5383 27.2751L37.4824 27.2849L37.4308 27.2941ZM35.5622 17.3294C35.5802 17.3286 35.5942 17.3285 35.6048 17.3288C35.7073 17.1263 35.8021 16.937 35.5622 17.3294ZM35.5899 17.3582L35.5766 17.3845C35.5273 17.3837 35.5578 17.3711 35.5899 17.3582ZM34.7962 26.914C34.2974 31.0985 30.4865 34.0881 26.2842 33.5914C24.3976 33.3685 22.7528 32.4807 21.5581 31.1913C20.0918 29.6088 19.3036 27.4213 19.5784 25.1155C19.9614 21.9024 22.2973 19.3938 25.2637 18.6272C26.4502 18.4064 27.6983 18.3863 28.8795 18.5727C30.5577 18.949 32.0036 19.8624 33.052 21.1045C33.127 21.1934 32.9743 21.445 32.8213 21.6968C32.6711 21.9442 32.5207 22.1918 32.5863 22.2855C33.2936 21.8029 34.0434 22.6108 34.1502 22.7938C34.9548 24.1732 34.9995 25.208 34.7962 26.914Z" fill="url(#paint22_linear)"/>
<path fill-rule="evenodd" clip-rule="evenodd" d="M34.5276 32.2852C34.6154 32.2933 34.6996 32.301 34.8647 32.3673C35.0644 32.542 35.9102 32.8997 36.1099 32.7568C36.1912 32.4466 35.9747 32.3574 35.7746 32.275C35.729 32.2562 35.6842 32.2377 35.644 32.217C34.9783 31.8678 34.346 31.4709 33.8301 30.8994C34.1196 30.8157 34.3815 30.9086 34.6423 31.0011C34.8762 31.084 35.1094 31.1667 35.3611 31.1217C35.3278 30.7883 35.0282 30.6772 34.7953 30.6296C34.3792 30.5502 34.1296 30.2803 34.1795 29.9787C34.2217 29.7641 34.5252 29.7082 34.799 29.6577C34.8493 29.6484 34.8986 29.6393 34.945 29.6295C35.7722 29.4401 36.5828 29.6272 37.6059 29.8633L37.6243 29.8676C36.5925 29.185 35.7771 28.6453 34.945 28.0896C35.0753 28.0068 35.2622 27.984 35.4277 27.9638C35.6429 27.9376 35.822 27.9157 35.7938 27.7721C35.7785 27.6883 35.7834 27.5902 35.7885 27.4875C35.8052 27.1524 35.8244 26.7681 35.1529 26.6686L35.1544 26.6533C36.0069 26.5425 36.6564 26.3846 37.2582 26.1053C37.3632 25.9551 37.2716 25.9135 37.1792 25.8715C37.1544 25.8602 37.1296 25.8489 37.1084 25.8354C37.0418 25.8254 36.9745 25.8161 36.9068 25.8067C36.6535 25.7716 36.3963 25.736 36.1599 25.6608C35.7438 25.5338 35.3611 25.3592 35.7938 24.8671C35.9746 24.6754 35.8703 24.5299 35.7666 24.3854C35.6986 24.2906 35.6308 24.1961 35.644 24.0892C35.7486 24.0129 35.8577 23.941 35.9664 23.8693C36.1516 23.7472 36.3354 23.6261 36.4927 23.486C36.709 23.2955 36.8255 23.0098 36.6924 22.7081C36.6105 22.5323 36.4558 22.6006 36.2946 22.6717C36.1939 22.7162 36.0906 22.7618 36.001 22.7496C35.9401 22.741 35.8797 22.7328 35.8197 22.7246C35.437 22.6727 35.0717 22.6231 34.7121 22.4859L34.9783 21.7239C35.0116 21.5334 34.9284 21.4699 34.7453 21.5017L34.5956 21.5493C34.5677 21.5611 34.5392 21.5736 34.5101 21.5863C34.3508 21.656 34.1759 21.7324 34.0185 21.7403C33.9119 21.5663 33.7989 21.3968 33.6797 21.2319C33.7465 21.1585 33.8553 21.1022 33.9612 21.0474C34.0348 21.0094 34.107 20.9721 34.1629 20.9302C34.9783 20.2952 35.258 19.7237 35.1082 18.7395C34.6809 19.119 34.0865 19.3989 33.5632 19.6454C33.4955 19.6773 33.4289 19.7087 33.3641 19.7396C33.231 19.3586 32.0494 18.676 31.6667 18.7395C31.7499 17.8822 32.0494 17.0726 32.6652 16.4059C32.2159 16.0725 31.9829 16.1837 31.7665 16.6599C31.5474 17.1661 31.2802 17.657 30.9983 18.175C30.9013 18.3533 30.8025 18.5348 30.7034 18.7212C30.6345 18.6874 30.565 18.6545 30.495 18.6226C30.3531 18.3113 30.2723 18.0671 30.2854 17.8029C30.2905 17.7546 30.3171 17.6932 30.3441 17.6307C30.4061 17.4872 30.4708 17.3377 30.2854 17.3266C30.0706 17.3109 30.0034 17.5457 29.9536 17.72L29.9526 17.7235C29.8032 17.8304 29.7469 17.7418 29.6932 17.6571C29.6752 17.6286 29.6574 17.6006 29.6364 17.5806C29.2893 17.4893 29.2952 17.2666 29.3011 17.0424C29.3034 16.9549 29.3057 16.8671 29.287 16.7869C29.2786 16.7508 29.2755 16.7097 29.2723 16.6678C29.263 16.5439 29.2532 16.4138 29.1039 16.39C28.8876 16.3583 28.7877 16.5329 28.7045 16.7075C28.6757 16.757 28.6688 16.8161 28.6618 16.8768C28.6485 16.9911 28.6346 17.1112 28.4715 17.1838C28.337 16.6706 28.3233 16.1446 28.3099 15.6288C28.3083 15.5702 28.3068 15.5117 28.3051 15.4534C28.3051 15.4347 28.3055 15.4149 28.3059 15.3945C28.3092 15.2239 28.3134 15.0072 28.1054 14.9931C27.8059 14.9613 27.5599 16.1995 27.5599 16.39C27.5517 16.7239 27.6144 16.8375 27.6805 16.9574C27.7496 17.0827 27.8225 17.215 27.8225 17.6124C27.5412 17.4037 27.299 17.226 27.0674 17.0562C26.9292 16.9548 26.7944 16.856 26.6576 16.7551C26.6298 16.7313 26.6025 16.7065 26.5751 16.6817C26.4384 16.5579 26.2997 16.4323 26.0918 16.4059C25.9753 16.4535 25.8755 16.5011 25.9753 16.644C25.9642 16.7042 25.9564 16.7651 25.9485 16.8262C25.9212 17.0389 25.8938 17.2527 25.7257 17.4378C25.6531 17.3477 25.6565 17.2396 25.6599 17.1305C25.6644 16.9894 25.6689 16.8467 25.5094 16.7393C25.4594 16.8345 25.4262 16.898 25.3762 16.9615C25.3052 17.0518 25.2847 17.1642 25.2638 17.2787C25.226 17.4862 25.1869 17.7006 24.8437 17.8029C24.3783 17.9403 24.3261 17.7187 24.2744 17.499C24.2484 17.3888 24.2226 17.2791 24.1448 17.2155C24.0676 17.1542 24.0084 17.0255 23.9485 16.8952C23.8533 16.6884 23.7564 16.4776 23.5828 16.5263C23.2666 16.6216 23.1296 17.2949 23.0964 17.5647C23.0464 18.0251 22.8634 18.4537 22.1478 18.2474C21.7171 18.1241 21.4815 17.8347 21.2471 17.5469C21.1193 17.3899 20.9917 17.2333 20.8331 17.1044C20.6667 17.0726 20.5835 17.1044 20.6501 17.279C20.5377 17.4935 20.6261 17.672 20.7149 17.8514C20.7707 17.9642 20.8267 18.0772 20.8331 18.1997C20.8622 18.2791 20.8893 18.3595 20.9163 18.4398C20.9975 18.6809 21.0786 18.922 21.2159 19.1363C21.2335 19.1657 21.2592 19.1929 21.2848 19.2198C21.3559 19.295 21.4259 19.3688 21.3157 19.4856C21.3133 19.5342 21.3133 19.5859 21.3134 19.637C21.3137 19.9366 21.314 20.2188 20.8165 19.7713C20.7968 19.7549 20.7724 19.7298 20.7444 19.701C20.5833 19.5353 20.3043 19.2485 20.1342 19.8031C20.0892 19.9104 20.067 19.8654 20.0471 19.8249C20.0375 19.8055 20.0285 19.7872 20.0177 19.7872C19.8846 19.5967 19.6849 19.5808 19.5351 19.7237C19.4215 19.8321 19.5295 19.9556 19.6121 20.05L19.6183 20.0571C19.6765 20.1285 19.7389 20.196 19.8014 20.2634C19.8638 20.3309 19.9262 20.3984 19.9844 20.4698C20.0425 20.7885 19.8977 20.7202 19.7382 20.6448C19.715 20.6339 19.6915 20.6228 19.6682 20.6127C19.6189 20.5791 19.5755 20.5426 19.5331 20.5069C19.4753 20.4583 19.4192 20.4112 19.352 20.3746C19.3428 20.3687 19.3335 20.3627 19.3239 20.3565C19.1779 20.2628 18.9934 20.1442 18.8528 20.2634C18.6813 20.427 18.8026 20.5607 18.9183 20.6882C18.9486 20.7215 18.9784 20.7544 19.0026 20.7873L19.1523 20.9778C19.3504 21.2117 19.2011 21.2468 19.0496 21.2824C18.9338 21.3096 18.8167 21.3371 18.8528 21.454C18.8528 21.5834 18.9163 21.7263 18.98 21.8697C19.1351 22.2188 19.2916 22.5711 18.5366 22.7399C18.5094 22.7464 18.4837 22.7535 18.4584 22.7605C18.36 22.7878 18.2696 22.8128 18.1372 22.7875C17.9209 22.7558 17.7378 22.8986 17.7212 23.1526C17.7077 23.3454 17.8361 23.3613 17.965 23.3772C17.9952 23.381 18.0255 23.3847 18.054 23.3907C18.1372 23.4066 18.2163 23.4265 18.2953 23.4463C18.3744 23.4661 18.4534 23.486 18.5366 23.5019C18.8694 23.5654 19.2855 23.7559 19.2023 24.0575C19.1295 24.3451 18.9593 24.2671 18.7769 24.1836C18.6673 24.1335 18.5533 24.0813 18.4534 24.1051C18.4254 24.114 18.4026 24.1279 18.3762 24.1441C18.3556 24.1566 18.3328 24.1706 18.3036 24.1845C18.7513 24.8251 18.4027 24.8307 18.0527 24.8363C17.8303 24.8398 17.6074 24.8434 17.588 25.01C17.6235 25.0776 17.7012 25.0789 17.7787 25.0803C17.8832 25.0822 17.9874 25.084 17.9874 25.2481C18.0706 25.2481 18.1039 25.3116 18.054 25.3433C18.0077 25.358 18.0115 25.3523 18.0173 25.3435C18.0239 25.3333 18.0333 25.3189 17.9708 25.3274C17.8951 25.3386 17.8173 25.3361 17.7396 25.3336C17.5954 25.3289 17.4516 25.3243 17.3218 25.4068L17.3384 25.4227C17.2412 25.5154 17.0952 25.5489 16.9482 25.5826C16.6925 25.6413 16.4337 25.7006 16.4231 26.0736C16.5412 26.3834 16.8165 26.3934 17.0746 26.4028C17.1075 26.4039 17.1401 26.4051 17.172 26.4069C17.6713 26.4545 18.1705 26.3911 18.7363 26.2799C18.3702 26.9308 17.821 27.0578 17.2552 27.1689C17.2172 27.1822 17.1789 27.1952 17.1405 27.2082C16.6744 27.3663 16.2066 27.5249 16.4065 28.1849L16.5064 28.2801C16.785 28.2313 17.0558 28.1436 17.3295 28.0549C17.8569 27.8841 18.3948 27.7098 19.0192 27.8039C18.952 27.9001 18.9028 28.0029 18.8548 28.1032C18.7364 28.3504 18.6255 28.5821 18.2703 28.6611C17.9375 28.7405 17.588 29.0421 17.7212 29.3279C17.8234 29.5553 18.0262 29.465 18.2294 29.3746C18.324 29.3325 18.4187 29.2903 18.5033 29.2802C18.5699 29.2644 18.6198 29.2485 18.6697 29.2326C18.9647 29.1422 19.2396 29.2171 19.5157 29.2924C19.6484 29.3285 19.7814 29.3648 19.917 29.3827C19.9562 29.4635 19.9968 29.5435 20.0387 29.6228C19.8357 29.6678 19.6756 29.6081 19.4871 29.5378C19.3201 29.4755 19.1307 29.4048 18.8694 29.3914C18.703 29.3914 18.1281 30.3179 18.1447 30.5084C18.1561 30.5735 18.4362 30.6804 18.6495 30.7618C18.7482 30.7995 18.8326 30.8317 18.8694 30.8518C18.944 30.8874 19.029 30.918 19.1157 30.9492C19.1838 30.9737 19.2529 30.9985 19.3188 31.0264C19.4685 31.2487 19.4852 31.4551 19.3021 31.6614C19.1813 31.7766 19.0302 31.8396 18.878 31.9029C18.7785 31.9444 18.6786 31.986 18.5865 32.0424C18.5782 32.0583 18.5657 32.0702 18.5532 32.0821C18.5408 32.094 18.5283 32.1059 18.52 32.1218C18.6059 32.5957 19.2467 32.3258 19.8683 32.0639C20.3294 31.8697 20.7799 31.6799 20.9855 31.8016C21.0955 31.8691 21.0454 32.2205 21.0003 32.5357C20.95 32.888 20.9062 33.1951 21.0994 33.0108C21.4176 32.6921 21.7509 32.7941 22.0995 32.9008C22.1156 32.9057 22.1317 32.9106 22.1478 32.9155L22.1503 32.914C22.2809 32.8362 22.2811 32.8361 22.4465 32.8203C22.3787 32.8572 22.3732 32.9103 22.3673 32.967C22.3631 33.0077 22.3587 33.0503 22.3308 33.0901C22.3003 33.142 22.2642 33.1925 22.2277 33.2435C22.0857 33.4421 21.9389 33.6474 22.0979 33.9633C22.2105 33.9334 22.2878 33.8385 22.3653 33.7435C22.4938 33.5857 22.6225 33.4277 22.9133 33.5664C23.1617 33.6849 23.1462 33.8647 23.131 34.0411C23.1217 34.1483 23.1126 34.2542 23.1629 34.3442C23.1629 34.3681 23.1619 34.3919 23.1608 34.4157C23.1577 34.4871 23.1546 34.5586 23.1796 34.63C23.2128 34.7887 23.3293 34.9157 23.5124 34.9475C23.6622 34.9157 23.8452 34.8999 23.9451 35.0427C24.4107 35.7154 24.5041 35.3835 24.5994 35.0449C24.6232 34.96 24.6473 34.8746 24.6773 34.8046C24.7588 34.7268 24.7713 34.6302 24.7846 34.5276C24.7957 34.4417 24.8073 34.3516 24.8603 34.2649C24.9381 34.3242 24.9981 34.4098 25.058 34.4952C25.1902 34.6837 25.3217 34.8712 25.6425 34.7729C25.7923 34.5347 25.942 34.2807 26.0918 34.0109C26.1242 34.056 26.1555 34.1048 26.1871 34.154C26.3666 34.4336 26.5568 34.7301 27.0237 34.4871C27.0452 34.4616 27.0528 34.4228 27.0605 34.3836C27.0768 34.3012 27.0934 34.2167 27.2401 34.249C27.3566 34.2807 27.4231 34.376 27.3399 34.4871C27.3233 34.8681 27.3233 35.392 27.7726 35.3602C28.123 35.3345 28.0805 34.986 28.0428 34.6773C28.034 34.6049 28.0254 34.5346 28.0222 34.4712C28.021 34.4507 28.0197 34.4303 28.0183 34.41C28.0042 34.1996 27.9909 34.0006 28.1762 33.8388C28.2462 33.83 28.3159 33.8202 28.3852 33.8096C28.5906 34.3568 28.9458 34.7882 29.4367 35.0904C29.7371 34.9514 29.694 34.7271 29.6504 34.5003C29.6143 34.3125 29.5779 34.123 29.7363 33.9791C30.1024 33.9791 30.4186 34.0744 30.6516 34.3601C30.7348 34.5506 30.8013 34.7411 30.8679 34.9316C30.9665 34.996 31.0424 35.0958 31.1179 35.1951C31.2845 35.4141 31.4489 35.6303 31.8497 35.4555C31.6185 35.1889 31.51 34.8639 31.4015 34.5388C31.3226 34.3024 31.2436 34.066 31.1175 33.8521C31.001 33.6616 31.051 33.5029 31.2007 33.36C31.3645 33.1908 31.4947 33.2885 31.6189 33.3816C31.6461 33.402 31.673 33.4223 31.7 33.4394C31.7788 33.4882 31.8547 33.546 31.9319 33.6046C32.1807 33.7937 32.4418 33.9921 32.8482 33.9315C32.7732 33.5838 32.5323 33.3744 32.2993 33.1718C32.1706 33.0599 32.0443 32.9502 31.9496 32.8203C32.0303 32.7983 32.1109 32.7747 32.1912 32.7511C32.807 32.5707 33.4032 32.396 33.8301 33.0139C33.9244 33.0075 34.0215 33.0422 34.1168 33.0763C34.257 33.1264 34.3935 33.1752 34.5124 33.0901C34.472 33.0035 34.4041 32.9256 34.3364 32.848C34.1811 32.6699 34.0273 32.4935 34.2128 32.217C34.3639 32.2702 34.4473 32.2778 34.5276 32.2852ZM34.7962 26.914C34.2974 31.0985 30.4865 34.0881 26.2842 33.5914C24.3976 33.3685 22.7528 32.4807 21.5581 31.1913C20.0918 29.6088 19.3036 27.4213 19.5784 25.1155C19.9614 21.9024 22.2973 19.3938 25.2637 18.6272C26.4502 18.4064 27.6983 18.3863 28.8795 18.5727C30.5577 18.949 32.0036 19.8624 33.052 21.1045C33.127 21.1934 32.9743 21.445 32.8213 21.6968C32.6711 21.9442 32.5207 22.1918 32.5863 22.2855C33.2936 21.8029 34.0434 22.6108 34.1502 22.7938C34.9548 24.1732 34.9995 25.208 34.7962 26.914Z" fill="url(#paint23_linear)"/>
</g>
<defs>
<filter id="filter0_d" x="11.2201" y="10.14" width="31.64" height="31.64" filterUnits="userSpaceOnUse" color-interpolation-filters="sRGB">
<feFlood flood-opacity="0" result="BackgroundImageFix"/>
<feColorMatrix in="SourceAlpha" type="matrix" values="0 0 0 0 0 0 0 0 0 0 0 0 0 0 0 0 0 0 127 0"/>
<feOffset/>
<feGaussianBlur stdDeviation="4"/>
<feColorMatrix type="matrix" values="0 0 0 0 0.583333 0 0 0 0 0.459375 0 0 0 0 0.57062 0 0 0 1 0"/>
<feBlend mode="normal" in2="BackgroundImageFix" result="effect1_dropShadow"/>
<feBlend mode="normal" in="SourceGraphic" in2="effect1_dropShadow" result="shape"/>
</filter>
<filter id="filter1_d" x="0" y="0" width="55" height="55" filterUnits="userSpaceOnUse" color-interpolation-filters="sRGB">
<feFlood flood-opacity="0" result="BackgroundImageFix"/>
<feColorMatrix in="SourceAlpha" type="matrix" values="0 0 0 0 0 0 0 0 0 0 0 0 0 0 0 0 0 0 127 0"/>
<feOffset dy="2"/>
<feGaussianBlur stdDeviation="8"/>
<feColorMatrix type="matrix" values="0 0 0 0 0.894949 0 0 0 0 0.302083 0 0 0 0 0.966667 0 0 0 0.2 0"/>
<feBlend mode="normal" in2="BackgroundImageFix" result="effect1_dropShadow"/>
<feBlend mode="normal" in="SourceGraphic" in2="effect1_dropShadow" result="shape"/>
</filter>
<radialGradient id="paint0_radial" cx="0" cy="0" r="1" gradientUnits="userSpaceOnUse" gradientTransform="translate(27.0401 25.96) rotate(90) scale(7.82)">
<stop stop-color="#5109E3"/>
<stop offset="1" stop-color="#080334"/>
</radialGradient>
<linearGradient id="paint1_linear" x1="27.5" y1="14" x2="27.5" y2="37" gradientUnits="userSpaceOnUse">
<stop stop-color="#CE44D5"/>
<stop offset="1" stop-color="#34F2FE"/>
</linearGradient>
<linearGradient id="paint2_linear" x1="27.5" y1="14" x2="27.5" y2="37" gradientUnits="userSpaceOnUse">
<stop stop-color="#CE44D5"/>
<stop offset="1" stop-color="#34F2FE"/>
</linearGradient>
<linearGradient id="paint3_linear" x1="27.5" y1="14" x2="27.5" y2="37" gradientUnits="userSpaceOnUse">
<stop stop-color="#CE44D5"/>
<stop offset="1" stop-color="#34F2FE"/>
</linearGradient>
<linearGradient id="paint4_linear" x1="27.5" y1="14" x2="27.5" y2="37" gradientUnits="userSpaceOnUse">
<stop stop-color="#CE44D5"/>
<stop offset="1" stop-color="#34F2FE"/>
</linearGradient>
<linearGradient id="paint5_linear" x1="27.5" y1="14" x2="27.5" y2="37" gradientUnits="userSpaceOnUse">
<stop stop-color="#CE44D5"/>
<stop offset="1" stop-color="#34F2FE"/>
</linearGradient>
<linearGradient id="paint6_linear" x1="27.5" y1="14" x2="27.5" y2="37" gradientUnits="userSpaceOnUse">
<stop stop-color="#CE44D5"/>
<stop offset="1" stop-color="#34F2FE"/>
</linearGradient>
<linearGradient id="paint7_linear" x1="27.5" y1="14" x2="27.5" y2="37" gradientUnits="userSpaceOnUse">
<stop stop-color="#CE44D5"/>
<stop offset="1" stop-color="#34F2FE"/>
</linearGradient>
<linearGradient id="paint8_linear" x1="27.5" y1="14" x2="27.5" y2="37" gradientUnits="userSpaceOnUse">
<stop stop-color="#CE44D5"/>
<stop offset="1" stop-color="#34F2FE"/>
</linearGradient>
<linearGradient id="paint9_linear" x1="27.5" y1="14" x2="27.5" y2="37" gradientUnits="userSpaceOnUse">
<stop stop-color="#CE44D5"/>
<stop offset="1" stop-color="#34F2FE"/>
</linearGradient>
<linearGradient id="paint10_linear" x1="27.5" y1="14" x2="27.5" y2="37" gradientUnits="userSpaceOnUse">
<stop stop-color="#CE44D5"/>
<stop offset="1" stop-color="#34F2FE"/>
</linearGradient>
<linearGradient id="paint11_linear" x1="27.5" y1="14" x2="27.5" y2="37" gradientUnits="userSpaceOnUse">
<stop stop-color="#CE44D5"/>
<stop offset="1" stop-color="#34F2FE"/>
</linearGradient>
<linearGradient id="paint12_linear" x1="27.5" y1="14" x2="27.5" y2="37" gradientUnits="userSpaceOnUse">
<stop stop-color="#CE44D5"/>
<stop offset="1" stop-color="#34F2FE"/>
</linearGradient>
<linearGradient id="paint13_linear" x1="27.5" y1="14" x2="27.5" y2="37" gradientUnits="userSpaceOnUse">
<stop stop-color="#CE44D5"/>
<stop offset="1" stop-color="#34F2FE"/>
</linearGradient>
<linearGradient id="paint14_linear" x1="27.5" y1="14" x2="27.5" y2="37" gradientUnits="userSpaceOnUse">
<stop stop-color="#CE44D5"/>
<stop offset="1" stop-color="#34F2FE"/>
</linearGradient>
<linearGradient id="paint15_linear" x1="27.5" y1="14" x2="27.5" y2="37" gradientUnits="userSpaceOnUse">
<stop stop-color="#CE44D5"/>
<stop offset="1" stop-color="#34F2FE"/>
</linearGradient>
<linearGradient id="paint16_linear" x1="27.5" y1="14" x2="27.5" y2="37" gradientUnits="userSpaceOnUse">
<stop stop-color="#CE44D5"/>
<stop offset="1" stop-color="#34F2FE"/>
</linearGradient>
<linearGradient id="paint17_linear" x1="27.5" y1="14" x2="27.5" y2="37" gradientUnits="userSpaceOnUse">
<stop stop-color="#CE44D5"/>
<stop offset="1" stop-color="#34F2FE"/>
</linearGradient>
<linearGradient id="paint18_linear" x1="27.5" y1="14" x2="27.5" y2="37" gradientUnits="userSpaceOnUse">
<stop stop-color="#CE44D5"/>
<stop offset="1" stop-color="#34F2FE"/>
</linearGradient>
<linearGradient id="paint19_linear" x1="27.5" y1="14" x2="27.5" y2="37" gradientUnits="userSpaceOnUse">
<stop stop-color="#CE44D5"/>
<stop offset="1" stop-color="#34F2FE"/>
</linearGradient>
<linearGradient id="paint20_linear" x1="27.5" y1="14" x2="27.5" y2="37" gradientUnits="userSpaceOnUse">
<stop stop-color="#CE44D5"/>
<stop offset="1" stop-color="#34F2FE"/>
</linearGradient>
<linearGradient id="paint21_linear" x1="27.5" y1="14" x2="27.5" y2="37" gradientUnits="userSpaceOnUse">
<stop stop-color="#CE44D5"/>
<stop offset="1" stop-color="#34F2FE"/>
</linearGradient>
<linearGradient id="paint22_linear" x1="27.5" y1="14" x2="27.5" y2="37" gradientUnits="userSpaceOnUse">
<stop stop-color="#CE44D5"/>
<stop offset="1" stop-color="#34F2FE"/>
</linearGradient>
<linearGradient id="paint23_linear" x1="27.5" y1="14" x2="27.5" y2="37" gradientUnits="userSpaceOnUse">
<stop stop-color="#CE44D5"/>
<stop offset="1" stop-color="#34F2FE"/>
</linearGradient>
</defs>
</svg>
