<svg width="211" height="82" viewBox="0 0 211 82" fill="none" xmlns="http://www.w3.org/2000/svg">
<g filter="url(#filter0_d)">
<circle cx="40" cy="40" r="17" fill="url(#paint0_radial)"/>
</g>
<path d="M88.632 35.92H98.712L100.336 32.56H81.856L83.592 35.92H85.272L84.46 37.6L82.864 40.96L80.428 46H93.868L95.492 42.64H85.412L86.224 40.96H92.944L97.9 37.6H87.82L88.632 35.92ZM103.254 32.56L101.63 35.92L98.4101 42.64L96.7861 46H110.226L111.85 42.64H101.77L104.99 35.92H115.07L116.694 32.56H103.254ZM118.122 42.64L122.966 32.56H119.606L114.762 42.64L113.138 46H126.578L128.202 42.64H118.122ZM135.547 32.56L129.079 46H132.439L138.907 32.56H135.547ZM155.249 32.56H141.809L139.373 37.6L137.777 40.96L135.341 46H138.701L141.137 40.96H151.217L152.813 37.6L155.249 32.56ZM150.265 35.92L149.453 37.6H142.733L143.545 35.92H150.265ZM158.16 32.56L156.536 35.92L153.316 42.64L151.692 46H165.132L166.756 42.64H156.676L159.896 35.92H169.976L171.6 32.56H158.16ZM174.512 32.56L168.044 46H171.404L177.872 32.56H174.512ZM194.298 32.56H180.858L179.234 35.92H184.274L179.43 46H182.79L187.634 35.92H192.674L194.298 32.56ZM207.26 32.56L204.824 37.6H198.104L200.54 32.56H197.18L194.744 37.6L193.148 40.96H203.228L202.416 42.64H192.336L190.712 46H204.152L206.588 40.96L208.184 37.6L210.62 32.56H207.26Z" fill="white"/>
<g filter="url(#filter1_d)">
<path d="M57.7005 46.3041C57.9852 45.4849 58.6105 44.868 59.3554 44.5471L64.2663 45.1275L59.7282 42.1445C59.125 41.6139 58.7238 40.8471 58.6869 39.968C58.6653 39.0942 59.0111 38.2961 59.6 37.7346L62.2079 35.732L59.0722 35.3614C58.313 35.0828 57.6593 34.5008 57.3197 33.7044C56.9802 32.9079 57.0097 32.0347 57.3498 31.3025L60.0947 28.1567L56.0001 29.2746C55.1918 29.2849 54.3715 28.9853 53.7541 28.3478C53.152 27.7157 52.8536 26.8994 52.8926 26.0975L53.0133 23.8288L50.8971 24.6964C50.1421 24.9968 49.2675 25.0012 48.4682 24.6408C47.6689 24.2805 47.1132 23.6134 46.8501 22.8432L46.0331 21.4953L44.5035 22.2555C43.9146 22.8169 43.1032 23.1319 42.2344 23.0703C41.3602 23.0239 40.6026 22.593 40.0822 21.972L38.8788 19.1172L37.665 22.2772C37.3249 23.0094 36.6743 23.6006 35.8482 23.8595C35.022 24.1184 34.1384 24.0008 33.4367 23.6061L31.4485 22.4794L31.292 24.7527C31.2324 25.5645 30.8613 26.3369 30.1754 26.882C29.4895 27.427 28.6485 27.6299 27.8366 27.503L25.5285 27.1493L26.2118 29.3213C26.4543 30.1013 26.3789 30.9587 25.9466 31.71C25.5143 32.4614 24.7931 32.9603 23.9985 33.1282L21.7684 33.6338L23.1872 35.4137C23.687 36.0445 23.9443 36.8806 23.8025 37.7321C23.6759 38.5888 23.1825 39.3191 22.4976 39.7626L20.6023 41.029L22.5799 42.1861C23.2764 42.596 23.8062 43.2882 24.0071 44.1388C24.1927 44.9841 24.0605 46.7448 23.5881 47.4144L22.9695 48.7112L24.4811 48.7358C25.293 48.8627 26.0248 49.3187 26.5236 50.0511C27.007 50.7783 27.1362 51.6381 26.9338 52.4177L26.7054 54.334L28.624 54.1553C29.4186 53.9874 30.2864 54.1506 31.0023 54.6521C31.7183 55.1536 33.3843 55.2015 33.4834 56.0001L32.5482 58.9729L34.4688 57.7321C35.1537 57.2886 36.0146 57.1266 36.8613 57.3504C37.7133 57.5591 38.3929 58.116 38.7793 58.8268L39.8839 60.8211L41.2277 58.974C41.6949 58.3195 42.4361 57.8615 43.3118 57.7556C44.1875 57.6496 45.0184 57.9189 45.6421 58.4396L47.3915 59.9088L47.9666 57.7118C48.1691 56.9322 48.6878 56.2276 49.4644 55.8157C50.241 55.4038 51.1109 55.3638 51.8754 55.6273L54.4289 56.5555L53.7734 54.1069C53.6742 53.3083 53.9131 52.4733 54.4724 51.7997C55.0418 51.1466 55.8332 50.7908 56.6519 50.7501L59.75 51.9097L57.8756 48.6577C57.4939 47.9826 57.4158 47.1233 57.7005 46.3041ZM54.1766 50.7236C48.5218 57.4384 36.4315 59.7477 29.672 54.123C22.9125 48.4983 20.5569 36.0362 26.2118 29.3213C28.5275 26.5656 32.1747 24.7968 36.1386 24.0591C38.7178 23.579 41.4312 23.5355 43.9989 23.9407C47.0862 24.4279 49.963 25.5637 52.1432 27.3692C58.9027 32.9939 59.8109 44.0186 54.1766 50.7236Z" fill="url(#paint1_linear)"/>
<path d="M38.7191 23.3928L39.1523 19.0897L40.0347 23.327L38.7191 23.3928Z" fill="url(#paint2_linear)"/>
<path d="M30.4135 26.4322L27.8366 18.4639L32.0282 25.2493L30.4135 26.4322Z" fill="url(#paint3_linear)"/>
<path d="M28.15 28.3593L25.6543 24.7807L29.0683 27.4823L28.15 28.3593Z" fill="url(#paint4_linear)"/>
<path d="M23.4015 36.8888L17.3702 34.7804L23.3025 34.7563L23.4015 36.8888Z" fill="url(#paint5_linear)"/>
<path d="M23.2031 37.8258L21.1918 35.3614L23.3592 36.5425L23.2031 37.8258Z" fill="url(#paint6_linear)"/>
<path d="M23.5938 43.4533L19.2254 43.7796L23.3001 42.1607L23.5938 43.4533Z" fill="url(#paint7_linear)"/>
<path d="M27.4735 51.6116L24.0071 52.8748L26.2564 49.9021L27.4735 51.6116Z" fill="url(#paint8_linear)"/>
<path d="M32.243 55.0958L29.8376 58.8267L31.2074 54.3423L32.243 55.0958Z" fill="url(#paint9_linear)"/>
<path d="M35.9607 56.8249L34.088 60.7299L34.6989 56.4483L35.9607 56.8249Z" fill="url(#paint10_linear)"/>
<path d="M38.372 57.2983L36.8613 60.4444L37.0832 57.1428L38.372 57.2983Z" fill="url(#paint11_linear)"/>
<path d="M48.9124 56.082L50.0278 60.2575L47.726 56.5676L48.9124 56.082Z" fill="url(#paint12_linear)"/>
<path d="M54.0978 51.7712L54.4289 54.6376L53.1351 52.6429L54.0978 51.7712Z" fill="url(#paint13_linear)"/>
<path d="M54.1695 49.8436L58.1986 52.4177L52.9433 51.3484L54.1695 49.8436Z" fill="url(#paint14_linear)"/>
<path d="M57.9072 44.1322L65.3032 47.6406L57.5289 45.3887L57.9072 44.1322Z" fill="url(#paint15_linear)"/>
<path d="M57.3623 41.7601L61.5087 42.8887L57.2062 43.0434L57.3623 41.7601Z" fill="url(#paint16_linear)"/>
<path d="M58.1986 38.3279L62.5239 38.6428L58.3072 39.6067L58.1986 38.3279Z" fill="url(#paint17_linear)"/>
<path d="M55.3654 32.4029L63.2657 29.8201L56.2896 34.2672L55.3654 32.4029Z" fill="url(#paint18_linear)"/>
<path d="M55.8308 29.9999L59.7937 28.1879L56.5567 31.0753L55.8308 29.9999Z" fill="url(#paint19_linear)"/>
<path d="M50.0499 25.1643L53.1697 22.1281L51.0802 25.962L50.0499 25.1643Z" fill="url(#paint20_linear)"/>
<path d="M44.0905 23.5193L48.3867 15.4026L46.7141 24.4999L44.0905 23.5193Z" fill="url(#paint21_linear)"/>
<path fill-rule="evenodd" clip-rule="evenodd" d="M62.5886 42.9001C61.6372 43.0678 60.6809 43.2364 59.7691 43.5498C57.7831 44.2382 57.4958 45.917 59.0616 47.2678C59.1497 47.3413 59.2313 47.425 59.3248 47.5208C59.3681 47.5653 59.4141 47.6125 59.4644 47.6624C59.2603 47.6584 59.0631 47.6507 58.8712 47.6433C58.4361 47.6264 58.0277 47.6106 57.6258 47.6406C56.9525 47.6854 56.6959 47.9974 56.8717 48.6486C56.9834 49.0475 57.1792 49.4302 57.3737 49.8106C57.4442 49.9483 57.5145 50.0858 57.5806 50.2236C57.6676 50.3946 57.7676 50.5627 57.889 50.7668C57.97 50.9029 58.0605 51.0551 58.163 51.2347C57.9275 51.2094 57.7089 51.1873 57.5015 51.1664C57.1167 51.1277 56.7698 51.0927 56.4242 51.048C55.4286 50.9294 54.59 51.2023 53.9098 51.9607C53.4157 52.5166 52.9229 53.0609 52.3978 53.5783C52.0423 53.9382 51.9404 54.3371 52.0783 54.7969C52.1667 55.0852 52.2545 55.374 52.3423 55.663L52.3427 55.6645C52.6421 56.6496 52.9422 57.637 53.2715 58.6136C53.4799 59.2355 53.7296 59.8393 53.9797 60.444C54.091 60.7133 54.2027 60.9832 54.3105 61.2545L54.1912 61.3822C54.112 61.3191 54.03 61.2583 53.948 61.1974C53.784 61.0757 53.62 60.954 53.4788 60.8139C52.992 60.3232 52.5103 59.8244 52.0284 59.3253C51.3906 58.6647 50.7521 58.0034 50.1004 57.3598C48.4166 55.6918 45.2019 56.2483 44.2592 58.3486C44.1662 58.562 44.1093 58.7877 44.0529 59.0119C44.0147 59.1636 43.9767 59.3146 43.9277 59.4605C43.8391 59.7132 43.7376 59.9644 43.6116 60.2763C43.5687 60.3823 43.523 60.4954 43.4741 60.618C43.4143 60.5535 43.3585 60.4935 43.3058 60.4368C43.0717 60.1851 42.8997 60.0001 42.73 59.8004C42.5746 59.616 42.4232 59.4273 42.272 59.2388C41.948 58.8349 41.6246 58.4319 41.2636 58.0738C40.7768 57.5882 40.4024 57.6885 40.0668 58.2966C39.8785 58.6276 39.7006 58.9715 39.4778 59.4043L39.4372 59.2667L39.4013 59.1447C39.3094 58.8326 39.2334 58.5743 39.1502 58.3152C38.7956 57.2584 37.9629 56.9348 37.1424 57.6898C36.0753 58.6643 35.069 59.7272 34.1504 60.8464C33.6503 61.4483 33.2348 62.1167 32.8187 62.7862C32.6403 63.0733 32.4617 63.3606 32.2763 63.6429C32.1929 63.7628 32.098 63.8814 32.0031 64C31.9741 63.9969 31.9483 63.9912 31.9226 63.9855C31.8968 63.9798 31.871 63.9741 31.842 63.971L31.9035 63.4038C31.9676 62.7039 32.0328 62.0054 32.0981 61.3074C32.2295 59.9007 32.3608 58.4953 32.4823 57.0841C32.5869 55.9009 32.2188 55.0768 31.3529 54.8433C30.8285 54.705 30.1913 54.742 29.6574 54.9072C28.7536 55.1827 27.2374 55.7946 26.1585 56.2301L26.1565 56.2309L26.1519 56.2328C26.0463 56.2754 25.9449 56.3163 25.8487 56.3551C25.9399 55.8061 26.2447 55.2093 26.5366 54.6376C26.7831 54.1549 27.0204 53.6902 27.1124 53.2873C27.5723 51.2055 26.2434 49.4 24.1096 49.288C23.5082 49.2597 22.9063 49.236 22.2793 49.2113C21.8969 49.1962 21.5044 49.1807 21.0977 49.1636C21.162 49.0559 21.2239 48.9522 21.2846 48.8507C21.521 48.4548 21.7379 48.0918 22.001 47.6446C21.0945 47.7427 20.2134 47.8367 19.3454 47.9293L19.3432 47.9295L19.3398 47.9298C18.2327 48.0479 17.1469 48.1638 16.057 48.2828C16.0388 48.234 16.0194 48.1968 16 48.1596L18.1589 46.7403C18.6686 46.4036 19.1801 46.069 19.6911 45.7347L19.6928 45.7335C20.4346 45.2483 21.1755 44.7635 21.9086 44.274C22.1721 44.1149 22.3955 43.893 22.5969 43.657C23.0678 43.0987 23.0205 42.7774 22.3551 42.4249C21.577 42.0071 20.7898 41.6092 20.0011 41.2105C19.7678 41.0926 19.5337 40.9743 19.3003 40.8557C19.2668 40.8379 19.2321 40.82 19.1943 40.8005C19.1072 40.7555 19.0032 40.7017 18.8567 40.6207C18.9072 40.5824 18.9552 40.5456 19.0016 40.51C19.1667 40.3835 19.3108 40.273 19.4683 40.1711C20.1854 39.7212 20.9141 39.2725 21.6428 38.8238C23.338 37.788 23.6316 36.0513 22.3782 34.5232C21.8278 33.8669 21.2774 33.2106 20.7385 32.5556C20.6056 32.4019 20.4829 32.2324 20.3299 32.0211C20.303 31.9839 20.2751 31.9454 20.2461 31.9055C20.4532 31.8787 20.6551 31.853 20.8529 31.8279L20.8566 31.8274L20.8576 31.8272C21.5553 31.7386 22.2027 31.6563 22.8523 31.553C22.9726 31.5322 23.0914 31.4689 23.2085 31.4066C23.2542 31.3822 23.2996 31.358 23.3448 31.3365C23.3243 31.3009 23.3048 31.2638 23.285 31.2263C23.2287 31.1194 23.1708 31.0095 23.0848 30.9222L18.6798 26.4444C18.5636 26.3266 18.4602 26.1984 18.4273 25.9606C19.5529 26.329 20.6811 26.6953 21.823 27.066L21.8262 27.067L21.828 27.0676C23.2234 27.5207 24.6392 27.9803 26.0955 28.4585C25.9177 27.7719 25.4465 27.1154 24.9753 26.4588C24.5041 25.8023 24.0329 25.1457 23.8551 24.4592C24.457 24.6045 25.3209 24.7439 26.1751 24.8817C27.0561 25.0238 27.9268 25.1643 28.4888 25.3079C29.6755 25.6109 31.0232 25.0765 31.6639 24.0328C31.6959 23.9887 31.6242 23.4666 31.5627 23.0187C31.5183 22.6954 31.4792 22.4106 31.4882 22.3723C31.5877 21.8326 31.7618 21.6411 31.9359 21.4496C32.11 21.2581 32.2841 21.0666 32.3836 20.5269C32.4129 20.335 32.4665 20.1458 32.531 19.9177C32.5556 19.8308 32.5819 19.7381 32.6089 19.6377C33.1023 19.9541 33.5323 20.337 33.9595 20.7175C34.6526 21.3347 35.3386 21.9456 36.2771 22.2564C36.3073 22.248 36.5626 20.1881 36.8179 18.1282C37.0732 16.0683 37.3285 14.0085 37.3588 14C37.4128 14.1062 37.4737 14.2099 37.5344 14.3133C37.6366 14.4874 37.7384 14.6608 37.8067 14.8444C38.1865 15.8174 38.5567 16.7939 38.9287 17.7753C39.1501 18.3595 39.3722 18.9454 39.5973 19.5332C39.6639 19.7037 39.7381 19.8713 39.8182 20.0522C39.8816 20.1956 39.9487 20.3473 40.0187 20.5153C40.4852 19.7808 40.8965 19.1224 41.3079 18.4639C41.3433 18.4619 41.5505 18.8073 41.7576 19.1528C41.9648 19.4983 42.172 19.8438 42.2074 19.8417C42.4619 20.3092 42.5575 20.4485 42.6515 20.5855C42.7525 20.7328 42.8518 20.8776 43.1449 21.4247C43.2287 21.2561 43.3076 21.0982 43.3864 20.9404C43.505 20.703 43.6241 20.4644 43.7593 20.1909C43.7862 20.2681 43.8141 20.3362 43.8395 20.3985C43.8903 20.5226 43.9314 20.6232 43.936 20.7251C43.9951 22.4528 46.5334 23.0532 47.7411 22.1875C47.9447 22.0396 48.1461 21.8856 48.3475 21.7316C48.5488 21.5776 48.7502 21.4235 48.9538 21.2756C49.1566 21.1265 49.3736 20.9892 49.6182 20.8345C49.7425 20.7559 49.8738 20.6728 50.014 20.5814C50.0134 20.7581 50.0121 20.93 50.0108 21.098L50.0108 21.0997C50.0064 21.6769 50.0023 22.2091 50.0268 22.7374C50.0421 23.1372 50.1154 23.5432 50.2505 23.9207C50.5423 24.7242 51.6913 23.5959 52.7597 22.5468C53.3115 22.0048 53.8418 21.484 54.2214 21.2616C54.2214 21.2616 52.6109 26.4872 53.8665 25.7203C54.2091 25.5077 55.1867 24.5079 56.1699 23.5025C57.1712 22.4785 58.1783 21.4486 58.5266 21.2378C58.5479 21.2577 58.5663 21.2772 58.5847 21.2967L58.5872 21.2994L58.6015 21.2712L58.6191 21.2364C58.737 21.2397 58.6618 21.27 58.5887 21.2996L58.5872 21.2994C58.6046 21.3179 58.6226 21.3369 58.6428 21.3557C58.5662 21.5438 58.2194 22.5017 57.8178 23.611C57.2135 25.2803 56.485 27.2924 56.3666 27.54C55.8252 28.6412 55.8759 29.6888 56.5485 30.7329C56.8797 31.2486 57.1967 31.7862 57.4648 32.3419C57.7925 32.9977 58.301 33.3919 58.9968 33.572C59.5792 33.7165 60.1487 33.8713 60.8433 34.063C60.5283 34.3779 60.2349 34.6754 59.9278 34.9868L59.9268 34.9879L59.9235 34.9912C59.7576 35.1594 59.5876 35.3318 59.4081 35.5131C59.691 35.5435 60.1937 35.6044 60.6656 35.6615C61.0828 35.7121 61.4767 35.7597 61.6724 35.7808C61.6763 35.7987 61.4587 35.7897 61.2411 35.7808C61.0234 35.7718 60.8058 35.7628 60.8097 35.7807C60.6819 35.8514 60.5555 35.9256 60.4288 36C60.2215 36.1216 60.0135 36.2436 59.7981 36.3513C59.253 36.6206 58.9979 37.0265 58.9328 37.6284C58.7488 39.4354 58.9054 39.7216 60.6094 40.3378L65.5858 42.1368C65.7328 42.1877 65.8656 42.2605 66 42.4272C65.647 42.4751 65.2932 42.5191 64.9394 42.563C64.2315 42.651 63.5233 42.7389 62.8223 42.8588L62.7009 42.8803L62.5886 42.9001ZM58.5266 21.2378C58.5657 21.2362 58.5961 21.2358 58.6191 21.2364C58.8419 20.7962 59.0479 20.3848 58.5266 21.2378ZM58.5868 21.3003L58.5577 21.3577C58.4506 21.3558 58.517 21.3285 58.5868 21.3003ZM56.8612 42.074C55.777 51.1707 47.4924 57.6698 38.357 56.5901C34.2556 56.1054 30.68 54.1754 28.0829 51.3725C24.8953 47.9322 23.1817 43.1768 23.7792 38.1642C24.6117 31.1792 29.6898 25.7257 36.1386 24.0591C38.7178 23.579 41.4312 23.5355 43.9989 23.9407C47.6473 24.7586 50.7904 26.7444 53.0695 29.4446C53.2327 29.6379 52.9005 30.1848 52.5681 30.7322C52.2415 31.27 51.9146 31.8083 52.0572 32.0119C53.5948 30.9629 55.2248 32.7191 55.4569 33.117C57.206 36.1156 57.3033 38.3653 56.8612 42.074Z" fill="url(#paint22_linear)"/>
<path fill-rule="evenodd" clip-rule="evenodd" d="M56.2775 53.7504C56.4683 53.768 56.6514 53.7848 57.0102 53.929C57.4443 54.3086 59.2831 55.0862 59.7173 54.7756C59.894 54.1013 59.4232 53.9073 58.9884 53.7282C58.8891 53.6873 58.7917 53.6472 58.7043 53.6023C57.2572 52.843 55.8825 51.9803 54.761 50.7379C55.3905 50.556 55.9597 50.7578 56.5268 50.9589C57.0353 51.1392 57.5421 51.319 58.0893 51.2211C58.017 50.4964 57.3658 50.2548 56.8593 50.1513C55.9549 49.9787 55.4122 49.392 55.5207 48.7363C55.6124 48.2699 56.2721 48.1482 56.8673 48.0385C56.9767 48.0183 57.0838 47.9985 57.1849 47.9771C58.9829 47.5655 60.7453 47.9722 62.9693 48.4855L63.0094 48.4948C60.7664 47.0108 58.9937 45.8375 57.1849 44.6296C57.468 44.4496 57.8743 44.4 58.2342 44.3561C58.7019 44.299 59.0912 44.2515 59.0299 43.9394C58.9967 43.7572 59.0073 43.5439 59.0185 43.3206C59.0549 42.5921 59.0966 41.7567 57.6368 41.5404L57.6399 41.5072C59.4933 41.2664 60.9052 40.923 62.2135 40.3159C62.4417 39.9894 62.2426 39.8989 62.0418 39.8075C61.9878 39.783 61.9338 39.7584 61.8879 39.7292C61.7431 39.7074 61.5966 39.6871 61.4496 39.6668C60.8989 39.5905 60.3398 39.513 59.8258 39.3496C58.9214 39.0735 58.0893 38.6939 59.0299 37.6241C59.4231 37.2073 59.1963 36.8912 58.9709 36.5769C58.823 36.3708 58.6757 36.1655 58.7043 35.9331C58.9317 35.7672 59.169 35.6108 59.4052 35.455C59.8078 35.1896 60.2073 34.9262 60.5493 34.6217C61.0196 34.2076 61.2729 33.5864 60.9835 32.9307C60.8054 32.5485 60.4691 32.6969 60.1188 32.8516C59.8998 32.9483 59.6753 33.0474 59.4805 33.0208C59.3481 33.0021 59.2167 32.9843 59.0863 32.9666C58.2544 32.8537 57.4602 32.7459 56.6784 32.4476L57.2572 30.7911C57.3296 30.377 57.1487 30.2389 56.7508 30.308L56.4252 30.4115C56.3646 30.4372 56.3025 30.4643 56.2393 30.492C55.893 30.6434 55.5129 30.8096 55.1706 30.8267C54.939 30.4485 54.6932 30.0799 54.4341 29.7215C54.5794 29.5619 54.8158 29.4396 55.0462 29.3205C55.206 29.2379 55.363 29.1567 55.4846 29.0656C57.2572 27.6852 57.8652 26.4428 57.5396 24.3032C56.6106 25.1282 55.3186 25.7368 54.1809 26.2727C54.0336 26.342 53.889 26.4101 53.7481 26.4773C53.4586 25.6491 50.8901 24.1652 50.058 24.3032C50.2389 22.4397 50.8901 20.6796 52.2286 19.2302C51.2519 18.5055 50.7454 18.7471 50.2751 19.7824C49.7986 20.8828 49.2178 21.9501 48.605 23.0762C48.3941 23.4637 48.1794 23.8583 47.9639 24.2635C47.814 24.1899 47.663 24.1184 47.5108 24.0491C47.2025 23.3724 47.0266 22.8414 47.0553 22.2671C47.0663 22.1623 47.124 22.0288 47.1829 21.8927C47.3177 21.581 47.4583 21.2558 47.0553 21.2318C46.5882 21.1975 46.4423 21.708 46.334 22.0869L46.3318 22.0946C46.0069 22.327 45.8846 22.1342 45.7679 21.9502C45.7286 21.8883 45.6899 21.8274 45.6444 21.784C44.8899 21.5854 44.9026 21.1012 44.9153 20.6139C44.9203 20.4236 44.9253 20.2329 44.8847 20.0585C44.8664 19.98 44.8597 19.8906 44.8528 19.7996C44.8326 19.5303 44.8112 19.2473 44.4868 19.1957C44.0165 19.1267 43.7994 19.5063 43.6185 19.8859C43.5558 19.9936 43.5409 20.122 43.5256 20.2539C43.4968 20.5024 43.4666 20.7634 43.112 20.9212C42.8196 19.8056 42.7898 18.6621 42.7606 17.5408C42.7573 17.4134 42.7539 17.2863 42.7503 17.1596C42.7503 17.119 42.7511 17.0759 42.752 17.0314C42.7591 16.6607 42.7682 16.1896 42.3161 16.1588C41.6649 16.0898 41.1301 18.7816 41.1301 19.1957C41.1124 19.9215 41.2486 20.1685 41.3924 20.4292C41.5426 20.7016 41.7011 20.989 41.7011 21.853C41.0896 21.3992 40.5631 21.0131 40.0596 20.6439C39.7591 20.4235 39.4661 20.2087 39.1687 19.9894C39.1083 19.9375 39.0488 19.8837 38.9892 19.8297C38.6921 19.5607 38.3907 19.2877 37.9387 19.2302C37.6855 19.3337 37.4684 19.4373 37.6855 19.7479C37.6613 19.8787 37.6443 20.0112 37.6272 20.1439C37.5679 20.6064 37.5083 21.0711 37.1428 21.4734C36.985 21.2777 36.9924 21.0426 36.9999 20.8054C37.0095 20.4987 37.0193 20.1884 36.6725 19.9549C36.564 20.162 36.4916 20.3 36.3831 20.4381C36.2287 20.6344 36.1841 20.8788 36.1387 21.1277C36.0564 21.5787 35.9714 22.0447 35.2254 22.2671C34.2136 22.5659 34.1002 22.0841 33.9878 21.6066C33.9314 21.3671 33.8752 21.1286 33.706 20.9902C33.5383 20.8569 33.4096 20.5771 33.2793 20.294C33.0724 19.8444 32.8616 19.3862 32.4843 19.4921C31.7969 19.6991 31.4992 21.1628 31.4269 21.7495C31.3183 22.7502 30.9204 23.682 29.3648 23.2334C28.4285 22.9655 27.9163 22.3364 27.4068 21.7107C27.1288 21.3693 26.8516 21.0289 26.5068 20.7487C26.145 20.6796 25.9641 20.7487 26.1088 21.1283C25.8645 21.5945 26.0567 21.9827 26.2498 22.3727C26.3711 22.6177 26.4928 22.8635 26.5068 23.1299C26.5701 23.3024 26.6289 23.4771 26.6877 23.6518C26.864 24.1759 27.0404 24.7001 27.3389 25.166C27.3771 25.2298 27.433 25.2888 27.4886 25.3475C27.6434 25.5108 27.7955 25.6713 27.5559 25.9252C27.5506 26.0309 27.5508 26.1432 27.5509 26.2544C27.5515 26.9056 27.5521 27.5191 26.4706 26.5464C26.4278 26.5106 26.3747 26.456 26.3139 26.3935C25.9636 26.0333 25.3573 25.4097 24.9874 26.6154C24.8895 26.8486 24.8413 26.7508 24.798 26.6629C24.7772 26.6207 24.7576 26.5809 24.7341 26.5809C24.4447 26.1667 24.0106 26.1322 23.685 26.4428C23.4379 26.6785 23.6729 26.947 23.8524 27.1522L23.8659 27.1675C23.9925 27.3228 24.1281 27.4695 24.2638 27.6162C24.3995 27.7628 24.5351 27.9095 24.6618 28.0648C24.7881 28.7577 24.4733 28.609 24.1266 28.4453C24.0761 28.4215 24.0249 28.3973 23.9744 28.3754C23.8672 28.3023 23.7729 28.2231 23.6807 28.1455C23.555 28.0399 23.4331 27.9373 23.287 27.8577C23.267 27.845 23.2466 27.8319 23.2259 27.8186C22.9085 27.6147 22.5073 27.357 22.2017 27.6162C21.8289 27.9718 22.0926 28.2624 22.3441 28.5395C22.4099 28.6119 22.4748 28.6835 22.5273 28.755L22.8529 29.1691C23.2834 29.6776 22.9588 29.7538 22.6296 29.8312C22.3778 29.8904 22.1233 29.9502 22.2017 30.2044C22.2017 30.4857 22.3397 30.7963 22.4782 31.108C22.8154 31.867 23.1556 32.6328 21.5144 32.9997C21.4553 33.0138 21.3993 33.0293 21.3444 33.0445C21.1304 33.1038 20.934 33.1582 20.6461 33.1033C20.1758 33.0343 19.7779 33.3448 19.7417 33.897C19.7124 34.3162 19.9915 34.3507 20.2716 34.3853C20.3374 34.3934 20.4033 34.4015 20.4652 34.4147C20.6461 34.4492 20.818 34.4923 20.9898 34.5354C21.1616 34.5786 21.3335 34.6217 21.5144 34.6562C22.2379 34.7943 23.1423 35.2084 22.9614 35.8641C22.8032 36.4893 22.4333 36.3199 22.0367 36.1383C21.7985 36.0293 21.5507 35.9158 21.3335 35.9676C21.2725 35.987 21.223 36.0173 21.1656 36.0523C21.1209 36.0796 21.0713 36.1099 21.0079 36.1402C21.9812 37.5328 21.2232 37.545 20.4624 37.5571C19.979 37.5649 19.4944 37.5726 19.4523 37.9347C19.5293 38.0817 19.6982 38.0847 19.8668 38.0877C20.094 38.0917 20.3205 38.0957 20.3205 38.4523C20.5014 38.4523 20.5738 38.5904 20.4652 38.6594C20.3647 38.6914 20.3728 38.6789 20.3853 38.6597C20.3999 38.6375 20.4202 38.6064 20.2843 38.6249C20.1197 38.6491 19.9506 38.6436 19.7818 38.6382C19.4683 38.6281 19.1556 38.618 18.8734 38.7974L18.9096 38.8319C18.6983 39.0335 18.3809 39.1063 18.0613 39.1796C17.5054 39.3071 16.9429 39.4361 16.9199 40.2469C17.1766 40.9203 17.7749 40.9421 18.3361 40.9625C18.4075 40.9651 18.4784 40.9677 18.5478 40.9716C19.6332 41.0751 20.7185 40.9371 21.9485 40.6955C21.1526 42.1104 19.9587 42.3865 18.7287 42.6281C18.6462 42.6569 18.5628 42.6852 18.4794 42.7135C17.4661 43.0571 16.4492 43.4019 16.8837 44.8367L17.1008 45.0438C17.7065 44.9376 18.2953 44.7469 18.8903 44.5541C20.0367 44.1828 21.206 43.804 22.5635 44.0085C22.4173 44.2176 22.3103 44.4411 22.206 44.6591C21.9488 45.1964 21.7076 45.7002 20.9355 45.872C20.212 46.0446 19.4523 46.7002 19.7417 47.3214C19.9638 47.8159 20.4049 47.6196 20.8466 47.423C21.0523 47.3314 21.2581 47.2398 21.442 47.2179C21.5867 47.1834 21.6952 47.1489 21.8038 47.1144C22.445 46.9178 23.0427 47.0807 23.6428 47.2443C23.9313 47.3229 24.2204 47.4017 24.5152 47.4408C24.6005 47.6163 24.6887 47.7903 24.7798 47.9625C24.3386 48.0605 23.9905 47.9307 23.5807 47.7778C23.2175 47.6423 22.8059 47.4888 22.2379 47.4595C21.8761 47.4595 20.6262 49.4738 20.6624 49.8879C20.6871 50.0295 21.296 50.2618 21.7597 50.4388C21.9743 50.5207 22.1578 50.5907 22.2379 50.6344C22.4 50.7117 22.5849 50.7782 22.7733 50.846C22.9212 50.8993 23.0715 50.9533 23.2147 51.014C23.5403 51.4972 23.5764 51.9458 23.1785 52.3944C22.916 52.6448 22.5873 52.7817 22.2565 52.9194C22.0402 53.0095 21.8231 53.0999 21.6229 53.2227C21.6048 53.2572 21.5777 53.2831 21.5505 53.3089C21.5234 53.3348 21.4963 53.3607 21.4782 53.3952C21.6651 54.4254 23.0582 53.8386 24.4094 53.2694C25.4118 52.8471 26.3912 52.4345 26.838 52.6991C27.0772 52.8458 26.9682 53.6097 26.8703 54.2951C26.761 55.0608 26.6656 55.7284 27.0856 55.3278C27.7773 54.635 28.502 54.8568 29.2599 55.0887C29.2947 55.0994 29.3297 55.1101 29.3648 55.1207L29.3702 55.1175C29.6542 54.9482 29.6545 54.9479 30.014 54.9137C29.8667 54.994 29.8547 55.1094 29.842 55.2327C29.8328 55.3212 29.8232 55.4138 29.7627 55.5003C29.6963 55.613 29.6177 55.7229 29.5385 55.8336C29.2298 56.2655 28.9107 56.7118 29.2562 57.3984C29.5011 57.3335 29.6692 57.1272 29.8375 56.9206C30.1169 56.5777 30.3968 56.2341 31.0289 56.5356C31.5689 56.7932 31.5352 57.1842 31.5021 57.5676C31.482 57.8007 31.4621 58.0309 31.5716 58.2266C31.5716 58.2784 31.5693 58.3302 31.567 58.3819C31.5603 58.5372 31.5535 58.6925 31.6077 58.8478C31.6801 59.1929 31.9333 59.469 32.3313 59.538C32.6569 59.469 33.0548 59.4345 33.2719 59.7451C34.2842 61.2074 34.4872 60.4859 34.6943 59.7498C34.7462 59.5652 34.7984 59.3796 34.8637 59.2274C35.041 59.0583 35.0681 58.8482 35.0969 58.6251C35.121 58.4385 35.1463 58.2427 35.2616 58.0541C35.4307 58.1831 35.5612 58.3691 35.6913 58.5547C35.9788 58.9646 36.2646 59.3722 36.9619 59.1584C37.2875 58.6407 37.6131 58.0886 37.9387 57.5019C38.0092 57.6001 38.0772 57.7061 38.1459 57.8131C38.536 58.421 38.9496 59.0653 39.9646 58.5372C40.0112 58.4816 40.0278 58.3974 40.0446 58.3123C40.0799 58.133 40.1161 57.9494 40.4349 58.0196C40.6882 58.0886 40.8329 58.2956 40.652 58.5372C40.6158 59.3655 40.6158 60.5043 41.5926 60.4353C42.3544 60.3794 42.2619 59.6217 42.18 58.9507C42.1608 58.7932 42.1421 58.6404 42.1353 58.5027C42.1327 58.4581 42.1297 58.4137 42.1267 58.3695C42.0962 57.9122 42.0672 57.4795 42.4701 57.1278C42.6221 57.1086 42.7736 57.0874 42.9244 57.0643C43.3708 58.2538 44.1431 59.1918 45.2103 59.8486C45.8632 59.5466 45.7695 59.0589 45.6748 58.5659C45.5964 58.1576 45.5172 57.7456 45.8615 57.4329C46.6574 57.4329 47.3447 57.6399 47.8512 58.2611C48.0321 58.6753 48.1768 59.0894 48.3215 59.5035C48.5358 59.6434 48.7009 59.8605 48.865 60.0762C49.2272 60.5524 49.5846 61.0223 50.456 60.6423C49.9533 60.0629 49.7174 59.3563 49.4815 58.6496C49.3099 58.1357 49.1383 57.6218 48.8642 57.1568C48.6109 56.7427 48.7195 56.3976 49.0451 56.087C49.4011 55.7191 49.6841 55.9314 49.9541 56.134C50.0132 56.1784 50.0718 56.2223 50.1304 56.2595C50.3016 56.3657 50.4668 56.4913 50.6346 56.6188C51.1755 57.0298 51.743 57.4611 52.6266 57.3294C52.4634 56.5734 51.9398 56.1183 51.4332 55.6778C51.1535 55.4347 50.8789 55.196 50.673 54.9137C50.8484 54.8659 51.0237 54.8145 51.1984 54.7633C52.5369 54.3711 53.833 53.9914 54.761 55.3346C54.9661 55.3206 55.1771 55.396 55.3844 55.4701C55.6891 55.5791 55.9859 55.6852 56.2443 55.5003C56.1565 55.3119 56.0088 55.1426 55.8618 54.974C55.5241 54.5867 55.1898 54.2034 55.5931 53.6023C55.9216 53.7177 56.1028 53.7344 56.2775 53.7504ZM56.8612 42.074C55.777 51.1707 47.4924 57.6698 38.357 56.5901C34.2556 56.1054 30.68 54.1754 28.0829 51.3725C24.8953 47.9322 23.1817 43.1768 23.7792 38.1642C24.6117 31.1792 29.6898 25.7257 36.1386 24.0591C38.7178 23.579 41.4312 23.5355 43.9989 23.9407C47.6473 24.7586 50.7904 26.7444 53.0695 29.4446C53.2327 29.6379 52.9005 30.1848 52.5681 30.7322C52.2415 31.27 51.9146 31.8083 52.0572 32.0119C53.5948 30.9629 55.2248 32.7191 55.4569 33.117C57.206 36.1156 57.3033 38.3653 56.8612 42.074Z" fill="url(#paint23_linear)"/>
</g>
<defs>
<filter id="filter0_d" x="15" y="15" width="50" height="50" filterUnits="userSpaceOnUse" color-interpolation-filters="sRGB">
<feFlood flood-opacity="0" result="BackgroundImageFix"/>
<feColorMatrix in="SourceAlpha" type="matrix" values="0 0 0 0 0 0 0 0 0 0 0 0 0 0 0 0 0 0 127 0"/>
<feOffset/>
<feGaussianBlur stdDeviation="4"/>
<feColorMatrix type="matrix" values="0 0 0 0 0.583333 0 0 0 0 0.459375 0 0 0 0 0.57062 0 0 0 1 0"/>
<feBlend mode="normal" in2="BackgroundImageFix" result="effect1_dropShadow"/>
<feBlend mode="normal" in="SourceGraphic" in2="effect1_dropShadow" result="shape"/>
</filter>
<filter id="filter1_d" x="0" y="0" width="82" height="82" filterUnits="userSpaceOnUse" color-interpolation-filters="sRGB">
<feFlood flood-opacity="0" result="BackgroundImageFix"/>
<feColorMatrix in="SourceAlpha" type="matrix" values="0 0 0 0 0 0 0 0 0 0 0 0 0 0 0 0 0 0 127 0"/>
<feOffset dy="2"/>
<feGaussianBlur stdDeviation="8"/>
<feColorMatrix type="matrix" values="0 0 0 0 0.894949 0 0 0 0 0.302083 0 0 0 0 0.966667 0 0 0 0.2 0"/>
<feBlend mode="normal" in2="BackgroundImageFix" result="effect1_dropShadow"/>
<feBlend mode="normal" in="SourceGraphic" in2="effect1_dropShadow" result="shape"/>
</filter>
<radialGradient id="paint0_radial" cx="0" cy="0" r="1" gradientUnits="userSpaceOnUse" gradientTransform="translate(40 40) rotate(90) scale(17)">
<stop stop-color="#5109E3"/>
<stop offset="1" stop-color="#080334"/>
</radialGradient>
<linearGradient id="paint1_linear" x1="41" y1="14" x2="41" y2="64" gradientUnits="userSpaceOnUse">
<stop stop-color="#CE44D5"/>
<stop offset="1" stop-color="#34F2FE"/>
</linearGradient>
<linearGradient id="paint2_linear" x1="41" y1="14" x2="41" y2="64" gradientUnits="userSpaceOnUse">
<stop stop-color="#CE44D5"/>
<stop offset="1" stop-color="#34F2FE"/>
</linearGradient>
<linearGradient id="paint3_linear" x1="41" y1="14" x2="41" y2="64" gradientUnits="userSpaceOnUse">
<stop stop-color="#CE44D5"/>
<stop offset="1" stop-color="#34F2FE"/>
</linearGradient>
<linearGradient id="paint4_linear" x1="41" y1="14" x2="41" y2="64" gradientUnits="userSpaceOnUse">
<stop stop-color="#CE44D5"/>
<stop offset="1" stop-color="#34F2FE"/>
</linearGradient>
<linearGradient id="paint5_linear" x1="41" y1="14" x2="41" y2="64" gradientUnits="userSpaceOnUse">
<stop stop-color="#CE44D5"/>
<stop offset="1" stop-color="#34F2FE"/>
</linearGradient>
<linearGradient id="paint6_linear" x1="41" y1="14" x2="41" y2="64" gradientUnits="userSpaceOnUse">
<stop stop-color="#CE44D5"/>
<stop offset="1" stop-color="#34F2FE"/>
</linearGradient>
<linearGradient id="paint7_linear" x1="41" y1="14" x2="41" y2="64" gradientUnits="userSpaceOnUse">
<stop stop-color="#CE44D5"/>
<stop offset="1" stop-color="#34F2FE"/>
</linearGradient>
<linearGradient id="paint8_linear" x1="41" y1="14" x2="41" y2="64" gradientUnits="userSpaceOnUse">
<stop stop-color="#CE44D5"/>
<stop offset="1" stop-color="#34F2FE"/>
</linearGradient>
<linearGradient id="paint9_linear" x1="41" y1="14" x2="41" y2="64" gradientUnits="userSpaceOnUse">
<stop stop-color="#CE44D5"/>
<stop offset="1" stop-color="#34F2FE"/>
</linearGradient>
<linearGradient id="paint10_linear" x1="41" y1="14" x2="41" y2="64" gradientUnits="userSpaceOnUse">
<stop stop-color="#CE44D5"/>
<stop offset="1" stop-color="#34F2FE"/>
</linearGradient>
<linearGradient id="paint11_linear" x1="41" y1="14" x2="41" y2="64" gradientUnits="userSpaceOnUse">
<stop stop-color="#CE44D5"/>
<stop offset="1" stop-color="#34F2FE"/>
</linearGradient>
<linearGradient id="paint12_linear" x1="41" y1="14" x2="41" y2="64" gradientUnits="userSpaceOnUse">
<stop stop-color="#CE44D5"/>
<stop offset="1" stop-color="#34F2FE"/>
</linearGradient>
<linearGradient id="paint13_linear" x1="41" y1="14" x2="41" y2="64" gradientUnits="userSpaceOnUse">
<stop stop-color="#CE44D5"/>
<stop offset="1" stop-color="#34F2FE"/>
</linearGradient>
<linearGradient id="paint14_linear" x1="41" y1="14" x2="41" y2="64" gradientUnits="userSpaceOnUse">
<stop stop-color="#CE44D5"/>
<stop offset="1" stop-color="#34F2FE"/>
</linearGradient>
<linearGradient id="paint15_linear" x1="41" y1="14" x2="41" y2="64" gradientUnits="userSpaceOnUse">
<stop stop-color="#CE44D5"/>
<stop offset="1" stop-color="#34F2FE"/>
</linearGradient>
<linearGradient id="paint16_linear" x1="41" y1="14" x2="41" y2="64" gradientUnits="userSpaceOnUse">
<stop stop-color="#CE44D5"/>
<stop offset="1" stop-color="#34F2FE"/>
</linearGradient>
<linearGradient id="paint17_linear" x1="41" y1="14" x2="41" y2="64" gradientUnits="userSpaceOnUse">
<stop stop-color="#CE44D5"/>
<stop offset="1" stop-color="#34F2FE"/>
</linearGradient>
<linearGradient id="paint18_linear" x1="41" y1="14" x2="41" y2="64" gradientUnits="userSpaceOnUse">
<stop stop-color="#CE44D5"/>
<stop offset="1" stop-color="#34F2FE"/>
</linearGradient>
<linearGradient id="paint19_linear" x1="41" y1="14" x2="41" y2="64" gradientUnits="userSpaceOnUse">
<stop stop-color="#CE44D5"/>
<stop offset="1" stop-color="#34F2FE"/>
</linearGradient>
<linearGradient id="paint20_linear" x1="41" y1="14" x2="41" y2="64" gradientUnits="userSpaceOnUse">
<stop stop-color="#CE44D5"/>
<stop offset="1" stop-color="#34F2FE"/>
</linearGradient>
<linearGradient id="paint21_linear" x1="41" y1="14" x2="41" y2="64" gradientUnits="userSpaceOnUse">
<stop stop-color="#CE44D5"/>
<stop offset="1" stop-color="#34F2FE"/>
</linearGradient>
<linearGradient id="paint22_linear" x1="41" y1="14" x2="41" y2="64" gradientUnits="userSpaceOnUse">
<stop stop-color="#CE44D5"/>
<stop offset="1" stop-color="#34F2FE"/>
</linearGradient>
<linearGradient id="paint23_linear" x1="41" y1="14" x2="41" y2="64" gradientUnits="userSpaceOnUse">
<stop stop-color="#CE44D5"/>
<stop offset="1" stop-color="#34F2FE"/>
</linearGradient>
</defs>
</svg>
